<?xml version="1.0" encoding="us-ascii" standalone="no"?><svg xmlns="http://www.w3.org/2000/svg" xmlns:xlink="http://www.w3.org/1999/xlink" contentStyleType="text/css" height="65px" preserveAspectRatio="none" style="width:424px;height:65px;background:#FFFFFF;" version="1.1" viewBox="0 0 424 65" width="424px" zoomAndPan="magnify"><defs/><g><path d="M8.5,6 L68.5,6 A3.75,3.75 0 0 1 71,8.5 L78,28.2969 L82.5,28.2969 A2.5,2.5 0 0 1 85,30.7969 L85,56.0938 A2.5,2.5 0 0 1 82.5,58.5938 L8.5,58.5938 A2.5,2.5 0 0 1 6,56.0938 L6,8.5 A2.5,2.5 0 0 1 8.5,6 " fill="#F1F1F1" style="stroke:#181818;stroke-width:0.5;"/><line style="stroke:#181818;stroke-width:0.5;" x1="6" x2="78" y1="28.2969" y2="28.2969"/><text fill="#000000" font-family="sans-serif" font-size="14" font-weight="bold" lengthAdjust="spacing" textLength="59" x="10" y="20.9951">Service</text><path d="M122.5,6 L202.5,6 A3.75,3.75 0 0 1 205,8.5 L212,28.2969 L216.5,28.2969 A2.5,2.5 0 0 1 219,30.7969 L219,56.0938 A2.5,2.5 0 0 1 216.5,58.5938 L122.5,58.5938 A2.5,2.5 0 0 1 120,56.0938 L120,8.5 A2.5,2.5 0 0 1 122.5,6 " fill="#F1F1F1" style="stroke:#181818;stroke-width:0.5;"/><line style="stroke:#181818;stroke-width:0.5;" x1="120" x2="212" y1="28.2969" y2="28.2969"/><text fill="#000000" font-family="sans-serif" font-size="14" font-weight="bold" lengthAdjust="spacing" textLength="79" x="124" y="20.9951">Controller</text><path d="M256.5,6 L294.5,6 A3.75,3.75 0 0 1 297,8.5 L304,28.2969 L308.5,28.2969 A2.5,2.5 0 0 1 311,30.7969 L311,56.0938 A2.5,2.5 0 0 1 308.5,58.5938 L256.5,58.5938 A2.5,2.5 0 0 1 254,56.0938 L254,8.5 A2.5,2.5 0 0 1 256.5,6 " fill="#F1F1F1" style="stroke:#181818;stroke-width:0.5;"/><line style="stroke:#181818;stroke-width:0.5;" x1="254" x2="304" y1="28.2969" y2="28.2969"/><text fill="#000000" font-family="sans-serif" font-size="14" font-weight="bold" lengthAdjust="spacing" textLength="37" x="258" y="20.9951">Auth</text><path d="M348.5,6 L400.5,6 A3.75,3.75 0 0 1 403,8.5 L410,28.2969 L414.5,28.2969 A2.5,2.5 0 0 1 417,30.7969 L417,56.0938 A2.5,2.5 0 0 1 414.5,58.5938 L348.5,58.5938 A2.5,2.5 0 0 1 346,56.0938 L346,8.5 A2.5,2.5 0 0 1 348.5,6 " fill="#F1F1F1" style="stroke:#181818;stroke-width:0.5;"/><line style="stroke:#181818;stroke-width:0.5;" x1="346" x2="410" y1="28.2969" y2="28.2969"/><text fill="#000000" font-family="sans-serif" font-size="14" font-weight="bold" lengthAdjust="spacing" textLength="51" x="350" y="20.9951">Config</text><!--SRC=[AyxEp2j8B4hCLKZEIImkTYmfASfCAYr9zKpEpmlEh4fLCE3YAaXCpavCJrLG2aujAijCJbLIgERYgaKITyxFAodApyb9BSAGSYmjoS2cFYqp7IeC0000]--></g></svg>