<?xml version="1.0" encoding="us-ascii" standalone="no"?><svg xmlns="http://www.w3.org/2000/svg" xmlns:xlink="http://www.w3.org/1999/xlink" contentStyleType="text/css" height="877px" preserveAspectRatio="none" style="width:1971px;height:877px;background:#FFFFFF;" version="1.1" viewBox="0 0 1971 877" width="1971px" zoomAndPan="magnify"><defs/><g><!--cluster Dto--><g id="cluster_Dto"><path d="M8.5,6 L36.5,6 A3.75,3.75 0 0 1 39,8.5 L46,28.2969 L1961.5,28.2969 A2.5,2.5 0 0 1 1964,30.7969 L1964,867.5 A2.5,2.5 0 0 1 1961.5,870 L8.5,870 A2.5,2.5 0 0 1 6,867.5 L6,8.5 A2.5,2.5 0 0 1 8.5,6 " fill="none" style="stroke:#000000;stroke-width:1.5;"/><line style="stroke:#000000;stroke-width:1.5;" x1="6" x2="46" y1="28.2969" y2="28.2969"/><text fill="#000000" font-family="sans-serif" font-size="14" font-weight="bold" lengthAdjust="spacing" textLength="27" x="10" y="20.9951">Dto</text></g><!--cluster Reservation--><g id="cluster_Reservation"><path d="M1221.5,49 L1316.5,49 A3.75,3.75 0 0 1 1319,51.5 L1326,71.2969 L1937.5,71.2969 A2.5,2.5 0 0 1 1940,73.7969 L1940,498.5 A2.5,2.5 0 0 1 1937.5,501 L1221.5,501 A2.5,2.5 0 0 1 1219,498.5 L1219,51.5 A2.5,2.5 0 0 1 1221.5,49 " fill="none" style="stroke:#000000;stroke-width:1.5;"/><line style="stroke:#000000;stroke-width:1.5;" x1="1219" x2="1326" y1="71.2969" y2="71.2969"/><text fill="#000000" font-family="sans-serif" font-size="14" font-weight="bold" lengthAdjust="spacing" textLength="94" x="1223" y="63.9951">Reservation</text></g><!--cluster Court--><g id="cluster_Court"><path d="M815.5,81.5 L860.5,81.5 A3.75,3.75 0 0 1 863,84 L870,103.7969 L1192.5,103.7969 A2.5,2.5 0 0 1 1195,106.2969 L1195,457.5 A2.5,2.5 0 0 1 1192.5,460 L815.5,460 A2.5,2.5 0 0 1 813,457.5 L813,84 A2.5,2.5 0 0 1 815.5,81.5 " fill="none" style="stroke:#000000;stroke-width:1.5;"/><line style="stroke:#000000;stroke-width:1.5;" x1="813" x2="870" y1="103.7969" y2="103.7969"/><text fill="#000000" font-family="sans-serif" font-size="14" font-weight="bold" lengthAdjust="spacing" textLength="44" x="817" y="96.4951">Court</text></g><!--cluster SurfaceType--><g id="cluster_SurfaceType"><path d="M341.5,81.5 L442.5,81.5 A3.75,3.75 0 0 1 445,84 L452,103.7969 L786.5,103.7969 A2.5,2.5 0 0 1 789,106.2969 L789,457.5 A2.5,2.5 0 0 1 786.5,460 L341.5,460 A2.5,2.5 0 0 1 339,457.5 L339,84 A2.5,2.5 0 0 1 341.5,81.5 " fill="none" style="stroke:#000000;stroke-width:1.5;"/><line style="stroke:#000000;stroke-width:1.5;" x1="339" x2="452" y1="103.7969" y2="103.7969"/><text fill="#000000" font-family="sans-serif" font-size="14" font-weight="bold" lengthAdjust="spacing" textLength="100" x="343" y="96.4951">SurfaceType</text></g><!--cluster Customer--><g id="cluster_Customer"><path d="M1279.5,533 L1357.5,533 A3.75,3.75 0 0 1 1360,535.5 L1367,555.2969 L1688.5,555.2969 A2.5,2.5 0 0 1 1691,557.7969 L1691,843.5 A2.5,2.5 0 0 1 1688.5,846 L1279.5,846 A2.5,2.5 0 0 1 1277,843.5 L1277,535.5 A2.5,2.5 0 0 1 1279.5,533 " fill="none" style="stroke:#000000;stroke-width:1.5;"/><line style="stroke:#000000;stroke-width:1.5;" x1="1277" x2="1367" y1="555.2969" y2="555.2969"/><text fill="#000000" font-family="sans-serif" font-size="14" font-weight="bold" lengthAdjust="spacing" textLength="77" x="1281" y="547.9951">Customer</text></g><!--cluster User--><g id="cluster_User"><path d="M913.5,525 L951.5,525 A3.75,3.75 0 0 1 954,527.5 L961,547.2969 L1250.5,547.2969 A2.5,2.5 0 0 1 1253,549.7969 L1253,843.5 A2.5,2.5 0 0 1 1250.5,846 L913.5,846 A2.5,2.5 0 0 1 911,843.5 L911,527.5 A2.5,2.5 0 0 1 913.5,525 " fill="none" style="stroke:#000000;stroke-width:1.5;"/><line style="stroke:#000000;stroke-width:1.5;" x1="911" x2="961" y1="547.2969" y2="547.2969"/><text fill="#000000" font-family="sans-serif" font-size="14" font-weight="bold" lengthAdjust="spacing" textLength="37" x="915" y="539.9951">User</text></g><!--class Price--><g id="elem_Price"><rect codeLine="126" fill="#F1F1F1" height="80.5938" id="Price" rx="2.5" ry="2.5" style="stroke:#181818;stroke-width:0.5;" width="156" x="22" y="116.5"/><ellipse cx="78.75" cy="132.5" fill="#ADD1B2" rx="11" ry="11" style="stroke:#181818;stroke-width:1.0;"/><path d="M81.7188,138.1406 Q81.1406,138.4375 80.5,138.5781 Q79.8594,138.7344 79.1563,138.7344 Q76.6563,138.7344 75.3281,137.0938 Q74.0156,135.4375 74.0156,132.3125 Q74.0156,129.1875 75.3281,127.5313 Q76.6563,125.875 79.1563,125.875 Q79.8594,125.875 80.5,126.0313 Q81.1563,126.1875 81.7188,126.4844 L81.7188,129.2031 Q81.0938,128.625 80.5,128.3594 Q79.9063,128.0781 79.2813,128.0781 Q77.9375,128.0781 77.25,129.1563 Q76.5625,130.2188 76.5625,132.3125 Q76.5625,134.4063 77.25,135.4844 Q77.9375,136.5469 79.2813,136.5469 Q79.9063,136.5469 80.5,136.2813 Q81.0938,136 81.7188,135.4219 L81.7188,138.1406 Z " fill="#000000"/><text fill="#000000" font-family="sans-serif" font-size="14" lengthAdjust="spacing" textLength="34" x="99.25" y="137.3467">Price</text><line style="stroke:#181818;stroke-width:0.5;" x1="23" x2="177" y1="148.5" y2="148.5"/><text fill="#000000" font-family="sans-serif" font-size="14" lengthAdjust="spacing" textLength="144" x="28" y="165.4951">-amount: BigDecimal</text><text fill="#000000" font-family="sans-serif" font-size="14" lengthAdjust="spacing" textLength="114" x="28" y="181.792">-currency: String</text><line style="stroke:#181818;stroke-width:0.5;" x1="23" x2="177" y1="189.0938" y2="189.0938"/></g><!--class GameType--><g id="elem_GameType"><rect codeLine="131" fill="#F1F1F1" height="80.5938" id="GameType" rx="2.5" ry="2.5" style="stroke:#181818;stroke-width:0.5;" width="107" x="213.5" y="116.5"/><ellipse cx="228.5" cy="132.5" fill="#EB937F" rx="11" ry="11" style="stroke:#181818;stroke-width:1.0;"/><path d="M232.6094,138.5 L224.8906,138.5 L224.8906,126.1094 L232.6094,126.1094 L232.6094,128.2656 L227.3438,128.2656 L227.3438,130.9375 L232.1094,130.9375 L232.1094,133.0938 L227.3438,133.0938 L227.3438,136.3438 L232.6094,136.3438 L232.6094,138.5 Z " fill="#000000"/><text fill="#000000" font-family="sans-serif" font-size="14" lengthAdjust="spacing" textLength="75" x="242.5" y="137.3467">GameType</text><line style="stroke:#181818;stroke-width:0.5;" x1="214.5" x2="319.5" y1="148.5" y2="148.5"/><text fill="#000000" font-family="sans-serif" font-size="14" lengthAdjust="spacing" textLength="58" x="219.5" y="165.4951">SINGLES</text><text fill="#000000" font-family="sans-serif" font-size="14" lengthAdjust="spacing" textLength="67" x="219.5" y="181.792">DOUBLES</text><line style="stroke:#181818;stroke-width:0.5;" x1="214.5" x2="319.5" y1="189.0938" y2="189.0938"/></g><!--class UserRole--><g id="elem_UserRole"><rect codeLine="136" fill="#F1F1F1" height="80.5938" id="UserRole" rx="2.5" ry="2.5" style="stroke:#181818;stroke-width:0.5;" width="95" x="52.5" y="347"/><ellipse cx="67.5" cy="363" fill="#EB937F" rx="11" ry="11" style="stroke:#181818;stroke-width:1.0;"/><path d="M71.6094,369 L63.8906,369 L63.8906,356.6094 L71.6094,356.6094 L71.6094,358.7656 L66.3438,358.7656 L66.3438,361.4375 L71.1094,361.4375 L71.1094,363.5938 L66.3438,363.5938 L66.3438,366.8438 L71.6094,366.8438 L71.6094,369 Z " fill="#000000"/><text fill="#000000" font-family="sans-serif" font-size="14" lengthAdjust="spacing" textLength="63" x="81.5" y="367.8467">UserRole</text><line style="stroke:#181818;stroke-width:0.5;" x1="53.5" x2="146.5" y1="379" y2="379"/><text fill="#000000" font-family="sans-serif" font-size="14" lengthAdjust="spacing" textLength="38" x="58.5" y="395.9951">USER</text><text fill="#000000" font-family="sans-serif" font-size="14" lengthAdjust="spacing" textLength="45" x="58.5" y="412.292">ADMIN</text><line style="stroke:#181818;stroke-width:0.5;" x1="53.5" x2="146.5" y1="419.5938" y2="419.5938"/></g><!--class CreateReservationDto--><g id="elem_CreateReservationDto"><rect codeLine="7" fill="#F1F1F1" height="145.7813" id="CreateReservationDto" rx="2.5" ry="2.5" style="stroke:#181818;stroke-width:0.5;" width="232" x="1235" y="84"/><ellipse cx="1271.15" cy="100" fill="#ADD1B2" rx="11" ry="11" style="stroke:#181818;stroke-width:1.0;"/><path d="M1274.1188,105.6406 Q1273.5406,105.9375 1272.9,106.0781 Q1272.2594,106.2344 1271.5563,106.2344 Q1269.0563,106.2344 1267.7281,104.5938 Q1266.4156,102.9375 1266.4156,99.8125 Q1266.4156,96.6875 1267.7281,95.0313 Q1269.0563,93.375 1271.5563,93.375 Q1272.2594,93.375 1272.9,93.5313 Q1273.5563,93.6875 1274.1188,93.9844 L1274.1188,96.7031 Q1273.4938,96.125 1272.9,95.8594 Q1272.3063,95.5781 1271.6813,95.5781 Q1270.3375,95.5781 1269.65,96.6563 Q1268.9625,97.7188 1268.9625,99.8125 Q1268.9625,101.9063 1269.65,102.9844 Q1270.3375,104.0469 1271.6813,104.0469 Q1272.3063,104.0469 1272.9,103.7813 Q1273.4938,103.5 1274.1188,102.9219 L1274.1188,105.6406 Z " fill="#000000"/><text fill="#000000" font-family="sans-serif" font-size="14" lengthAdjust="spacing" textLength="153" x="1289.85" y="104.8467">CreateReservationDto</text><line style="stroke:#181818;stroke-width:0.5;" x1="1236" x2="1466" y1="116" y2="116"/><text fill="#000000" font-family="sans-serif" font-size="14" lengthAdjust="spacing" textLength="96" x="1241" y="132.9951">-courtId: UUID</text><text fill="#000000" font-family="sans-serif" font-size="14" lengthAdjust="spacing" textLength="181" x="1241" y="149.292">-startTime: LocalDateTime</text><text fill="#000000" font-family="sans-serif" font-size="14" lengthAdjust="spacing" textLength="177" x="1241" y="165.5889">-endTime: LocalDateTime</text><text fill="#000000" font-family="sans-serif" font-size="14" lengthAdjust="spacing" textLength="162" x="1241" y="181.8857">-gameType: GameType</text><text fill="#000000" font-family="sans-serif" font-size="14" lengthAdjust="spacing" textLength="220" x="1241" y="198.1826">-customerPhoneNumber: String</text><text fill="#000000" font-family="sans-serif" font-size="14" lengthAdjust="spacing" textLength="160" x="1241" y="214.4795">-customerName: String</text><line style="stroke:#181818;stroke-width:0.5;" x1="1236" x2="1466" y1="221.7813" y2="221.7813"/></g><!--class UpdateReservationDto--><g id="elem_UpdateReservationDto"><rect codeLine="16" fill="#F1F1F1" height="113.1875" id="UpdateReservationDto" rx="2.5" ry="2.5" style="stroke:#181818;stroke-width:0.5;" width="193" x="1502.5" y="100.5"/><ellipse cx="1519.3" cy="116.5" fill="#ADD1B2" rx="11" ry="11" style="stroke:#181818;stroke-width:1.0;"/><path d="M1522.2688,122.1406 Q1521.6906,122.4375 1521.05,122.5781 Q1520.4094,122.7344 1519.7063,122.7344 Q1517.2063,122.7344 1515.8781,121.0938 Q1514.5656,119.4375 1514.5656,116.3125 Q1514.5656,113.1875 1515.8781,111.5313 Q1517.2063,109.875 1519.7063,109.875 Q1520.4094,109.875 1521.05,110.0313 Q1521.7063,110.1875 1522.2688,110.4844 L1522.2688,113.2031 Q1521.6438,112.625 1521.05,112.3594 Q1520.4563,112.0781 1519.8313,112.0781 Q1518.4875,112.0781 1517.8,113.1563 Q1517.1125,114.2188 1517.1125,116.3125 Q1517.1125,118.4063 1517.8,119.4844 Q1518.4875,120.5469 1519.8313,120.5469 Q1520.4563,120.5469 1521.05,120.2813 Q1521.6438,120 1522.2688,119.4219 L1522.2688,122.1406 Z " fill="#000000"/><text fill="#000000" font-family="sans-serif" font-size="14" lengthAdjust="spacing" textLength="157" x="1533.7" y="121.3467">UpdateReservationDto</text><line style="stroke:#181818;stroke-width:0.5;" x1="1503.5" x2="1694.5" y1="132.5" y2="132.5"/><text fill="#000000" font-family="sans-serif" font-size="14" lengthAdjust="spacing" textLength="96" x="1508.5" y="149.4951">-courtId: UUID</text><text fill="#000000" font-family="sans-serif" font-size="14" lengthAdjust="spacing" textLength="181" x="1508.5" y="165.792">-startTime: LocalDateTime</text><text fill="#000000" font-family="sans-serif" font-size="14" lengthAdjust="spacing" textLength="177" x="1508.5" y="182.0889">-endTime: LocalDateTime</text><text fill="#000000" font-family="sans-serif" font-size="14" lengthAdjust="spacing" textLength="162" x="1508.5" y="198.3857">-gameType: GameType</text><line style="stroke:#181818;stroke-width:0.5;" x1="1503.5" x2="1694.5" y1="205.6875" y2="205.6875"/></g><!--class ReservationPreviewDto--><g id="elem_ReservationPreviewDto"><rect codeLine="23" fill="#F1F1F1" height="129.4844" id="ReservationPreviewDto" rx="2.5" ry="2.5" style="stroke:#181818;stroke-width:0.5;" width="193" x="1730.5" y="92.5"/><ellipse cx="1745.95" cy="108.5" fill="#ADD1B2" rx="11" ry="11" style="stroke:#181818;stroke-width:1.0;"/><path d="M1748.9188,114.1406 Q1748.3406,114.4375 1747.7,114.5781 Q1747.0594,114.7344 1746.3563,114.7344 Q1743.8563,114.7344 1742.5281,113.0938 Q1741.2156,111.4375 1741.2156,108.3125 Q1741.2156,105.1875 1742.5281,103.5313 Q1743.8563,101.875 1746.3563,101.875 Q1747.0594,101.875 1747.7,102.0313 Q1748.3563,102.1875 1748.9188,102.4844 L1748.9188,105.2031 Q1748.2938,104.625 1747.7,104.3594 Q1747.1063,104.0781 1746.4813,104.0781 Q1745.1375,104.0781 1744.45,105.1563 Q1743.7625,106.2188 1743.7625,108.3125 Q1743.7625,110.4063 1744.45,111.4844 Q1745.1375,112.5469 1746.4813,112.5469 Q1747.1063,112.5469 1747.7,112.2813 Q1748.2938,112 1748.9188,111.4219 L1748.9188,114.1406 Z " fill="#000000"/><text fill="#000000" font-family="sans-serif" font-size="14" lengthAdjust="spacing" textLength="160" x="1760.05" y="113.3467">ReservationPreviewDto</text><line style="stroke:#181818;stroke-width:0.5;" x1="1731.5" x2="1922.5" y1="124.5" y2="124.5"/><text fill="#000000" font-family="sans-serif" font-size="14" lengthAdjust="spacing" textLength="60" x="1736.5" y="141.4951">-id: UUID</text><text fill="#000000" font-family="sans-serif" font-size="14" lengthAdjust="spacing" textLength="130" x="1736.5" y="157.792">-courtName: String</text><text fill="#000000" font-family="sans-serif" font-size="14" lengthAdjust="spacing" textLength="160" x="1736.5" y="174.0889">-customerName: String</text><text fill="#000000" font-family="sans-serif" font-size="14" lengthAdjust="spacing" textLength="181" x="1736.5" y="190.3857">-startTime: LocalDateTime</text><text fill="#000000" font-family="sans-serif" font-size="14" lengthAdjust="spacing" textLength="177" x="1736.5" y="206.6826">-endTime: LocalDateTime</text><line style="stroke:#181818;stroke-width:0.5;" x1="1731.5" x2="1922.5" y1="213.9844" y2="213.9844"/></g><!--class ReservationDetailDto--><g id="elem_ReservationDetailDto"><rect codeLine="31" fill="#F1F1F1" height="194.6719" id="ReservationDetailDto" rx="2.5" ry="2.5" style="stroke:#181818;stroke-width:0.5;" width="288" x="1235" y="290"/><ellipse cx="1301.75" cy="306" fill="#ADD1B2" rx="11" ry="11" style="stroke:#181818;stroke-width:1.0;"/><path d="M1304.7188,311.6406 Q1304.1406,311.9375 1303.5,312.0781 Q1302.8594,312.2344 1302.1563,312.2344 Q1299.6563,312.2344 1298.3281,310.5938 Q1297.0156,308.9375 1297.0156,305.8125 Q1297.0156,302.6875 1298.3281,301.0313 Q1299.6563,299.375 1302.1563,299.375 Q1302.8594,299.375 1303.5,299.5313 Q1304.1563,299.6875 1304.7188,299.9844 L1304.7188,302.7031 Q1304.0938,302.125 1303.5,301.8594 Q1302.9063,301.5781 1302.2813,301.5781 Q1300.9375,301.5781 1300.25,302.6563 Q1299.5625,303.7188 1299.5625,305.8125 Q1299.5625,307.9063 1300.25,308.9844 Q1300.9375,310.0469 1302.2813,310.0469 Q1302.9063,310.0469 1303.5,309.7813 Q1304.0938,309.5 1304.7188,308.9219 L1304.7188,311.6406 Z " fill="#000000"/><text fill="#000000" font-family="sans-serif" font-size="14" lengthAdjust="spacing" textLength="146" x="1322.25" y="310.8467">ReservationDetailDto</text><line style="stroke:#181818;stroke-width:0.5;" x1="1236" x2="1522" y1="322" y2="322"/><text fill="#000000" font-family="sans-serif" font-size="14" lengthAdjust="spacing" textLength="60" x="1241" y="338.9951">-id: UUID</text><text fill="#000000" font-family="sans-serif" font-size="14" lengthAdjust="spacing" textLength="216" x="1241" y="355.292">-courtDetailDto: CourtDetailDto</text><text fill="#000000" font-family="sans-serif" font-size="14" lengthAdjust="spacing" textLength="276" x="1241" y="371.5889">-customerDetailDto: CustomerDetailDto</text><text fill="#000000" font-family="sans-serif" font-size="14" lengthAdjust="spacing" textLength="181" x="1241" y="387.8857">-startTime: LocalDateTime</text><text fill="#000000" font-family="sans-serif" font-size="14" lengthAdjust="spacing" textLength="177" x="1241" y="404.1826">-endTime: LocalDateTime</text><text fill="#000000" font-family="sans-serif" font-size="14" lengthAdjust="spacing" textLength="162" x="1241" y="420.4795">-gameType: GameType</text><text fill="#000000" font-family="sans-serif" font-size="14" lengthAdjust="spacing" textLength="82" x="1241" y="436.7764">-price: Price</text><text fill="#000000" font-family="sans-serif" font-size="14" lengthAdjust="spacing" textLength="123" x="1241" y="453.0732">-deleted: boolean</text><text fill="#000000" font-family="sans-serif" font-size="14" lengthAdjust="spacing" textLength="183" x="1241" y="469.3701">-createdAt: LocalDateTime</text><line style="stroke:#181818;stroke-width:0.5;" x1="1236" x2="1522" y1="476.6719" y2="476.6719"/></g><!--class CourtReservationListDto--><g id="elem_CourtReservationListDto"><rect codeLine="43" fill="#F1F1F1" height="80.5938" id="CourtReservationListDto" rx="2.5" ry="2.5" style="stroke:#181818;stroke-width:0.5;" width="318" x="1558" y="347"/><ellipse cx="1628.75" cy="363" fill="#ADD1B2" rx="11" ry="11" style="stroke:#181818;stroke-width:1.0;"/><path d="M1631.7188,368.6406 Q1631.1406,368.9375 1630.5,369.0781 Q1629.8594,369.2344 1629.1563,369.2344 Q1626.6563,369.2344 1625.3281,367.5938 Q1624.0156,365.9375 1624.0156,362.8125 Q1624.0156,359.6875 1625.3281,358.0313 Q1626.6563,356.375 1629.1563,356.375 Q1629.8594,356.375 1630.5,356.5313 Q1631.1563,356.6875 1631.7188,356.9844 L1631.7188,359.7031 Q1631.0938,359.125 1630.5,358.8594 Q1629.9063,358.5781 1629.2813,358.5781 Q1627.9375,358.5781 1627.25,359.6563 Q1626.5625,360.7188 1626.5625,362.8125 Q1626.5625,364.9063 1627.25,365.9844 Q1627.9375,367.0469 1629.2813,367.0469 Q1629.9063,367.0469 1630.5,366.7813 Q1631.0938,366.5 1631.7188,365.9219 L1631.7188,368.6406 Z " fill="#000000"/><text fill="#000000" font-family="sans-serif" font-size="14" lengthAdjust="spacing" textLength="168" x="1649.25" y="367.8467">CourtReservationListDto</text><line style="stroke:#181818;stroke-width:0.5;" x1="1559" x2="1875" y1="379" y2="379"/><text fill="#000000" font-family="sans-serif" font-size="14" lengthAdjust="spacing" textLength="152" x="1564" y="395.9951">-court: CourtDetailDto</text><text fill="#000000" font-family="sans-serif" font-size="14" lengthAdjust="spacing" textLength="306" x="1564" y="412.292">-reservations: List&lt;ReservationPreviewDto&gt;</text><line style="stroke:#181818;stroke-width:0.5;" x1="1559" x2="1875" y1="419.5938" y2="419.5938"/></g><!--class CreateCourtDto--><g id="elem_CreateCourtDto"><rect codeLine="50" fill="#F1F1F1" height="80.5938" id="CreateCourtDto" rx="2.5" ry="2.5" style="stroke:#181818;stroke-width:0.5;" width="157" x="829.5" y="116.5"/><ellipse cx="851.7" cy="132.5" fill="#ADD1B2" rx="11" ry="11" style="stroke:#181818;stroke-width:1.0;"/><path d="M854.6688,138.1406 Q854.0906,138.4375 853.45,138.5781 Q852.8094,138.7344 852.1063,138.7344 Q849.6063,138.7344 848.2781,137.0938 Q846.9656,135.4375 846.9656,132.3125 Q846.9656,129.1875 848.2781,127.5313 Q849.6063,125.875 852.1063,125.875 Q852.8094,125.875 853.45,126.0313 Q854.1063,126.1875 854.6688,126.4844 L854.6688,129.2031 Q854.0438,128.625 853.45,128.3594 Q852.8563,128.0781 852.2313,128.0781 Q850.8875,128.0781 850.2,129.1563 Q849.5125,130.2188 849.5125,132.3125 Q849.5125,134.4063 850.2,135.4844 Q850.8875,136.5469 852.2313,136.5469 Q852.8563,136.5469 853.45,136.2813 Q854.0438,136 854.6688,135.4219 L854.6688,138.1406 Z " fill="#000000"/><text fill="#000000" font-family="sans-serif" font-size="14" lengthAdjust="spacing" textLength="109" x="867.3" y="137.3467">CreateCourtDto</text><line style="stroke:#181818;stroke-width:0.5;" x1="830.5" x2="985.5" y1="148.5" y2="148.5"/><text fill="#000000" font-family="sans-serif" font-size="14" lengthAdjust="spacing" textLength="93" x="835.5" y="165.4951">-name: String</text><text fill="#000000" font-family="sans-serif" font-size="14" lengthAdjust="spacing" textLength="145" x="835.5" y="181.792">-surfaceTypeId: UUID</text><line style="stroke:#181818;stroke-width:0.5;" x1="830.5" x2="985.5" y1="189.0938" y2="189.0938"/></g><!--class UpdateCourtDto--><g id="elem_UpdateCourtDto"><rect codeLine="55" fill="#F1F1F1" height="80.5938" id="UpdateCourtDto" rx="2.5" ry="2.5" style="stroke:#181818;stroke-width:0.5;" width="157" x="1021.5" y="116.5"/><ellipse cx="1041.9" cy="132.5" fill="#ADD1B2" rx="11" ry="11" style="stroke:#181818;stroke-width:1.0;"/><path d="M1044.8688,138.1406 Q1044.2906,138.4375 1043.65,138.5781 Q1043.0094,138.7344 1042.3063,138.7344 Q1039.8063,138.7344 1038.4781,137.0938 Q1037.1656,135.4375 1037.1656,132.3125 Q1037.1656,129.1875 1038.4781,127.5313 Q1039.8063,125.875 1042.3063,125.875 Q1043.0094,125.875 1043.65,126.0313 Q1044.3063,126.1875 1044.8688,126.4844 L1044.8688,129.2031 Q1044.2438,128.625 1043.65,128.3594 Q1043.0563,128.0781 1042.4313,128.0781 Q1041.0875,128.0781 1040.4,129.1563 Q1039.7125,130.2188 1039.7125,132.3125 Q1039.7125,134.4063 1040.4,135.4844 Q1041.0875,136.5469 1042.4313,136.5469 Q1043.0563,136.5469 1043.65,136.2813 Q1044.2438,136 1044.8688,135.4219 L1044.8688,138.1406 Z " fill="#000000"/><text fill="#000000" font-family="sans-serif" font-size="14" lengthAdjust="spacing" textLength="113" x="1057.1" y="137.3467">UpdateCourtDto</text><line style="stroke:#181818;stroke-width:0.5;" x1="1022.5" x2="1177.5" y1="148.5" y2="148.5"/><text fill="#000000" font-family="sans-serif" font-size="14" lengthAdjust="spacing" textLength="93" x="1027.5" y="165.4951">-name: String</text><text fill="#000000" font-family="sans-serif" font-size="14" lengthAdjust="spacing" textLength="145" x="1027.5" y="181.792">-surfaceTypeId: UUID</text><line style="stroke:#181818;stroke-width:0.5;" x1="1022.5" x2="1177.5" y1="189.0938" y2="189.0938"/></g><!--class CourtDetailDto--><g id="elem_CourtDetailDto"><rect codeLine="60" fill="#F1F1F1" height="113.1875" id="CourtDetailDto" rx="2.5" ry="2.5" style="stroke:#181818;stroke-width:0.5;" width="191" x="829.5" y="331"/><ellipse cx="870.15" cy="347" fill="#ADD1B2" rx="11" ry="11" style="stroke:#181818;stroke-width:1.0;"/><path d="M873.1188,352.6406 Q872.5406,352.9375 871.9,353.0781 Q871.2594,353.2344 870.5563,353.2344 Q868.0563,353.2344 866.7281,351.5938 Q865.4156,349.9375 865.4156,346.8125 Q865.4156,343.6875 866.7281,342.0313 Q868.0563,340.375 870.5563,340.375 Q871.2594,340.375 871.9,340.5313 Q872.5563,340.6875 873.1188,340.9844 L873.1188,343.7031 Q872.4938,343.125 871.9,342.8594 Q871.3063,342.5781 870.6813,342.5781 Q869.3375,342.5781 868.65,343.6563 Q867.9625,344.7188 867.9625,346.8125 Q867.9625,348.9063 868.65,349.9844 Q869.3375,351.0469 870.6813,351.0469 Q871.3063,351.0469 871.9,350.7813 Q872.4938,350.5 873.1188,349.9219 L873.1188,352.6406 Z " fill="#000000"/><text fill="#000000" font-family="sans-serif" font-size="14" lengthAdjust="spacing" textLength="102" x="889.85" y="351.8467">CourtDetailDto</text><line style="stroke:#181818;stroke-width:0.5;" x1="830.5" x2="1019.5" y1="363" y2="363"/><text fill="#000000" font-family="sans-serif" font-size="14" lengthAdjust="spacing" textLength="60" x="835.5" y="379.9951">-id: UUID</text><text fill="#000000" font-family="sans-serif" font-size="14" lengthAdjust="spacing" textLength="93" x="835.5" y="396.292">-name: String</text><text fill="#000000" font-family="sans-serif" font-size="14" lengthAdjust="spacing" textLength="179" x="835.5" y="412.5889">-surfaceTypeName: String</text><text fill="#000000" font-family="sans-serif" font-size="14" lengthAdjust="spacing" textLength="123" x="835.5" y="428.8857">-deleted: boolean</text><line style="stroke:#181818;stroke-width:0.5;" x1="830.5" x2="1019.5" y1="436.1875" y2="436.1875"/></g><!--class CreateSurfaceTypeDto--><g id="elem_CreateSurfaceTypeDto"><rect codeLine="69" fill="#F1F1F1" height="80.5938" id="CreateSurfaceTypeDto" rx="2.5" ry="2.5" style="stroke:#181818;stroke-width:0.5;" width="189" x="355.5" y="116.5"/><ellipse cx="370.5" cy="132.5" fill="#ADD1B2" rx="11" ry="11" style="stroke:#181818;stroke-width:1.0;"/><path d="M373.4688,138.1406 Q372.8906,138.4375 372.25,138.5781 Q371.6094,138.7344 370.9063,138.7344 Q368.4063,138.7344 367.0781,137.0938 Q365.7656,135.4375 365.7656,132.3125 Q365.7656,129.1875 367.0781,127.5313 Q368.4063,125.875 370.9063,125.875 Q371.6094,125.875 372.25,126.0313 Q372.9063,126.1875 373.4688,126.4844 L373.4688,129.2031 Q372.8438,128.625 372.25,128.3594 Q371.6563,128.0781 371.0313,128.0781 Q369.6875,128.0781 369,129.1563 Q368.3125,130.2188 368.3125,132.3125 Q368.3125,134.4063 369,135.4844 Q369.6875,136.5469 371.0313,136.5469 Q371.6563,136.5469 372.25,136.2813 Q372.8438,136 373.4688,135.4219 L373.4688,138.1406 Z " fill="#000000"/><text fill="#000000" font-family="sans-serif" font-size="14" lengthAdjust="spacing" textLength="157" x="384.5" y="137.3467">CreateSurfaceTypeDto</text><line style="stroke:#181818;stroke-width:0.5;" x1="356.5" x2="543.5" y1="148.5" y2="148.5"/><text fill="#000000" font-family="sans-serif" font-size="14" lengthAdjust="spacing" textLength="93" x="361.5" y="165.4951">-name: String</text><text fill="#000000" font-family="sans-serif" font-size="14" lengthAdjust="spacing" textLength="152" x="361.5" y="181.792">-pricePerMinute: Price</text><line style="stroke:#181818;stroke-width:0.5;" x1="356.5" x2="543.5" y1="189.0938" y2="189.0938"/></g><!--class UpdateSurfaceTypeDto--><g id="elem_UpdateSurfaceTypeDto"><rect codeLine="74" fill="#F1F1F1" height="80.5938" id="UpdateSurfaceTypeDto" rx="2.5" ry="2.5" style="stroke:#181818;stroke-width:0.5;" width="193" x="579.5" y="116.5"/><ellipse cx="594.5" cy="132.5" fill="#ADD1B2" rx="11" ry="11" style="stroke:#181818;stroke-width:1.0;"/><path d="M597.4688,138.1406 Q596.8906,138.4375 596.25,138.5781 Q595.6094,138.7344 594.9063,138.7344 Q592.4063,138.7344 591.0781,137.0938 Q589.7656,135.4375 589.7656,132.3125 Q589.7656,129.1875 591.0781,127.5313 Q592.4063,125.875 594.9063,125.875 Q595.6094,125.875 596.25,126.0313 Q596.9063,126.1875 597.4688,126.4844 L597.4688,129.2031 Q596.8438,128.625 596.25,128.3594 Q595.6563,128.0781 595.0313,128.0781 Q593.6875,128.0781 593,129.1563 Q592.3125,130.2188 592.3125,132.3125 Q592.3125,134.4063 593,135.4844 Q593.6875,136.5469 595.0313,136.5469 Q595.6563,136.5469 596.25,136.2813 Q596.8438,136 597.4688,135.4219 L597.4688,138.1406 Z " fill="#000000"/><text fill="#000000" font-family="sans-serif" font-size="14" lengthAdjust="spacing" textLength="161" x="608.5" y="137.3467">UpdateSurfaceTypeDto</text><line style="stroke:#181818;stroke-width:0.5;" x1="580.5" x2="771.5" y1="148.5" y2="148.5"/><text fill="#000000" font-family="sans-serif" font-size="14" lengthAdjust="spacing" textLength="93" x="585.5" y="165.4951">-name: String</text><text fill="#000000" font-family="sans-serif" font-size="14" lengthAdjust="spacing" textLength="152" x="585.5" y="181.792">-pricePerMinute: Price</text><line style="stroke:#181818;stroke-width:0.5;" x1="580.5" x2="771.5" y1="189.0938" y2="189.0938"/></g><!--class SurfaceTypeDetailDto--><g id="elem_SurfaceTypeDetailDto"><rect codeLine="79" fill="#F1F1F1" height="113.1875" id="SurfaceTypeDetailDto" rx="2.5" ry="2.5" style="stroke:#181818;stroke-width:0.5;" width="182" x="359" y="331"/><ellipse cx="374" cy="347" fill="#ADD1B2" rx="11" ry="11" style="stroke:#181818;stroke-width:1.0;"/><path d="M376.9688,352.6406 Q376.3906,352.9375 375.75,353.0781 Q375.1094,353.2344 374.4063,353.2344 Q371.9063,353.2344 370.5781,351.5938 Q369.2656,349.9375 369.2656,346.8125 Q369.2656,343.6875 370.5781,342.0313 Q371.9063,340.375 374.4063,340.375 Q375.1094,340.375 375.75,340.5313 Q376.4063,340.6875 376.9688,340.9844 L376.9688,343.7031 Q376.3438,343.125 375.75,342.8594 Q375.1563,342.5781 374.5313,342.5781 Q373.1875,342.5781 372.5,343.6563 Q371.8125,344.7188 371.8125,346.8125 Q371.8125,348.9063 372.5,349.9844 Q373.1875,351.0469 374.5313,351.0469 Q375.1563,351.0469 375.75,350.7813 Q376.3438,350.5 376.9688,349.9219 L376.9688,352.6406 Z " fill="#000000"/><text fill="#000000" font-family="sans-serif" font-size="14" lengthAdjust="spacing" textLength="150" x="388" y="351.8467">SurfaceTypeDetailDto</text><line style="stroke:#181818;stroke-width:0.5;" x1="360" x2="540" y1="363" y2="363"/><text fill="#000000" font-family="sans-serif" font-size="14" lengthAdjust="spacing" textLength="60" x="365" y="379.9951">-id: UUID</text><text fill="#000000" font-family="sans-serif" font-size="14" lengthAdjust="spacing" textLength="93" x="365" y="396.292">-name: String</text><text fill="#000000" font-family="sans-serif" font-size="14" lengthAdjust="spacing" textLength="152" x="365" y="412.5889">-pricePerMinute: Price</text><text fill="#000000" font-family="sans-serif" font-size="14" lengthAdjust="spacing" textLength="123" x="365" y="428.8857">-deleted: boolean</text><line style="stroke:#181818;stroke-width:0.5;" x1="360" x2="540" y1="436.1875" y2="436.1875"/></g><!--class CreateCustomerDto--><g id="elem_CreateCustomerDto"><rect codeLine="88" fill="#F1F1F1" height="80.5938" id="CreateCustomerDto" rx="2.5" ry="2.5" style="stroke:#181818;stroke-width:0.5;" width="171" x="1293.5" y="568"/><ellipse cx="1308.5" cy="584" fill="#ADD1B2" rx="11" ry="11" style="stroke:#181818;stroke-width:1.0;"/><path d="M1311.4688,589.6406 Q1310.8906,589.9375 1310.25,590.0781 Q1309.6094,590.2344 1308.9063,590.2344 Q1306.4063,590.2344 1305.0781,588.5938 Q1303.7656,586.9375 1303.7656,583.8125 Q1303.7656,580.6875 1305.0781,579.0313 Q1306.4063,577.375 1308.9063,577.375 Q1309.6094,577.375 1310.25,577.5313 Q1310.9063,577.6875 1311.4688,577.9844 L1311.4688,580.7031 Q1310.8438,580.125 1310.25,579.8594 Q1309.6563,579.5781 1309.0313,579.5781 Q1307.6875,579.5781 1307,580.6563 Q1306.3125,581.7188 1306.3125,583.8125 Q1306.3125,585.9063 1307,586.9844 Q1307.6875,588.0469 1309.0313,588.0469 Q1309.6563,588.0469 1310.25,587.7813 Q1310.8438,587.5 1311.4688,586.9219 L1311.4688,589.6406 Z " fill="#000000"/><text fill="#000000" font-family="sans-serif" font-size="14" lengthAdjust="spacing" textLength="139" x="1322.5" y="588.8467">CreateCustomerDto</text><line style="stroke:#181818;stroke-width:0.5;" x1="1294.5" x2="1463.5" y1="600" y2="600"/><text fill="#000000" font-family="sans-serif" font-size="14" lengthAdjust="spacing" textLength="154" x="1299.5" y="616.9951">-phoneNumber: String</text><text fill="#000000" font-family="sans-serif" font-size="14" lengthAdjust="spacing" textLength="93" x="1299.5" y="633.292">-name: String</text><line style="stroke:#181818;stroke-width:0.5;" x1="1294.5" x2="1463.5" y1="640.5938" y2="640.5938"/></g><!--class UpdateCustomerDto--><g id="elem_UpdateCustomerDto"><rect codeLine="93" fill="#F1F1F1" height="80.5938" id="UpdateCustomerDto" rx="2.5" ry="2.5" style="stroke:#181818;stroke-width:0.5;" width="175" x="1499.5" y="568"/><ellipse cx="1514.5" cy="584" fill="#ADD1B2" rx="11" ry="11" style="stroke:#181818;stroke-width:1.0;"/><path d="M1517.4688,589.6406 Q1516.8906,589.9375 1516.25,590.0781 Q1515.6094,590.2344 1514.9063,590.2344 Q1512.4063,590.2344 1511.0781,588.5938 Q1509.7656,586.9375 1509.7656,583.8125 Q1509.7656,580.6875 1511.0781,579.0313 Q1512.4063,577.375 1514.9063,577.375 Q1515.6094,577.375 1516.25,577.5313 Q1516.9063,577.6875 1517.4688,577.9844 L1517.4688,580.7031 Q1516.8438,580.125 1516.25,579.8594 Q1515.6563,579.5781 1515.0313,579.5781 Q1513.6875,579.5781 1513,580.6563 Q1512.3125,581.7188 1512.3125,583.8125 Q1512.3125,585.9063 1513,586.9844 Q1513.6875,588.0469 1515.0313,588.0469 Q1515.6563,588.0469 1516.25,587.7813 Q1516.8438,587.5 1517.4688,586.9219 L1517.4688,589.6406 Z " fill="#000000"/><text fill="#000000" font-family="sans-serif" font-size="14" lengthAdjust="spacing" textLength="143" x="1528.5" y="588.8467">UpdateCustomerDto</text><line style="stroke:#181818;stroke-width:0.5;" x1="1500.5" x2="1673.5" y1="600" y2="600"/><text fill="#000000" font-family="sans-serif" font-size="14" lengthAdjust="spacing" textLength="154" x="1505.5" y="616.9951">-phoneNumber: String</text><text fill="#000000" font-family="sans-serif" font-size="14" lengthAdjust="spacing" textLength="93" x="1505.5" y="633.292">-name: String</text><line style="stroke:#181818;stroke-width:0.5;" x1="1500.5" x2="1673.5" y1="640.5938" y2="640.5938"/></g><!--class CustomerDetailDto--><g id="elem_CustomerDetailDto"><rect codeLine="98" fill="#F1F1F1" height="113.1875" id="CustomerDetailDto" rx="2.5" ry="2.5" style="stroke:#181818;stroke-width:0.5;" width="166" x="1296" y="717"/><ellipse cx="1311.9" cy="733" fill="#ADD1B2" rx="11" ry="11" style="stroke:#181818;stroke-width:1.0;"/><path d="M1314.8688,738.6406 Q1314.2906,738.9375 1313.65,739.0781 Q1313.0094,739.2344 1312.3063,739.2344 Q1309.8063,739.2344 1308.4781,737.5938 Q1307.1656,735.9375 1307.1656,732.8125 Q1307.1656,729.6875 1308.4781,728.0313 Q1309.8063,726.375 1312.3063,726.375 Q1313.0094,726.375 1313.65,726.5313 Q1314.3063,726.6875 1314.8688,726.9844 L1314.8688,729.7031 Q1314.2438,729.125 1313.65,728.8594 Q1313.0563,728.5781 1312.4313,728.5781 Q1311.0875,728.5781 1310.4,729.6563 Q1309.7125,730.7188 1309.7125,732.8125 Q1309.7125,734.9063 1310.4,735.9844 Q1311.0875,737.0469 1312.4313,737.0469 Q1313.0563,737.0469 1313.65,736.7813 Q1314.2438,736.5 1314.8688,735.9219 L1314.8688,738.6406 Z " fill="#000000"/><text fill="#000000" font-family="sans-serif" font-size="14" lengthAdjust="spacing" textLength="132" x="1326.1" y="737.8467">CustomerDetailDto</text><line style="stroke:#181818;stroke-width:0.5;" x1="1297" x2="1461" y1="749" y2="749"/><text fill="#000000" font-family="sans-serif" font-size="14" lengthAdjust="spacing" textLength="60" x="1302" y="765.9951">-id: UUID</text><text fill="#000000" font-family="sans-serif" font-size="14" lengthAdjust="spacing" textLength="154" x="1302" y="782.292">-phoneNumber: String</text><text fill="#000000" font-family="sans-serif" font-size="14" lengthAdjust="spacing" textLength="93" x="1302" y="798.5889">-name: String</text><text fill="#000000" font-family="sans-serif" font-size="14" lengthAdjust="spacing" textLength="123" x="1302" y="814.8857">-deleted: boolean</text><line style="stroke:#181818;stroke-width:0.5;" x1="1297" x2="1461" y1="822.1875" y2="822.1875"/></g><!--class CreateUserDto--><g id="elem_CreateUserDto"><rect codeLine="107" fill="#F1F1F1" height="96.8906" id="CreateUserDto" rx="2.5" ry="2.5" style="stroke:#181818;stroke-width:0.5;" width="135" x="927.5" y="560"/><ellipse cx="942.5" cy="576" fill="#ADD1B2" rx="11" ry="11" style="stroke:#181818;stroke-width:1.0;"/><path d="M945.4688,581.6406 Q944.8906,581.9375 944.25,582.0781 Q943.6094,582.2344 942.9063,582.2344 Q940.4063,582.2344 939.0781,580.5938 Q937.7656,578.9375 937.7656,575.8125 Q937.7656,572.6875 939.0781,571.0313 Q940.4063,569.375 942.9063,569.375 Q943.6094,569.375 944.25,569.5313 Q944.9063,569.6875 945.4688,569.9844 L945.4688,572.7031 Q944.8438,572.125 944.25,571.8594 Q943.6563,571.5781 943.0313,571.5781 Q941.6875,571.5781 941,572.6563 Q940.3125,573.7188 940.3125,575.8125 Q940.3125,577.9063 941,578.9844 Q941.6875,580.0469 943.0313,580.0469 Q943.6563,580.0469 944.25,579.7813 Q944.8438,579.5 945.4688,578.9219 L945.4688,581.6406 Z " fill="#000000"/><text fill="#000000" font-family="sans-serif" font-size="14" lengthAdjust="spacing" textLength="103" x="956.5" y="580.8467">CreateUserDto</text><line style="stroke:#181818;stroke-width:0.5;" x1="928.5" x2="1061.5" y1="592" y2="592"/><text fill="#000000" font-family="sans-serif" font-size="14" lengthAdjust="spacing" textLength="90" x="933.5" y="608.9951">-email: String</text><text fill="#000000" font-family="sans-serif" font-size="14" lengthAdjust="spacing" textLength="121" x="933.5" y="625.292">-password: String</text><text fill="#000000" font-family="sans-serif" font-size="14" lengthAdjust="spacing" textLength="103" x="933.5" y="641.5889">-role: UserRole</text><line style="stroke:#181818;stroke-width:0.5;" x1="928.5" x2="1061.5" y1="648.8906" y2="648.8906"/></g><!--class UpdateUserDto--><g id="elem_UpdateUserDto"><rect codeLine="113" fill="#F1F1F1" height="80.5938" id="UpdateUserDto" rx="2.5" ry="2.5" style="stroke:#181818;stroke-width:0.5;" width="139" x="1097.5" y="568"/><ellipse cx="1112.5" cy="584" fill="#ADD1B2" rx="11" ry="11" style="stroke:#181818;stroke-width:1.0;"/><path d="M1115.4688,589.6406 Q1114.8906,589.9375 1114.25,590.0781 Q1113.6094,590.2344 1112.9063,590.2344 Q1110.4063,590.2344 1109.0781,588.5938 Q1107.7656,586.9375 1107.7656,583.8125 Q1107.7656,580.6875 1109.0781,579.0313 Q1110.4063,577.375 1112.9063,577.375 Q1113.6094,577.375 1114.25,577.5313 Q1114.9063,577.6875 1115.4688,577.9844 L1115.4688,580.7031 Q1114.8438,580.125 1114.25,579.8594 Q1113.6563,579.5781 1113.0313,579.5781 Q1111.6875,579.5781 1111,580.6563 Q1110.3125,581.7188 1110.3125,583.8125 Q1110.3125,585.9063 1111,586.9844 Q1111.6875,588.0469 1113.0313,588.0469 Q1113.6563,588.0469 1114.25,587.7813 Q1114.8438,587.5 1115.4688,586.9219 L1115.4688,589.6406 Z " fill="#000000"/><text fill="#000000" font-family="sans-serif" font-size="14" lengthAdjust="spacing" textLength="107" x="1126.5" y="588.8467">UpdateUserDto</text><line style="stroke:#181818;stroke-width:0.5;" x1="1098.5" x2="1235.5" y1="600" y2="600"/><text fill="#000000" font-family="sans-serif" font-size="14" lengthAdjust="spacing" textLength="90" x="1103.5" y="616.9951">-email: String</text><text fill="#000000" font-family="sans-serif" font-size="14" lengthAdjust="spacing" textLength="103" x="1103.5" y="633.292">-role: UserRole</text><line style="stroke:#181818;stroke-width:0.5;" x1="1098.5" x2="1235.5" y1="640.5938" y2="640.5938"/></g><!--class UserDetailDto--><g id="elem_UserDetailDto"><rect codeLine="118" fill="#F1F1F1" height="113.1875" id="UserDetailDto" rx="2.5" ry="2.5" style="stroke:#181818;stroke-width:0.5;" width="135" x="927.5" y="717"/><ellipse cx="945.65" cy="733" fill="#ADD1B2" rx="11" ry="11" style="stroke:#181818;stroke-width:1.0;"/><path d="M948.6188,738.6406 Q948.0406,738.9375 947.4,739.0781 Q946.7594,739.2344 946.0563,739.2344 Q943.5563,739.2344 942.2281,737.5938 Q940.9156,735.9375 940.9156,732.8125 Q940.9156,729.6875 942.2281,728.0313 Q943.5563,726.375 946.0563,726.375 Q946.7594,726.375 947.4,726.5313 Q948.0563,726.6875 948.6188,726.9844 L948.6188,729.7031 Q947.9938,729.125 947.4,728.8594 Q946.8063,728.5781 946.1813,728.5781 Q944.8375,728.5781 944.15,729.6563 Q943.4625,730.7188 943.4625,732.8125 Q943.4625,734.9063 944.15,735.9844 Q944.8375,737.0469 946.1813,737.0469 Q946.8063,737.0469 947.4,736.7813 Q947.9938,736.5 948.6188,735.9219 L948.6188,738.6406 Z " fill="#000000"/><text fill="#000000" font-family="sans-serif" font-size="14" lengthAdjust="spacing" textLength="96" x="960.35" y="737.8467">UserDetailDto</text><line style="stroke:#181818;stroke-width:0.5;" x1="928.5" x2="1061.5" y1="749" y2="749"/><text fill="#000000" font-family="sans-serif" font-size="14" lengthAdjust="spacing" textLength="60" x="933.5" y="765.9951">-id: UUID</text><text fill="#000000" font-family="sans-serif" font-size="14" lengthAdjust="spacing" textLength="90" x="933.5" y="782.292">-email: String</text><text fill="#000000" font-family="sans-serif" font-size="14" lengthAdjust="spacing" textLength="103" x="933.5" y="798.5889">-role: UserRole</text><text fill="#000000" font-family="sans-serif" font-size="14" lengthAdjust="spacing" textLength="123" x="933.5" y="814.8857">-deleted: boolean</text><line style="stroke:#181818;stroke-width:0.5;" x1="928.5" x2="1061.5" y1="822.1875" y2="822.1875"/></g><!--SRC=[nLRRQkCm47sElqBqlR3FOIcaTIc6D1lY-WCKUJOLjIGZoItT9V- -kZYsR2iNIfRc9SgCvfmpeoErweto6alC4AcmKWkj9Tqs6Z8YU4x_0FgH93KcRtW7w2RLuWRzJHA4kj065CXthAdWDZMREHZq805h29AcrALdjuY8HkgidAEYo58VKXfB_K8PpD5I45obfjZ-z5dWvT7S3ZDu-QnDygbTjIIDqeA1NByA3gk6RK7EKMwQuxlXXXMso5rcdtGz57NvZJq4GW89Qmdl53u29NGWmkaQjNIysQ-hZgjBGMDQdHRNxPcZXy7leT9mspZqlpnJIqfCS6s_VAI42ZIO9hP2L81vgz6PkrpeatDntGN3MLAbnmwApq3sHSfGcBgVKGlSEKB7sTr7XpUzYPwcP-TJ8pJoDoPk6e6l9zVX2a33bkDMEGaxTN7adCQ3oVjwDnw4mla4sLOJCf-n3XzpDbc3VARSF9ITNn2oV0TOFwshmuQ0uGGzH3_3Bz3Ov7IEbdxaiFOwHanskAZzgTR7dbz-vjcz3jRawOYxxLBaovnMg7OuGulPyE2qW1bDa-Cn1Hz2bkEuD6n6ii7Oc5NSRPSnd45Iesd5dNKXyXbFUKhdG7SmjmWpqN3pBDxJNGg4Cbmb_g-2bC39Pyzeou4th7l23O3boxFLq_8nT-lqLt7lrtlxFulRVb3NRY_onurRBDBdRELsxfD_]--></g></svg>