<?xml version="1.0" encoding="us-ascii" standalone="no"?><svg xmlns="http://www.w3.org/2000/svg" xmlns:xlink="http://www.w3.org/1999/xlink" contentStyleType="text/css" height="812px" preserveAspectRatio="none" style="width:647px;height:812px;background:#FFFFFF;" version="1.1" viewBox="0 0 647 812" width="647px" zoomAndPan="magnify"><defs/><g><!--cluster model--><g id="cluster_model"><path d="M8.5,6 L57.5,6 A3.75,3.75 0 0 1 60,8.5 L67,28.2969 L637.5,28.2969 A2.5,2.5 0 0 1 640,30.7969 L640,802.5 A2.5,2.5 0 0 1 637.5,805 L8.5,805 A2.5,2.5 0 0 1 6,802.5 L6,8.5 A2.5,2.5 0 0 1 8.5,6 " fill="none" style="stroke:#000000;stroke-width:1.5;"/><line style="stroke:#000000;stroke-width:1.5;" x1="6" x2="67" y1="28.2969" y2="28.2969"/><text fill="#000000" font-family="sans-serif" font-size="14" font-weight="bold" lengthAdjust="spacing" textLength="48" x="10" y="20.9951">model</text></g><!--class Price--><g id="elem_Price"><rect codeLine="6" fill="#F1F1F1" height="96.8906" id="Price" rx="2.5" ry="2.5" style="stroke:#181818;stroke-width:0.5;" width="211" x="22.5" y="692"/><ellipse cx="106.75" cy="708" fill="#ADD1B2" rx="11" ry="11" style="stroke:#181818;stroke-width:1.0;"/><path d="M109.7188,713.6406 Q109.1406,713.9375 108.5,714.0781 Q107.8594,714.2344 107.1563,714.2344 Q104.6563,714.2344 103.3281,712.5938 Q102.0156,710.9375 102.0156,707.8125 Q102.0156,704.6875 103.3281,703.0313 Q104.6563,701.375 107.1563,701.375 Q107.8594,701.375 108.5,701.5313 Q109.1563,701.6875 109.7188,701.9844 L109.7188,704.7031 Q109.0938,704.125 108.5,703.8594 Q107.9063,703.5781 107.2813,703.5781 Q105.9375,703.5781 105.25,704.6563 Q104.5625,705.7188 104.5625,707.8125 Q104.5625,709.9063 105.25,710.9844 Q105.9375,712.0469 107.2813,712.0469 Q107.9063,712.0469 108.5,711.7813 Q109.0938,711.5 109.7188,710.9219 L109.7188,713.6406 Z " fill="#000000"/><text fill="#000000" font-family="sans-serif" font-size="14" lengthAdjust="spacing" textLength="34" x="127.25" y="712.8467">Price</text><line style="stroke:#181818;stroke-width:0.5;" x1="23.5" x2="232.5" y1="724" y2="724"/><text fill="#000000" font-family="sans-serif" font-size="14" lengthAdjust="spacing" textLength="127" x="28.5" y="740.9951">-value: BigDecimal</text><text fill="#000000" font-family="sans-serif" font-size="14" lengthAdjust="spacing" textLength="151" x="28.5" y="757.292">-currencyCode: String</text><line style="stroke:#181818;stroke-width:0.5;" x1="23.5" x2="232.5" y1="764.5938" y2="764.5938"/><text fill="#000000" font-family="sans-serif" font-size="14" lengthAdjust="spacing" textLength="199" x="28.5" y="781.5889">+getFormattedPrice(): String</text></g><!--class SurfaceType--><g id="elem_SurfaceType"><rect codeLine="12" fill="#F1F1F1" height="113.1875" id="SurfaceType" rx="2.5" ry="2.5" style="stroke:#181818;stroke-width:0.5;" width="164" x="43" y="502"/><ellipse cx="78.7" cy="518" fill="#ADD1B2" rx="11" ry="11" style="stroke:#181818;stroke-width:1.0;"/><path d="M81.6688,523.6406 Q81.0906,523.9375 80.45,524.0781 Q79.8094,524.2344 79.1063,524.2344 Q76.6063,524.2344 75.2781,522.5938 Q73.9656,520.9375 73.9656,517.8125 Q73.9656,514.6875 75.2781,513.0313 Q76.6063,511.375 79.1063,511.375 Q79.8094,511.375 80.45,511.5313 Q81.1063,511.6875 81.6688,511.9844 L81.6688,514.7031 Q81.0438,514.125 80.45,513.8594 Q79.8563,513.5781 79.2313,513.5781 Q77.8875,513.5781 77.2,514.6563 Q76.5125,515.7188 76.5125,517.8125 Q76.5125,519.9063 77.2,520.9844 Q77.8875,522.0469 79.2313,522.0469 Q79.8563,522.0469 80.45,521.7813 Q81.0438,521.5 81.6688,520.9219 L81.6688,523.6406 Z " fill="#000000"/><text fill="#000000" font-family="sans-serif" font-size="14" lengthAdjust="spacing" textLength="86" x="97.3" y="522.8467">SurfaceType</text><line style="stroke:#181818;stroke-width:0.5;" x1="44" x2="206" y1="534" y2="534"/><text fill="#000000" font-family="sans-serif" font-size="14" lengthAdjust="spacing" textLength="60" x="49" y="550.9951">-id: UUID</text><text fill="#000000" font-family="sans-serif" font-size="14" lengthAdjust="spacing" textLength="93" x="49" y="567.292">-name: String</text><text fill="#000000" font-family="sans-serif" font-size="14" lengthAdjust="spacing" textLength="152" x="49" y="583.5889">-pricePerMinute: Price</text><text fill="#000000" font-family="sans-serif" font-size="14" lengthAdjust="spacing" textLength="123" x="49" y="599.8857">-deleted: boolean</text><line style="stroke:#181818;stroke-width:0.5;" x1="44" x2="206" y1="607.1875" y2="607.1875"/></g><!--class Court--><g id="elem_Court"><rect codeLine="20" fill="#F1F1F1" height="113.1875" id="Court" rx="2.5" ry="2.5" style="stroke:#181818;stroke-width:0.5;" width="197" x="22.5" y="304"/><ellipse cx="97.75" cy="320" fill="#ADD1B2" rx="11" ry="11" style="stroke:#181818;stroke-width:1.0;"/><path d="M100.7188,325.6406 Q100.1406,325.9375 99.5,326.0781 Q98.8594,326.2344 98.1563,326.2344 Q95.6563,326.2344 94.3281,324.5938 Q93.0156,322.9375 93.0156,319.8125 Q93.0156,316.6875 94.3281,315.0313 Q95.6563,313.375 98.1563,313.375 Q98.8594,313.375 99.5,313.5313 Q100.1563,313.6875 100.7188,313.9844 L100.7188,316.7031 Q100.0938,316.125 99.5,315.8594 Q98.9063,315.5781 98.2813,315.5781 Q96.9375,315.5781 96.25,316.6563 Q95.5625,317.7188 95.5625,319.8125 Q95.5625,321.9063 96.25,322.9844 Q96.9375,324.0469 98.2813,324.0469 Q98.9063,324.0469 99.5,323.7813 Q100.0938,323.5 100.7188,322.9219 L100.7188,325.6406 Z " fill="#000000"/><text fill="#000000" font-family="sans-serif" font-size="14" lengthAdjust="spacing" textLength="38" x="118.25" y="324.8467">Court</text><line style="stroke:#181818;stroke-width:0.5;" x1="23.5" x2="218.5" y1="336" y2="336"/><text fill="#000000" font-family="sans-serif" font-size="14" lengthAdjust="spacing" textLength="60" x="28.5" y="352.9951">-id: UUID</text><text fill="#000000" font-family="sans-serif" font-size="14" lengthAdjust="spacing" textLength="93" x="28.5" y="369.292">-name: String</text><text fill="#000000" font-family="sans-serif" font-size="14" lengthAdjust="spacing" textLength="185" x="28.5" y="385.5889">-surfaceType: SurfaceType</text><text fill="#000000" font-family="sans-serif" font-size="14" lengthAdjust="spacing" textLength="123" x="28.5" y="401.8857">-deleted: boolean</text><line style="stroke:#181818;stroke-width:0.5;" x1="23.5" x2="218.5" y1="409.1875" y2="409.1875"/></g><!--class GameType--><g id="elem_GameType"><rect codeLine="28" fill="#F1F1F1" height="80.5938" id="GameType" rx="2.5" ry="2.5" style="stroke:#181818;stroke-width:0.5;" width="107" x="386.5" y="89.5"/><ellipse cx="401.5" cy="105.5" fill="#EB937F" rx="11" ry="11" style="stroke:#181818;stroke-width:1.0;"/><path d="M405.6094,111.5 L397.8906,111.5 L397.8906,99.1094 L405.6094,99.1094 L405.6094,101.2656 L400.3438,101.2656 L400.3438,103.9375 L405.1094,103.9375 L405.1094,106.0938 L400.3438,106.0938 L400.3438,109.3438 L405.6094,109.3438 L405.6094,111.5 Z " fill="#000000"/><text fill="#000000" font-family="sans-serif" font-size="14" lengthAdjust="spacing" textLength="75" x="415.5" y="110.3467">GameType</text><line style="stroke:#181818;stroke-width:0.5;" x1="387.5" x2="492.5" y1="121.5" y2="121.5"/><text fill="#000000" font-family="sans-serif" font-size="14" lengthAdjust="spacing" textLength="58" x="392.5" y="138.4951">SINGLES</text><text fill="#000000" font-family="sans-serif" font-size="14" lengthAdjust="spacing" textLength="67" x="392.5" y="154.792">DOUBLES</text><line style="stroke:#181818;stroke-width:0.5;" x1="387.5" x2="492.5" y1="162.0938" y2="162.0938"/></g><!--class Customer--><g id="elem_Customer"><rect codeLine="33" fill="#F1F1F1" height="113.1875" id="Customer" rx="2.5" ry="2.5" style="stroke:#181818;stroke-width:0.5;" width="166" x="255" y="304"/><ellipse cx="299.75" cy="320" fill="#ADD1B2" rx="11" ry="11" style="stroke:#181818;stroke-width:1.0;"/><path d="M302.7188,325.6406 Q302.1406,325.9375 301.5,326.0781 Q300.8594,326.2344 300.1563,326.2344 Q297.6563,326.2344 296.3281,324.5938 Q295.0156,322.9375 295.0156,319.8125 Q295.0156,316.6875 296.3281,315.0313 Q297.6563,313.375 300.1563,313.375 Q300.8594,313.375 301.5,313.5313 Q302.1563,313.6875 302.7188,313.9844 L302.7188,316.7031 Q302.0938,316.125 301.5,315.8594 Q300.9063,315.5781 300.2813,315.5781 Q298.9375,315.5781 298.25,316.6563 Q297.5625,317.7188 297.5625,319.8125 Q297.5625,321.9063 298.25,322.9844 Q298.9375,324.0469 300.2813,324.0469 Q300.9063,324.0469 301.5,323.7813 Q302.0938,323.5 302.7188,322.9219 L302.7188,325.6406 Z " fill="#000000"/><text fill="#000000" font-family="sans-serif" font-size="14" lengthAdjust="spacing" textLength="68" x="320.25" y="324.8467">Customer</text><line style="stroke:#181818;stroke-width:0.5;" x1="256" x2="420" y1="336" y2="336"/><text fill="#000000" font-family="sans-serif" font-size="14" lengthAdjust="spacing" textLength="60" x="261" y="352.9951">-id: UUID</text><text fill="#000000" font-family="sans-serif" font-size="14" lengthAdjust="spacing" textLength="154" x="261" y="369.292">-phoneNumber: String</text><text fill="#000000" font-family="sans-serif" font-size="14" lengthAdjust="spacing" textLength="93" x="261" y="385.5889">-name: String</text><text fill="#000000" font-family="sans-serif" font-size="14" lengthAdjust="spacing" textLength="123" x="261" y="401.8857">-deleted: boolean</text><line style="stroke:#181818;stroke-width:0.5;" x1="256" x2="420" y1="409.1875" y2="409.1875"/></g><!--class Reservation--><g id="elem_Reservation"><rect codeLine="40" fill="#F1F1F1" height="178.375" id="Reservation" rx="2.5" ry="2.5" style="stroke:#181818;stroke-width:0.5;" width="193" x="124.5" y="41"/><ellipse cx="175.75" cy="57" fill="#ADD1B2" rx="11" ry="11" style="stroke:#181818;stroke-width:1.0;"/><path d="M178.7188,62.6406 Q178.1406,62.9375 177.5,63.0781 Q176.8594,63.2344 176.1563,63.2344 Q173.6563,63.2344 172.3281,61.5938 Q171.0156,59.9375 171.0156,56.8125 Q171.0156,53.6875 172.3281,52.0313 Q173.6563,50.375 176.1563,50.375 Q176.8594,50.375 177.5,50.5313 Q178.1563,50.6875 178.7188,50.9844 L178.7188,53.7031 Q178.0938,53.125 177.5,52.8594 Q176.9063,52.5781 176.2813,52.5781 Q174.9375,52.5781 174.25,53.6563 Q173.5625,54.7188 173.5625,56.8125 Q173.5625,58.9063 174.25,59.9844 Q174.9375,61.0469 176.2813,61.0469 Q176.9063,61.0469 177.5,60.7813 Q178.0938,60.5 178.7188,59.9219 L178.7188,62.6406 Z " fill="#000000"/><text fill="#000000" font-family="sans-serif" font-size="14" lengthAdjust="spacing" textLength="82" x="196.25" y="61.8467">Reservation</text><line style="stroke:#181818;stroke-width:0.5;" x1="125.5" x2="316.5" y1="73" y2="73"/><text fill="#000000" font-family="sans-serif" font-size="14" lengthAdjust="spacing" textLength="60" x="130.5" y="89.9951">-id: UUID</text><text fill="#000000" font-family="sans-serif" font-size="14" lengthAdjust="spacing" textLength="88" x="130.5" y="106.292">-court: Court</text><text fill="#000000" font-family="sans-serif" font-size="14" lengthAdjust="spacing" textLength="148" x="130.5" y="122.5889">-customer: Customer</text><text fill="#000000" font-family="sans-serif" font-size="14" lengthAdjust="spacing" textLength="181" x="130.5" y="138.8857">-startTime: LocalDateTime</text><text fill="#000000" font-family="sans-serif" font-size="14" lengthAdjust="spacing" textLength="177" x="130.5" y="155.1826">-endTime: LocalDateTime</text><text fill="#000000" font-family="sans-serif" font-size="14" lengthAdjust="spacing" textLength="82" x="130.5" y="171.4795">-price: Price</text><text fill="#000000" font-family="sans-serif" font-size="14" lengthAdjust="spacing" textLength="162" x="130.5" y="187.7764">-gameType: GameType</text><text fill="#000000" font-family="sans-serif" font-size="14" lengthAdjust="spacing" textLength="123" x="130.5" y="204.0732">-deleted: boolean</text><line style="stroke:#181818;stroke-width:0.5;" x1="125.5" x2="316.5" y1="211.375" y2="211.375"/></g><!--class UserRole--><g id="elem_UserRole"><rect codeLine="53" fill="#F1F1F1" height="80.5938" id="UserRole" rx="2.5" ry="2.5" style="stroke:#181818;stroke-width:0.5;" width="95" x="528.5" y="89.5"/><ellipse cx="543.5" cy="105.5" fill="#EB937F" rx="11" ry="11" style="stroke:#181818;stroke-width:1.0;"/><path d="M547.6094,111.5 L539.8906,111.5 L539.8906,99.1094 L547.6094,99.1094 L547.6094,101.2656 L542.3438,101.2656 L542.3438,103.9375 L547.1094,103.9375 L547.1094,106.0938 L542.3438,106.0938 L542.3438,109.3438 L547.6094,109.3438 L547.6094,111.5 Z " fill="#000000"/><text fill="#000000" font-family="sans-serif" font-size="14" lengthAdjust="spacing" textLength="63" x="557.5" y="110.3467">UserRole</text><line style="stroke:#181818;stroke-width:0.5;" x1="529.5" x2="622.5" y1="121.5" y2="121.5"/><text fill="#000000" font-family="sans-serif" font-size="14" lengthAdjust="spacing" textLength="38" x="534.5" y="138.4951">USER</text><text fill="#000000" font-family="sans-serif" font-size="14" lengthAdjust="spacing" textLength="45" x="534.5" y="154.792">ADMIN</text><line style="stroke:#181818;stroke-width:0.5;" x1="529.5" x2="622.5" y1="162.0938" y2="162.0938"/></g><!--class User--><g id="elem_User"><rect codeLine="58" fill="#F1F1F1" height="129.4844" id="User" rx="2.5" ry="2.5" style="stroke:#181818;stroke-width:0.5;" width="168" x="456" y="296"/><ellipse cx="519.75" cy="312" fill="#ADD1B2" rx="11" ry="11" style="stroke:#181818;stroke-width:1.0;"/><path d="M522.7188,317.6406 Q522.1406,317.9375 521.5,318.0781 Q520.8594,318.2344 520.1563,318.2344 Q517.6563,318.2344 516.3281,316.5938 Q515.0156,314.9375 515.0156,311.8125 Q515.0156,308.6875 516.3281,307.0313 Q517.6563,305.375 520.1563,305.375 Q520.8594,305.375 521.5,305.5313 Q522.1563,305.6875 522.7188,305.9844 L522.7188,308.7031 Q522.0938,308.125 521.5,307.8594 Q520.9063,307.5781 520.2813,307.5781 Q518.9375,307.5781 518.25,308.6563 Q517.5625,309.7188 517.5625,311.8125 Q517.5625,313.9063 518.25,314.9844 Q518.9375,316.0469 520.2813,316.0469 Q520.9063,316.0469 521.5,315.7813 Q522.0938,315.5 522.7188,314.9219 L522.7188,317.6406 Z " fill="#000000"/><text fill="#000000" font-family="sans-serif" font-size="14" lengthAdjust="spacing" textLength="32" x="540.25" y="316.8467">User</text><line style="stroke:#181818;stroke-width:0.5;" x1="457" x2="623" y1="328" y2="328"/><text fill="#000000" font-family="sans-serif" font-size="14" lengthAdjust="spacing" textLength="60" x="462" y="344.9951">-id: UUID</text><text fill="#000000" font-family="sans-serif" font-size="14" lengthAdjust="spacing" textLength="90" x="462" y="361.292">-email: String</text><text fill="#000000" font-family="sans-serif" font-size="14" lengthAdjust="spacing" textLength="156" x="462" y="377.5889">-passwordHash: String</text><text fill="#000000" font-family="sans-serif" font-size="14" lengthAdjust="spacing" textLength="103" x="462" y="393.8857">-role: UserRole</text><text fill="#000000" font-family="sans-serif" font-size="14" lengthAdjust="spacing" textLength="123" x="462" y="410.1826">-deleted: boolean</text><line style="stroke:#181818;stroke-width:0.5;" x1="457" x2="623" y1="417.4844" y2="417.4844"/></g><!--link SurfaceType to Price--><g id="link_SurfaceType_Price"><path codeLine="18" d="M125.93,615.47 C126.34,639.93 126.7102,662.3208 127.1002,685.7608 " fill="none" id="SurfaceType-to-Price" style="stroke:#181818;stroke-width:1.0;"/><polygon fill="#181818" points="127.2,691.76,131.0497,682.6947,127.1168,686.7607,123.0508,682.8278,127.2,691.76" style="stroke:#181818;stroke-width:1.0;"/><text fill="#000000" font-family="sans-serif" font-size="13" lengthAdjust="spacing" textLength="100" x="127" y="658.0669">-pricePerMinute</text><text fill="#000000" font-family="sans-serif" font-size="13" lengthAdjust="spacing" textLength="8" x="117.5558" y="635.3908">1</text><text fill="#000000" font-family="sans-serif" font-size="13" lengthAdjust="spacing" textLength="8" x="118.525" y="680.9352">1</text></g><!--link Court to SurfaceType--><g id="link_Court_SurfaceType"><path codeLine="26" d="M122.14,417.14 C122.68,443.62 123.1978,469.2212 123.7378,495.7212 " fill="none" id="Court-to-SurfaceType" style="stroke:#181818;stroke-width:1.0;"/><polygon fill="#181818" points="123.86,501.72,127.6758,492.6404,123.7581,496.721,119.6775,492.8034,123.86,501.72" style="stroke:#181818;stroke-width:1.0;"/><text fill="#000000" font-family="sans-serif" font-size="13" lengthAdjust="spacing" textLength="82" x="124" y="468.0669">-surfaceType</text><text fill="#000000" font-family="sans-serif" font-size="13" lengthAdjust="spacing" textLength="7" x="114.8376" y="437.4213">*</text><text fill="#000000" font-family="sans-serif" font-size="13" lengthAdjust="spacing" textLength="8" x="115.2336" y="490.9494">1</text></g><!--link Reservation to Court--><g id="link_Reservation_Court"><path codeLine="50" d="M182.48,219.02 C169.99,247.56 158.8956,272.9034 147.7356,298.4034 " fill="none" id="Reservation-to-Court" style="stroke:#181818;stroke-width:1.0;"/><polygon fill="#181818" points="145.33,303.9,152.6028,297.2588,147.3347,299.3195,145.274,294.0513,145.33,303.9" style="stroke:#181818;stroke-width:1.0;"/><text fill="#000000" font-family="sans-serif" font-size="13" lengthAdjust="spacing" textLength="38" x="169" y="262.0669">-court</text><text fill="#000000" font-family="sans-serif" font-size="13" lengthAdjust="spacing" textLength="7" x="171.8689" y="239.3712">*</text><text fill="#000000" font-family="sans-serif" font-size="13" lengthAdjust="spacing" textLength="8" x="139.9348" y="292.7506">1</text></g><!--link Reservation to Customer--><g id="link_Reservation_Customer"><path codeLine="51" d="M266.07,219.02 C280.68,247.56 293.7466,273.0588 306.7966,298.5588 " fill="none" id="Reservation-to-Customer" style="stroke:#181818;stroke-width:1.0;"/><polygon fill="#181818" points="309.53,303.9,308.9906,294.0659,307.2521,299.449,301.8691,297.7105,309.53,303.9" style="stroke:#181818;stroke-width:1.0;"/><text fill="#000000" font-family="sans-serif" font-size="13" lengthAdjust="spacing" textLength="77" x="290" y="262.0669">-reservedBy</text><text fill="#000000" font-family="sans-serif" font-size="13" lengthAdjust="spacing" textLength="7" x="262.6424" y="239.3712">*</text><text fill="#000000" font-family="sans-serif" font-size="13" lengthAdjust="spacing" textLength="8" x="297.3698" y="292.7506">1</text></g><!--SRC=[bLF9JiCm4BtdAqOviIWIN7r0eas1Ib1Gqtp0r1bIYzYE70TK4F-EipHBrLGYbzWputdBsCM7K3aQbC0pB8fxQutObfQMNAj8V1FSU5wE_0DJ0b_gX38VVZmFcd9uCuAJ2u3x0lZ4h2G6Cv66n8N4h8tpqXXIV3ztvnb43aAbTUeQKh8FsaYqbfAwsSNbeEAtHufAyuwSDlkynnC9WpXUXkrMeHot3o2lMhwHUH7AYM8DtpRdj913PR3LEYDKDHwCWFnR7uBWhlutKXa4uvuzmxakZVq7jw87OaFKy_GQ5F-g9pOaxEWDsbRSI9KI7XtwmBbekNfyNaJrEdoDPyrwOFQyBAoMPARKv3kjQ5NABPaZKITqdXJIGQsf8FE9LcWrXSOhoQnHtjseXY3hg1vCjMZiHbGadZN7B4HBrRPDaqgca_LWntSaROrZdONdfpDKCvnHCpKt7TwAc2myEEzgJLr3oMpV3J9saRK3RAsAeyMwNjo7BylLsDYgTCfHaYYouwVY3drfapnXiJjA6OV8Eknp3lnwVm00]--></g></svg>