<?xml version="1.0" encoding="us-ascii" standalone="no"?><svg xmlns="http://www.w3.org/2000/svg" xmlns:xlink="http://www.w3.org/1999/xlink" contentStyleType="text/css" height="228px" preserveAspectRatio="none" style="width:1462px;height:228px;background:#FFFFFF;" version="1.1" viewBox="0 0 1462 228" width="1462px" zoomAndPan="magnify"><defs/><g><!--cluster Auth--><g id="cluster_Auth"><path d="M8.5,6 L46.5,6 A3.75,3.75 0 0 1 49,8.5 L56,28.2969 L1452.5,28.2969 A2.5,2.5 0 0 1 1455,30.7969 L1455,218.5 A2.5,2.5 0 0 1 1452.5,221 L8.5,221 A2.5,2.5 0 0 1 6,218.5 L6,8.5 A2.5,2.5 0 0 1 8.5,6 " fill="none" style="stroke:#000000;stroke-width:1.5;"/><line style="stroke:#000000;stroke-width:1.5;" x1="6" x2="56" y1="28.2969" y2="28.2969"/><text fill="#000000" font-family="sans-serif" font-size="14" font-weight="bold" lengthAdjust="spacing" textLength="37" x="10" y="20.9951">Auth</text></g><!--cluster dto--><g id="cluster_dto"><path d="M1047.5,49 L1074.5,49 A3.75,3.75 0 0 1 1077,51.5 L1084,71.2969 L1428.5,71.2969 A2.5,2.5 0 0 1 1431,73.7969 L1431,194.5 A2.5,2.5 0 0 1 1428.5,197 L1047.5,197 A2.5,2.5 0 0 1 1045,194.5 L1045,51.5 A2.5,2.5 0 0 1 1047.5,49 " fill="none" style="stroke:#000000;stroke-width:1.5;"/><line style="stroke:#000000;stroke-width:1.5;" x1="1045" x2="1084" y1="71.2969" y2="71.2969"/><text fill="#000000" font-family="sans-serif" font-size="14" font-weight="bold" lengthAdjust="spacing" textLength="26" x="1049" y="63.9951">dto</text></g><!--cluster service--><g id="cluster_service"><path d="M579.5,57 L638.5,57 A3.75,3.75 0 0 1 641,59.5 L648,79.2969 L1018.5,79.2969 A2.5,2.5 0 0 1 1021,81.7969 L1021,186.5 A2.5,2.5 0 0 1 1018.5,189 L579.5,189 A2.5,2.5 0 0 1 577,186.5 L577,59.5 A2.5,2.5 0 0 1 579.5,57 " fill="none" style="stroke:#000000;stroke-width:1.5;"/><line style="stroke:#000000;stroke-width:1.5;" x1="577" x2="648" y1="79.2969" y2="79.2969"/><text fill="#000000" font-family="sans-serif" font-size="14" font-weight="bold" lengthAdjust="spacing" textLength="58" x="581" y="71.9951">service</text></g><!--cluster controller--><g id="cluster_controller"><path d="M111.5,57 L189.5,57 A3.75,3.75 0 0 1 192,59.5 L199,79.2969 L550.5,79.2969 A2.5,2.5 0 0 1 553,81.7969 L553,186.5 A2.5,2.5 0 0 1 550.5,189 L111.5,189 A2.5,2.5 0 0 1 109,186.5 L109,59.5 A2.5,2.5 0 0 1 111.5,57 " fill="none" style="stroke:#000000;stroke-width:1.5;"/><line style="stroke:#000000;stroke-width:1.5;" x1="109" x2="199" y1="79.2969" y2="79.2969"/><text fill="#000000" font-family="sans-serif" font-size="14" font-weight="bold" lengthAdjust="spacing" textLength="77" x="113" y="71.9951">controller</text></g><path d="M24.5,106 L73.5,106 A3.75,3.75 0 0 1 76,108.5 L83,128.2969 L87.5,128.2969 A2.5,2.5 0 0 1 90,130.7969 L90,156.0938 A2.5,2.5 0 0 1 87.5,158.5938 L24.5,158.5938 A2.5,2.5 0 0 1 22,156.0938 L22,108.5 A2.5,2.5 0 0 1 24.5,106 " fill="#F1F1F1" style="stroke:#181818;stroke-width:0.5;"/><line style="stroke:#181818;stroke-width:0.5;" x1="22" x2="83" y1="128.2969" y2="128.2969"/><text fill="#000000" font-family="sans-serif" font-size="14" font-weight="bold" lengthAdjust="spacing" textLength="48" x="26" y="120.9951">model</text><!--class LoginRequestDto--><g id="elem_LoginRequestDto"><rect codeLine="10" fill="#F1F1F1" height="80.5938" id="LoginRequestDto" rx="2.5" ry="2.5" style="stroke:#181818;stroke-width:0.5;" width="153" x="1261.5" y="92"/><ellipse cx="1276.5" cy="108" fill="#ADD1B2" rx="11" ry="11" style="stroke:#181818;stroke-width:1.0;"/><path d="M1279.4688,113.6406 Q1278.8906,113.9375 1278.25,114.0781 Q1277.6094,114.2344 1276.9063,114.2344 Q1274.4063,114.2344 1273.0781,112.5938 Q1271.7656,110.9375 1271.7656,107.8125 Q1271.7656,104.6875 1273.0781,103.0313 Q1274.4063,101.375 1276.9063,101.375 Q1277.6094,101.375 1278.25,101.5313 Q1278.9063,101.6875 1279.4688,101.9844 L1279.4688,104.7031 Q1278.8438,104.125 1278.25,103.8594 Q1277.6563,103.5781 1277.0313,103.5781 Q1275.6875,103.5781 1275,104.6563 Q1274.3125,105.7188 1274.3125,107.8125 Q1274.3125,109.9063 1275,110.9844 Q1275.6875,112.0469 1277.0313,112.0469 Q1277.6563,112.0469 1278.25,111.7813 Q1278.8438,111.5 1279.4688,110.9219 L1279.4688,113.6406 Z " fill="#000000"/><text fill="#000000" font-family="sans-serif" font-size="14" lengthAdjust="spacing" textLength="121" x="1290.5" y="112.8467">LoginRequestDto</text><line style="stroke:#181818;stroke-width:0.5;" x1="1262.5" x2="1413.5" y1="124" y2="124"/><text fill="#000000" font-family="sans-serif" font-size="14" lengthAdjust="spacing" textLength="90" x="1267.5" y="140.9951">-email: String</text><text fill="#000000" font-family="sans-serif" font-size="14" lengthAdjust="spacing" textLength="121" x="1267.5" y="157.292">-password: String</text><line style="stroke:#181818;stroke-width:0.5;" x1="1262.5" x2="1413.5" y1="164.5938" y2="164.5938"/></g><!--class LoginResponseDto--><g id="elem_LoginResponseDto"><rect codeLine="15" fill="#F1F1F1" height="96.8906" id="LoginResponseDto" rx="2.5" ry="2.5" style="stroke:#181818;stroke-width:0.5;" width="165" x="1061.5" y="84"/><ellipse cx="1076.5" cy="100" fill="#ADD1B2" rx="11" ry="11" style="stroke:#181818;stroke-width:1.0;"/><path d="M1079.4688,105.6406 Q1078.8906,105.9375 1078.25,106.0781 Q1077.6094,106.2344 1076.9063,106.2344 Q1074.4063,106.2344 1073.0781,104.5938 Q1071.7656,102.9375 1071.7656,99.8125 Q1071.7656,96.6875 1073.0781,95.0313 Q1074.4063,93.375 1076.9063,93.375 Q1077.6094,93.375 1078.25,93.5313 Q1078.9063,93.6875 1079.4688,93.9844 L1079.4688,96.7031 Q1078.8438,96.125 1078.25,95.8594 Q1077.6563,95.5781 1077.0313,95.5781 Q1075.6875,95.5781 1075,96.6563 Q1074.3125,97.7188 1074.3125,99.8125 Q1074.3125,101.9063 1075,102.9844 Q1075.6875,104.0469 1077.0313,104.0469 Q1077.6563,104.0469 1078.25,103.7813 Q1078.8438,103.5 1079.4688,102.9219 L1079.4688,105.6406 Z " fill="#000000"/><text fill="#000000" font-family="sans-serif" font-size="14" lengthAdjust="spacing" textLength="133" x="1090.5" y="104.8467">LoginResponseDto</text><line style="stroke:#181818;stroke-width:0.5;" x1="1062.5" x2="1225.5" y1="116" y2="116"/><text fill="#000000" font-family="sans-serif" font-size="14" lengthAdjust="spacing" textLength="94" x="1067.5" y="132.9951">-token: String</text><text fill="#000000" font-family="sans-serif" font-size="14" lengthAdjust="spacing" textLength="147" x="1067.5" y="149.292">-refreshToken: String</text><text fill="#000000" font-family="sans-serif" font-size="14" lengthAdjust="spacing" textLength="125" x="1067.5" y="165.5889">-expiresAt: Instant</text><line style="stroke:#181818;stroke-width:0.5;" x1="1062.5" x2="1225.5" y1="172.8906" y2="172.8906"/></g><!--class AuthService--><g id="elem_AuthService"><rect codeLine="23" fill="#F1F1F1" height="80.5938" id="AuthService" rx="2.5" ry="2.5" style="stroke:#181818;stroke-width:0.5;" width="411" x="593.5" y="92"/><ellipse cx="753.75" cy="108" fill="#ADD1B2" rx="11" ry="11" style="stroke:#181818;stroke-width:1.0;"/><path d="M756.7188,113.6406 Q756.1406,113.9375 755.5,114.0781 Q754.8594,114.2344 754.1563,114.2344 Q751.6563,114.2344 750.3281,112.5938 Q749.0156,110.9375 749.0156,107.8125 Q749.0156,104.6875 750.3281,103.0313 Q751.6563,101.375 754.1563,101.375 Q754.8594,101.375 755.5,101.5313 Q756.1563,101.6875 756.7188,101.9844 L756.7188,104.7031 Q756.0938,104.125 755.5,103.8594 Q754.9063,103.5781 754.2813,103.5781 Q752.9375,103.5781 752.25,104.6563 Q751.5625,105.7188 751.5625,107.8125 Q751.5625,109.9063 752.25,110.9844 Q752.9375,112.0469 754.2813,112.0469 Q754.9063,112.0469 755.5,111.7813 Q756.0938,111.5 756.7188,110.9219 L756.7188,113.6406 Z " fill="#000000"/><text fill="#000000" font-family="sans-serif" font-size="14" lengthAdjust="spacing" textLength="82" x="774.25" y="112.8467">AuthService</text><line style="stroke:#181818;stroke-width:0.5;" x1="594.5" x2="1003.5" y1="124" y2="124"/><line style="stroke:#181818;stroke-width:0.5;" x1="594.5" x2="1003.5" y1="132" y2="132"/><text fill="#000000" font-family="sans-serif" font-size="14" lengthAdjust="spacing" textLength="350" x="599.5" y="148.9951">+login(dto: LoginRequestDto): LoginResponseDto</text><text fill="#000000" font-family="sans-serif" font-size="14" lengthAdjust="spacing" textLength="399" x="599.5" y="165.292">+refreshToken(refreshToken: String): LoginResponseDto</text></g><!--class AuthController--><g id="elem_AuthController"><rect codeLine="30" fill="#F1F1F1" height="80.5938" id="AuthController" rx="2.5" ry="2.5" style="stroke:#181818;stroke-width:0.5;" width="411" x="125.5" y="92"/><ellipse cx="277.25" cy="108" fill="#ADD1B2" rx="11" ry="11" style="stroke:#181818;stroke-width:1.0;"/><path d="M280.2188,113.6406 Q279.6406,113.9375 279,114.0781 Q278.3594,114.2344 277.6563,114.2344 Q275.1563,114.2344 273.8281,112.5938 Q272.5156,110.9375 272.5156,107.8125 Q272.5156,104.6875 273.8281,103.0313 Q275.1563,101.375 277.6563,101.375 Q278.3594,101.375 279,101.5313 Q279.6563,101.6875 280.2188,101.9844 L280.2188,104.7031 Q279.5938,104.125 279,103.8594 Q278.4063,103.5781 277.7813,103.5781 Q276.4375,103.5781 275.75,104.6563 Q275.0625,105.7188 275.0625,107.8125 Q275.0625,109.9063 275.75,110.9844 Q276.4375,112.0469 277.7813,112.0469 Q278.4063,112.0469 279,111.7813 Q279.5938,111.5 280.2188,110.9219 L280.2188,113.6406 Z " fill="#000000"/><text fill="#000000" font-family="sans-serif" font-size="14" lengthAdjust="spacing" textLength="99" x="297.75" y="112.8467">AuthController</text><line style="stroke:#181818;stroke-width:0.5;" x1="126.5" x2="535.5" y1="124" y2="124"/><line style="stroke:#181818;stroke-width:0.5;" x1="126.5" x2="535.5" y1="132" y2="132"/><text fill="#000000" font-family="sans-serif" font-size="14" lengthAdjust="spacing" textLength="350" x="131.5" y="148.9951">+login(dto: LoginRequestDto): LoginResponseDto</text><text fill="#000000" font-family="sans-serif" font-size="14" lengthAdjust="spacing" textLength="399" x="131.5" y="165.292">+refreshToken(refreshToken: String): LoginResponseDto</text></g><!--SRC=[nP71Ri8m44JF-2jMd408gUVSed91uaJw0oRP1YkErtWtBGBnxpX4GKcWvrvdlBDlrbmPvtNGDUHMCwSYmHmQmMrEBZCNX0-blCuhNIBCqqQESxYgsLEfgK3RIcfsKmEz47eyX2uMTbGQjyTJWomReSu2M0FMsjW4ihZMbRteuyWlXMAej_6JDFRa64TnGXMwQLp0xu1y_7hduTcRQAQImDQnQ2VTid4Tnl1ZSXnLQe-HTNg_VmMs9Ll4zicqyZ9vmUw7XdoBTx1_p4ufuvT986inl81-Fgt_PBsfEm00]--></g></svg>