<?xml version="1.0" encoding="us-ascii" standalone="no"?><svg xmlns="http://www.w3.org/2000/svg" xmlns:xlink="http://www.w3.org/1999/xlink" contentStyleType="text/css" height="433px" preserveAspectRatio="none" style="width:1789px;height:433px;background:#FFFFFF;" version="1.1" viewBox="0 0 1789 433" width="1789px" zoomAndPan="magnify"><defs/><g><!--cluster Court--><g id="cluster_Court"><path d="M8.5,6 L53.5,6 A3.75,3.75 0 0 1 56,8.5 L63,28.2969 L1779.5,28.2969 A2.5,2.5 0 0 1 1782,30.7969 L1782,423.5 A2.5,2.5 0 0 1 1779.5,426 L8.5,426 A2.5,2.5 0 0 1 6,423.5 L6,8.5 A2.5,2.5 0 0 1 8.5,6 " fill="none" style="stroke:#000000;stroke-width:1.5;"/><line style="stroke:#000000;stroke-width:1.5;" x1="6" x2="63" y1="28.2969" y2="28.2969"/><text fill="#000000" font-family="sans-serif" font-size="14" font-weight="bold" lengthAdjust="spacing" textLength="44" x="10" y="20.9951">Court</text></g><!--cluster model--><g id="cluster_model"><path d="M1530.5,57 L1579.5,57 A3.75,3.75 0 0 1 1582,59.5 L1589,79.2969 L1755.5,79.2969 A2.5,2.5 0 0 1 1758,81.7969 L1758,218.5 A2.5,2.5 0 0 1 1755.5,221 L1530.5,221 A2.5,2.5 0 0 1 1528,218.5 L1528,59.5 A2.5,2.5 0 0 1 1530.5,57 " fill="none" style="stroke:#000000;stroke-width:1.5;"/><line style="stroke:#000000;stroke-width:1.5;" x1="1528" x2="1589" y1="79.2969" y2="79.2969"/><text fill="#000000" font-family="sans-serif" font-size="14" font-weight="bold" lengthAdjust="spacing" textLength="48" x="1532" y="71.9951">model</text></g><!--cluster dto--><g id="cluster_dto"><path d="M1124.5,73 L1151.5,73 A3.75,3.75 0 0 1 1154,75.5 L1161,95.2969 L1501.5,95.2969 A2.5,2.5 0 0 1 1504,97.7969 L1504,399.5 A2.5,2.5 0 0 1 1501.5,402 L1124.5,402 A2.5,2.5 0 0 1 1122,399.5 L1122,75.5 A2.5,2.5 0 0 1 1124.5,73 " fill="none" style="stroke:#000000;stroke-width:1.5;"/><line style="stroke:#000000;stroke-width:1.5;" x1="1122" x2="1161" y1="95.2969" y2="95.2969"/><text fill="#000000" font-family="sans-serif" font-size="14" font-weight="bold" lengthAdjust="spacing" textLength="26" x="1126" y="87.9951">dto</text></g><!--cluster service--><g id="cluster_service"><path d="M578.5,49 L637.5,49 A3.75,3.75 0 0 1 640,51.5 L647,71.2969 L1095.5,71.2969 A2.5,2.5 0 0 1 1098,73.7969 L1098,226.5 A2.5,2.5 0 0 1 1095.5,229 L578.5,229 A2.5,2.5 0 0 1 576,226.5 L576,51.5 A2.5,2.5 0 0 1 578.5,49 " fill="none" style="stroke:#000000;stroke-width:1.5;"/><line style="stroke:#000000;stroke-width:1.5;" x1="576" x2="647" y1="71.2969" y2="71.2969"/><text fill="#000000" font-family="sans-serif" font-size="14" font-weight="bold" lengthAdjust="spacing" textLength="58" x="580" y="63.9951">service</text></g><!--cluster controller--><g id="cluster_controller"><path d="M32.5,49 L110.5,49 A3.75,3.75 0 0 1 113,51.5 L120,71.2969 L549.5,71.2969 A2.5,2.5 0 0 1 552,73.7969 L552,226.5 A2.5,2.5 0 0 1 549.5,229 L32.5,229 A2.5,2.5 0 0 1 30,226.5 L30,51.5 A2.5,2.5 0 0 1 32.5,49 " fill="none" style="stroke:#000000;stroke-width:1.5;"/><line style="stroke:#000000;stroke-width:1.5;" x1="30" x2="120" y1="71.2969" y2="71.2969"/><text fill="#000000" font-family="sans-serif" font-size="14" font-weight="bold" lengthAdjust="spacing" textLength="77" x="34" y="63.9951">controller</text></g><!--class Court--><g id="elem_Court"><rect codeLine="7" fill="#F1F1F1" height="113.1875" id="Court" rx="2.5" ry="2.5" style="stroke:#181818;stroke-width:0.5;" width="197" x="1544.5" y="92"/><ellipse cx="1619.75" cy="108" fill="#ADD1B2" rx="11" ry="11" style="stroke:#181818;stroke-width:1.0;"/><path d="M1622.7188,113.6406 Q1622.1406,113.9375 1621.5,114.0781 Q1620.8594,114.2344 1620.1563,114.2344 Q1617.6563,114.2344 1616.3281,112.5938 Q1615.0156,110.9375 1615.0156,107.8125 Q1615.0156,104.6875 1616.3281,103.0313 Q1617.6563,101.375 1620.1563,101.375 Q1620.8594,101.375 1621.5,101.5313 Q1622.1563,101.6875 1622.7188,101.9844 L1622.7188,104.7031 Q1622.0938,104.125 1621.5,103.8594 Q1620.9063,103.5781 1620.2813,103.5781 Q1618.9375,103.5781 1618.25,104.6563 Q1617.5625,105.7188 1617.5625,107.8125 Q1617.5625,109.9063 1618.25,110.9844 Q1618.9375,112.0469 1620.2813,112.0469 Q1620.9063,112.0469 1621.5,111.7813 Q1622.0938,111.5 1622.7188,110.9219 L1622.7188,113.6406 Z " fill="#000000"/><text fill="#000000" font-family="sans-serif" font-size="14" lengthAdjust="spacing" textLength="38" x="1640.25" y="112.8467">Court</text><line style="stroke:#181818;stroke-width:0.5;" x1="1545.5" x2="1740.5" y1="124" y2="124"/><text fill="#000000" font-family="sans-serif" font-size="14" lengthAdjust="spacing" textLength="60" x="1550.5" y="140.9951">-id: UUID</text><text fill="#000000" font-family="sans-serif" font-size="14" lengthAdjust="spacing" textLength="93" x="1550.5" y="157.292">-name: String</text><text fill="#000000" font-family="sans-serif" font-size="14" lengthAdjust="spacing" textLength="185" x="1550.5" y="173.5889">-surfaceType: SurfaceType</text><text fill="#000000" font-family="sans-serif" font-size="14" lengthAdjust="spacing" textLength="123" x="1550.5" y="189.8857">-deleted: boolean</text><line style="stroke:#181818;stroke-width:0.5;" x1="1545.5" x2="1740.5" y1="197.1875" y2="197.1875"/></g><!--class CreateCourtDto--><g id="elem_CreateCourtDto"><rect codeLine="16" fill="#F1F1F1" height="80.5938" id="CreateCourtDto" rx="2.5" ry="2.5" style="stroke:#181818;stroke-width:0.5;" width="157" x="1138.5" y="108"/><ellipse cx="1160.7" cy="124" fill="#ADD1B2" rx="11" ry="11" style="stroke:#181818;stroke-width:1.0;"/><path d="M1163.6688,129.6406 Q1163.0906,129.9375 1162.45,130.0781 Q1161.8094,130.2344 1161.1063,130.2344 Q1158.6063,130.2344 1157.2781,128.5938 Q1155.9656,126.9375 1155.9656,123.8125 Q1155.9656,120.6875 1157.2781,119.0313 Q1158.6063,117.375 1161.1063,117.375 Q1161.8094,117.375 1162.45,117.5313 Q1163.1063,117.6875 1163.6688,117.9844 L1163.6688,120.7031 Q1163.0438,120.125 1162.45,119.8594 Q1161.8563,119.5781 1161.2313,119.5781 Q1159.8875,119.5781 1159.2,120.6563 Q1158.5125,121.7188 1158.5125,123.8125 Q1158.5125,125.9063 1159.2,126.9844 Q1159.8875,128.0469 1161.2313,128.0469 Q1161.8563,128.0469 1162.45,127.7813 Q1163.0438,127.5 1163.6688,126.9219 L1163.6688,129.6406 Z " fill="#000000"/><text fill="#000000" font-family="sans-serif" font-size="14" lengthAdjust="spacing" textLength="109" x="1176.3" y="128.8467">CreateCourtDto</text><line style="stroke:#181818;stroke-width:0.5;" x1="1139.5" x2="1294.5" y1="140" y2="140"/><text fill="#000000" font-family="sans-serif" font-size="14" lengthAdjust="spacing" textLength="93" x="1144.5" y="156.9951">-name: String</text><text fill="#000000" font-family="sans-serif" font-size="14" lengthAdjust="spacing" textLength="145" x="1144.5" y="173.292">-surfaceTypeId: UUID</text><line style="stroke:#181818;stroke-width:0.5;" x1="1139.5" x2="1294.5" y1="180.5938" y2="180.5938"/></g><!--class UpdateCourtDto--><g id="elem_UpdateCourtDto"><rect codeLine="21" fill="#F1F1F1" height="80.5938" id="UpdateCourtDto" rx="2.5" ry="2.5" style="stroke:#181818;stroke-width:0.5;" width="157" x="1330.5" y="108"/><ellipse cx="1350.9" cy="124" fill="#ADD1B2" rx="11" ry="11" style="stroke:#181818;stroke-width:1.0;"/><path d="M1353.8688,129.6406 Q1353.2906,129.9375 1352.65,130.0781 Q1352.0094,130.2344 1351.3063,130.2344 Q1348.8063,130.2344 1347.4781,128.5938 Q1346.1656,126.9375 1346.1656,123.8125 Q1346.1656,120.6875 1347.4781,119.0313 Q1348.8063,117.375 1351.3063,117.375 Q1352.0094,117.375 1352.65,117.5313 Q1353.3063,117.6875 1353.8688,117.9844 L1353.8688,120.7031 Q1353.2438,120.125 1352.65,119.8594 Q1352.0563,119.5781 1351.4313,119.5781 Q1350.0875,119.5781 1349.4,120.6563 Q1348.7125,121.7188 1348.7125,123.8125 Q1348.7125,125.9063 1349.4,126.9844 Q1350.0875,128.0469 1351.4313,128.0469 Q1352.0563,128.0469 1352.65,127.7813 Q1353.2438,127.5 1353.8688,126.9219 L1353.8688,129.6406 Z " fill="#000000"/><text fill="#000000" font-family="sans-serif" font-size="14" lengthAdjust="spacing" textLength="113" x="1366.1" y="128.8467">UpdateCourtDto</text><line style="stroke:#181818;stroke-width:0.5;" x1="1331.5" x2="1486.5" y1="140" y2="140"/><text fill="#000000" font-family="sans-serif" font-size="14" lengthAdjust="spacing" textLength="93" x="1336.5" y="156.9951">-name: String</text><text fill="#000000" font-family="sans-serif" font-size="14" lengthAdjust="spacing" textLength="145" x="1336.5" y="173.292">-surfaceTypeId: UUID</text><line style="stroke:#181818;stroke-width:0.5;" x1="1331.5" x2="1486.5" y1="180.5938" y2="180.5938"/></g><!--class CourtDetailDto--><g id="elem_CourtDetailDto"><rect codeLine="26" fill="#F1F1F1" height="113.1875" id="CourtDetailDto" rx="2.5" ry="2.5" style="stroke:#181818;stroke-width:0.5;" width="286" x="1138" y="273"/><ellipse cx="1225.75" cy="289" fill="#ADD1B2" rx="11" ry="11" style="stroke:#181818;stroke-width:1.0;"/><path d="M1228.7188,294.6406 Q1228.1406,294.9375 1227.5,295.0781 Q1226.8594,295.2344 1226.1563,295.2344 Q1223.6563,295.2344 1222.3281,293.5938 Q1221.0156,291.9375 1221.0156,288.8125 Q1221.0156,285.6875 1222.3281,284.0313 Q1223.6563,282.375 1226.1563,282.375 Q1226.8594,282.375 1227.5,282.5313 Q1228.1563,282.6875 1228.7188,282.9844 L1228.7188,285.7031 Q1228.0938,285.125 1227.5,284.8594 Q1226.9063,284.5781 1226.2813,284.5781 Q1224.9375,284.5781 1224.25,285.6563 Q1223.5625,286.7188 1223.5625,288.8125 Q1223.5625,290.9063 1224.25,291.9844 Q1224.9375,293.0469 1226.2813,293.0469 Q1226.9063,293.0469 1227.5,292.7813 Q1228.0938,292.5 1228.7188,291.9219 L1228.7188,294.6406 Z " fill="#000000"/><text fill="#000000" font-family="sans-serif" font-size="14" lengthAdjust="spacing" textLength="102" x="1246.25" y="293.8467">CourtDetailDto</text><line style="stroke:#181818;stroke-width:0.5;" x1="1139" x2="1423" y1="305" y2="305"/><text fill="#000000" font-family="sans-serif" font-size="14" lengthAdjust="spacing" textLength="60" x="1144" y="321.9951">-id: UUID</text><text fill="#000000" font-family="sans-serif" font-size="14" lengthAdjust="spacing" textLength="93" x="1144" y="338.292">-name: String</text><text fill="#000000" font-family="sans-serif" font-size="14" lengthAdjust="spacing" textLength="274" x="1144" y="354.5889">-surfaceTypeDto: SurfaceTypeDetailDto</text><text fill="#000000" font-family="sans-serif" font-size="14" lengthAdjust="spacing" textLength="123" x="1144" y="370.8857">-deleted: boolean</text><line style="stroke:#181818;stroke-width:0.5;" x1="1139" x2="1423" y1="378.1875" y2="378.1875"/></g><!--class CourtService--><g id="elem_CourtService"><rect codeLine="35" fill="#F1F1F1" height="129.4844" id="CourtService" rx="2.5" ry="2.5" style="stroke:#181818;stroke-width:0.5;" width="491" x="591.5" y="84"/><ellipse cx="788.75" cy="100" fill="#ADD1B2" rx="11" ry="11" style="stroke:#181818;stroke-width:1.0;"/><path d="M791.7188,105.6406 Q791.1406,105.9375 790.5,106.0781 Q789.8594,106.2344 789.1563,106.2344 Q786.6563,106.2344 785.3281,104.5938 Q784.0156,102.9375 784.0156,99.8125 Q784.0156,96.6875 785.3281,95.0313 Q786.6563,93.375 789.1563,93.375 Q789.8594,93.375 790.5,93.5313 Q791.1563,93.6875 791.7188,93.9844 L791.7188,96.7031 Q791.0938,96.125 790.5,95.8594 Q789.9063,95.5781 789.2813,95.5781 Q787.9375,95.5781 787.25,96.6563 Q786.5625,97.7188 786.5625,99.8125 Q786.5625,101.9063 787.25,102.9844 Q787.9375,104.0469 789.2813,104.0469 Q789.9063,104.0469 790.5,103.7813 Q791.0938,103.5 791.7188,102.9219 L791.7188,105.6406 Z " fill="#000000"/><text fill="#000000" font-family="sans-serif" font-size="14" lengthAdjust="spacing" textLength="88" x="809.25" y="104.8467">CourtService</text><line style="stroke:#181818;stroke-width:0.5;" x1="592.5" x2="1081.5" y1="116" y2="116"/><line style="stroke:#181818;stroke-width:0.5;" x1="592.5" x2="1081.5" y1="124" y2="124"/><text fill="#000000" font-family="sans-serif" font-size="14" lengthAdjust="spacing" textLength="402" x="597.5" y="140.9951">+createCourt(createDto: CreateCourtDto): CourtDetailDto</text><text fill="#000000" font-family="sans-serif" font-size="14" lengthAdjust="spacing" textLength="479" x="597.5" y="157.292">+updateCourt(id: UUID, updateDto: UpdateCourtDto): CourtDetailDto</text><text fill="#000000" font-family="sans-serif" font-size="14" lengthAdjust="spacing" textLength="224" x="597.5" y="173.5889">+softDeleteCourt(id: UUID): void</text><text fill="#000000" font-family="sans-serif" font-size="14" lengthAdjust="spacing" textLength="278" x="597.5" y="189.8857">+getCourtById(id: UUID): CourtDetailDto</text><text fill="#000000" font-family="sans-serif" font-size="14" lengthAdjust="spacing" textLength="264" x="597.5" y="206.1826">+getAllCourts(): List&lt;CourtDetailDto&gt;</text></g><!--class CourtController--><g id="elem_CourtController"><rect codeLine="45" fill="#F1F1F1" height="129.4844" id="CourtController" rx="2.5" ry="2.5" style="stroke:#181818;stroke-width:0.5;" width="491" x="45.5" y="84"/><ellipse cx="234.25" cy="100" fill="#ADD1B2" rx="11" ry="11" style="stroke:#181818;stroke-width:1.0;"/><path d="M237.2188,105.6406 Q236.6406,105.9375 236,106.0781 Q235.3594,106.2344 234.6563,106.2344 Q232.1563,106.2344 230.8281,104.5938 Q229.5156,102.9375 229.5156,99.8125 Q229.5156,96.6875 230.8281,95.0313 Q232.1563,93.375 234.6563,93.375 Q235.3594,93.375 236,93.5313 Q236.6563,93.6875 237.2188,93.9844 L237.2188,96.7031 Q236.5938,96.125 236,95.8594 Q235.4063,95.5781 234.7813,95.5781 Q233.4375,95.5781 232.75,96.6563 Q232.0625,97.7188 232.0625,99.8125 Q232.0625,101.9063 232.75,102.9844 Q233.4375,104.0469 234.7813,104.0469 Q235.4063,104.0469 236,103.7813 Q236.5938,103.5 237.2188,102.9219 L237.2188,105.6406 Z " fill="#000000"/><text fill="#000000" font-family="sans-serif" font-size="14" lengthAdjust="spacing" textLength="105" x="254.75" y="104.8467">CourtController</text><line style="stroke:#181818;stroke-width:0.5;" x1="46.5" x2="535.5" y1="116" y2="116"/><line style="stroke:#181818;stroke-width:0.5;" x1="46.5" x2="535.5" y1="124" y2="124"/><text fill="#000000" font-family="sans-serif" font-size="14" lengthAdjust="spacing" textLength="402" x="51.5" y="140.9951">+createCourt(createDto: CreateCourtDto): CourtDetailDto</text><text fill="#000000" font-family="sans-serif" font-size="14" lengthAdjust="spacing" textLength="479" x="51.5" y="157.292">+updateCourt(id: UUID, updateDto: UpdateCourtDto): CourtDetailDto</text><text fill="#000000" font-family="sans-serif" font-size="14" lengthAdjust="spacing" textLength="196" x="51.5" y="173.5889">+deleteCourt(id: UUID): void</text><text fill="#000000" font-family="sans-serif" font-size="14" lengthAdjust="spacing" textLength="278" x="51.5" y="189.8857">+getCourtById(id: UUID): CourtDetailDto</text><text fill="#000000" font-family="sans-serif" font-size="14" lengthAdjust="spacing" textLength="264" x="51.5" y="206.1826">+getAllCourts(): List&lt;CourtDetailDto&gt;</text></g><!--SRC=[pPFBQiCm54JNrbU8h5pQGjUc5D9aO-ZEzGSeqeqHaIqZoO6q-D-hXrzoKhefj3jhxcZkw83rYJSjKQJ6L12jjyOeVkWCv5Gs1Vy0_8HGI-Y9L80tEzafiy6V22MJLai6mca93X7OkuA0yIFcBCDbcU_7SqDgo71XzpJLgEbE7Gc5zqlhHlDXdDiLOC067QGKG1gdzoZfbqMOaRv6ChHGG0puBdiZ_I1PBtVAOdK-DVN9Gr3Pijy92X5W21UBe1dFZx7sLaHdoWhEQqZ9cf46TUOK8awkLH7qqEaUqvbT6hxzwXZfNRPwKRZRpRZIyMqFW-fJOfxVf6Xvj99xJvnaxMV9MJ1LOFpqzPApfUDMeFLkXV0JdLhF6zVcEJQ-t01c_mAZf12WhfZjfj7_mSR-2bcFlW00]--></g></svg>