<?xml version="1.0" encoding="us-ascii" standalone="no"?><svg xmlns="http://www.w3.org/2000/svg" xmlns:xlink="http://www.w3.org/1999/xlink" contentStyleType="text/css" height="618px" preserveAspectRatio="none" style="width:2801px;height:618px;background:#FFFFFF;" version="1.1" viewBox="0 0 2801 618" width="2801px" zoomAndPan="magnify"><defs/><g><text fill="#000000" font-family="sans-serif" font-size="14" font-weight="bold" lengthAdjust="spacing" textLength="255" x="1266" y="22.9951">Tennis Club Reservation System</text><!--cluster Reservation--><g id="cluster_Reservation"><path d="M8.5,43.2969 L103.5,43.2969 A3.75,3.75 0 0 1 106,45.7969 L113,65.5938 L2791.5,65.5938 A2.5,2.5 0 0 1 2794,68.0938 L2794,608.7969 A2.5,2.5 0 0 1 2791.5,611.2969 L8.5,611.2969 A2.5,2.5 0 0 1 6,608.7969 L6,45.7969 A2.5,2.5 0 0 1 8.5,43.2969 " fill="none" style="stroke:#000000;stroke-width:1.5;"/><line style="stroke:#000000;stroke-width:1.5;" x1="6" x2="113" y1="65.5938" y2="65.5938"/><text fill="#000000" font-family="sans-serif" font-size="14" font-weight="bold" lengthAdjust="spacing" textLength="94" x="10" y="58.292">Reservation</text></g><!--cluster model--><g id="cluster_model"><path d="M2404.5,86.2969 L2453.5,86.2969 A3.75,3.75 0 0 1 2456,88.7969 L2463,108.5938 L2767.5,108.5938 A2.5,2.5 0 0 1 2770,111.0938 L2770,535.7969 A2.5,2.5 0 0 1 2767.5,538.2969 L2404.5,538.2969 A2.5,2.5 0 0 1 2402,535.7969 L2402,88.7969 A2.5,2.5 0 0 1 2404.5,86.2969 " fill="none" style="stroke:#000000;stroke-width:1.5;"/><line style="stroke:#000000;stroke-width:1.5;" x1="2402" x2="2463" y1="108.5938" y2="108.5938"/><text fill="#000000" font-family="sans-serif" font-size="14" font-weight="bold" lengthAdjust="spacing" textLength="48" x="2406" y="101.292">model</text></g><!--cluster dto--><g id="cluster_dto"><path d="M1540.5,110.7969 L1567.5,110.7969 A3.75,3.75 0 0 1 1570,113.2969 L1577,133.0938 L2375.5,133.0938 A2.5,2.5 0 0 1 2378,135.5938 L2378,584.7969 A2.5,2.5 0 0 1 2375.5,587.2969 L1540.5,587.2969 A2.5,2.5 0 0 1 1538,584.7969 L1538,113.2969 A2.5,2.5 0 0 1 1540.5,110.7969 " fill="none" style="stroke:#000000;stroke-width:1.5;"/><line style="stroke:#000000;stroke-width:1.5;" x1="1538" x2="1577" y1="133.0938" y2="133.0938"/><text fill="#000000" font-family="sans-serif" font-size="14" font-weight="bold" lengthAdjust="spacing" textLength="26" x="1542" y="125.792">dto</text></g><!--cluster service--><g id="cluster_service"><path d="M862.5,119.2969 L921.5,119.2969 A3.75,3.75 0 0 1 924,121.7969 L931,141.5938 L1511.5,141.5938 A2.5,2.5 0 0 1 1514,144.0938 L1514,296.7969 A2.5,2.5 0 0 1 1511.5,299.2969 L862.5,299.2969 A2.5,2.5 0 0 1 860,296.7969 L860,121.7969 A2.5,2.5 0 0 1 862.5,119.2969 " fill="none" style="stroke:#000000;stroke-width:1.5;"/><line style="stroke:#000000;stroke-width:1.5;" x1="860" x2="931" y1="141.5938" y2="141.5938"/><text fill="#000000" font-family="sans-serif" font-size="14" font-weight="bold" lengthAdjust="spacing" textLength="58" x="864" y="134.292">service</text></g><!--cluster controller--><g id="cluster_controller"><path d="M32.5,94.7969 L110.5,94.7969 A3.75,3.75 0 0 1 113,97.2969 L120,117.0938 L833.5,117.0938 A2.5,2.5 0 0 1 836,119.5938 L836,321.2969 A2.5,2.5 0 0 1 833.5,323.7969 L32.5,323.7969 A2.5,2.5 0 0 1 30,321.2969 L30,97.2969 A2.5,2.5 0 0 1 32.5,94.7969 " fill="none" style="stroke:#000000;stroke-width:1.5;"/><line style="stroke:#000000;stroke-width:1.5;" x1="30" x2="120" y1="117.0938" y2="117.0938"/><text fill="#000000" font-family="sans-serif" font-size="14" font-weight="bold" lengthAdjust="spacing" textLength="77" x="34" y="109.792">controller</text></g><!--class Reservation--><g id="elem_Reservation"><rect codeLine="7" fill="#F1F1F1" height="194.6719" id="Reservation" rx="2.5" ry="2.5" style="stroke:#181818;stroke-width:0.5;" width="195" x="2417.5" y="121.2969"/><ellipse cx="2469.75" cy="137.2969" fill="#ADD1B2" rx="11" ry="11" style="stroke:#181818;stroke-width:1.0;"/><path d="M2472.7188,142.9375 Q2472.1406,143.2344 2471.5,143.375 Q2470.8594,143.5313 2470.1563,143.5313 Q2467.6563,143.5313 2466.3281,141.8906 Q2465.0156,140.2344 2465.0156,137.1094 Q2465.0156,133.9844 2466.3281,132.3281 Q2467.6563,130.6719 2470.1563,130.6719 Q2470.8594,130.6719 2471.5,130.8281 Q2472.1563,130.9844 2472.7188,131.2813 L2472.7188,134 Q2472.0938,133.4219 2471.5,133.1563 Q2470.9063,132.875 2470.2813,132.875 Q2468.9375,132.875 2468.25,133.9531 Q2467.5625,135.0156 2467.5625,137.1094 Q2467.5625,139.2031 2468.25,140.2813 Q2468.9375,141.3438 2470.2813,141.3438 Q2470.9063,141.3438 2471.5,141.0781 Q2472.0938,140.7969 2472.7188,140.2188 L2472.7188,142.9375 Z " fill="#000000"/><text fill="#000000" font-family="sans-serif" font-size="14" lengthAdjust="spacing" textLength="82" x="2490.25" y="142.1436">Reservation</text><line style="stroke:#181818;stroke-width:0.5;" x1="2418.5" x2="2611.5" y1="153.2969" y2="153.2969"/><text fill="#000000" font-family="sans-serif" font-size="14" lengthAdjust="spacing" textLength="60" x="2423.5" y="170.292">-id: UUID</text><text fill="#000000" font-family="sans-serif" font-size="14" lengthAdjust="spacing" textLength="88" x="2423.5" y="186.5889">-court: Court</text><text fill="#000000" font-family="sans-serif" font-size="14" lengthAdjust="spacing" textLength="148" x="2423.5" y="202.8857">-customer: Customer</text><text fill="#000000" font-family="sans-serif" font-size="14" lengthAdjust="spacing" textLength="181" x="2423.5" y="219.1826">-startTime: LocalDateTime</text><text fill="#000000" font-family="sans-serif" font-size="14" lengthAdjust="spacing" textLength="177" x="2423.5" y="235.4795">-endTime: LocalDateTime</text><text fill="#000000" font-family="sans-serif" font-size="14" lengthAdjust="spacing" textLength="82" x="2423.5" y="251.7764">-price: Price</text><text fill="#000000" font-family="sans-serif" font-size="14" lengthAdjust="spacing" textLength="162" x="2423.5" y="268.0732">-gameType: GameType</text><text fill="#000000" font-family="sans-serif" font-size="14" lengthAdjust="spacing" textLength="123" x="2423.5" y="284.3701">-deleted: boolean</text><text fill="#000000" font-family="sans-serif" font-size="14" lengthAdjust="spacing" textLength="183" x="2423.5" y="300.667">-createdAt: LocalDateTime</text><line style="stroke:#181818;stroke-width:0.5;" x1="2418.5" x2="2611.5" y1="307.9688" y2="307.9688"/></g><!--class GameType--><g id="elem_GameType"><rect codeLine="19" fill="#F1F1F1" height="80.5938" id="GameType" rx="2.5" ry="2.5" style="stroke:#181818;stroke-width:0.5;" width="107" x="2647.5" y="178.2969"/><ellipse cx="2662.5" cy="194.2969" fill="#EB937F" rx="11" ry="11" style="stroke:#181818;stroke-width:1.0;"/><path d="M2666.6094,200.2969 L2658.8906,200.2969 L2658.8906,187.9063 L2666.6094,187.9063 L2666.6094,190.0625 L2661.3438,190.0625 L2661.3438,192.7344 L2666.1094,192.7344 L2666.1094,194.8906 L2661.3438,194.8906 L2661.3438,198.1406 L2666.6094,198.1406 L2666.6094,200.2969 Z " fill="#000000"/><text fill="#000000" font-family="sans-serif" font-size="14" lengthAdjust="spacing" textLength="75" x="2676.5" y="199.1436">GameType</text><line style="stroke:#181818;stroke-width:0.5;" x1="2648.5" x2="2753.5" y1="210.2969" y2="210.2969"/><text fill="#000000" font-family="sans-serif" font-size="14" lengthAdjust="spacing" textLength="58" x="2653.5" y="227.292">SINGLES</text><text fill="#000000" font-family="sans-serif" font-size="14" lengthAdjust="spacing" textLength="67" x="2653.5" y="243.5889">DOUBLES</text><line style="stroke:#181818;stroke-width:0.5;" x1="2648.5" x2="2753.5" y1="250.8906" y2="250.8906"/></g><!--class ReservationsFilter--><g id="elem_ReservationsFilter"><rect codeLine="24" fill="#F1F1F1" height="96.8906" id="ReservationsFilter" rx="2.5" ry="2.5" style="stroke:#181818;stroke-width:0.5;" width="166" x="2432" y="425.2969"/><ellipse cx="2451.95" cy="441.2969" fill="#ADD1B2" rx="11" ry="11" style="stroke:#181818;stroke-width:1.0;"/><path d="M2454.9188,446.9375 Q2454.3406,447.2344 2453.7,447.375 Q2453.0594,447.5313 2452.3563,447.5313 Q2449.8563,447.5313 2448.5281,445.8906 Q2447.2156,444.2344 2447.2156,441.1094 Q2447.2156,437.9844 2448.5281,436.3281 Q2449.8563,434.6719 2452.3563,434.6719 Q2453.0594,434.6719 2453.7,434.8281 Q2454.3563,434.9844 2454.9188,435.2813 L2454.9188,438 Q2454.2938,437.4219 2453.7,437.1563 Q2453.1063,436.875 2452.4813,436.875 Q2451.1375,436.875 2450.45,437.9531 Q2449.7625,439.0156 2449.7625,441.1094 Q2449.7625,443.2031 2450.45,444.2813 Q2451.1375,445.3438 2452.4813,445.3438 Q2453.1063,445.3438 2453.7,445.0781 Q2454.2938,444.7969 2454.9188,444.2188 L2454.9188,446.9375 Z " fill="#000000"/><text fill="#000000" font-family="sans-serif" font-size="14" lengthAdjust="spacing" textLength="123" x="2467.05" y="446.1436">ReservationsFilter</text><line style="stroke:#181818;stroke-width:0.5;" x1="2433" x2="2597" y1="457.2969" y2="457.2969"/><text fill="#000000" font-family="sans-serif" font-size="14" lengthAdjust="spacing" textLength="96" x="2438" y="474.292">-courtId: UUID</text><text fill="#000000" font-family="sans-serif" font-size="14" lengthAdjust="spacing" textLength="154" x="2438" y="490.5889">-phoneNumber: String</text><text fill="#000000" font-family="sans-serif" font-size="14" lengthAdjust="spacing" textLength="143" x="2438" y="506.8857">-onlyFuture: boolean</text><line style="stroke:#181818;stroke-width:0.5;" x1="2433" x2="2597" y1="514.1875" y2="514.1875"/></g><!--class CreateReservationDto--><g id="elem_CreateReservationDto"><rect codeLine="32" fill="#F1F1F1" height="145.7813" id="CreateReservationDto" rx="2.5" ry="2.5" style="stroke:#181818;stroke-width:0.5;" width="232" x="1582" y="145.7969"/><ellipse cx="1618.15" cy="161.7969" fill="#ADD1B2" rx="11" ry="11" style="stroke:#181818;stroke-width:1.0;"/><path d="M1621.1188,167.4375 Q1620.5406,167.7344 1619.9,167.875 Q1619.2594,168.0313 1618.5563,168.0313 Q1616.0563,168.0313 1614.7281,166.3906 Q1613.4156,164.7344 1613.4156,161.6094 Q1613.4156,158.4844 1614.7281,156.8281 Q1616.0563,155.1719 1618.5563,155.1719 Q1619.2594,155.1719 1619.9,155.3281 Q1620.5563,155.4844 1621.1188,155.7813 L1621.1188,158.5 Q1620.4938,157.9219 1619.9,157.6563 Q1619.3063,157.375 1618.6813,157.375 Q1617.3375,157.375 1616.65,158.4531 Q1615.9625,159.5156 1615.9625,161.6094 Q1615.9625,163.7031 1616.65,164.7813 Q1617.3375,165.8438 1618.6813,165.8438 Q1619.3063,165.8438 1619.9,165.5781 Q1620.4938,165.2969 1621.1188,164.7188 L1621.1188,167.4375 Z " fill="#000000"/><text fill="#000000" font-family="sans-serif" font-size="14" lengthAdjust="spacing" textLength="153" x="1636.85" y="166.6436">CreateReservationDto</text><line style="stroke:#181818;stroke-width:0.5;" x1="1583" x2="1813" y1="177.7969" y2="177.7969"/><text fill="#000000" font-family="sans-serif" font-size="14" lengthAdjust="spacing" textLength="96" x="1588" y="194.792">-courtId: UUID</text><text fill="#000000" font-family="sans-serif" font-size="14" lengthAdjust="spacing" textLength="181" x="1588" y="211.0889">-startTime: LocalDateTime</text><text fill="#000000" font-family="sans-serif" font-size="14" lengthAdjust="spacing" textLength="177" x="1588" y="227.3857">-endTime: LocalDateTime</text><text fill="#000000" font-family="sans-serif" font-size="14" lengthAdjust="spacing" textLength="162" x="1588" y="243.6826">-gameType: GameType</text><text fill="#000000" font-family="sans-serif" font-size="14" lengthAdjust="spacing" textLength="220" x="1588" y="259.9795">-customerPhoneNumber: String</text><text fill="#000000" font-family="sans-serif" font-size="14" lengthAdjust="spacing" textLength="160" x="1588" y="276.2764">-customerName: String</text><line style="stroke:#181818;stroke-width:0.5;" x1="1583" x2="1813" y1="283.5781" y2="283.5781"/></g><!--class UpdateReservationDto--><g id="elem_UpdateReservationDto"><rect codeLine="41" fill="#F1F1F1" height="113.1875" id="UpdateReservationDto" rx="2.5" ry="2.5" style="stroke:#181818;stroke-width:0.5;" width="193" x="1849.5" y="162.2969"/><ellipse cx="1866.3" cy="178.2969" fill="#ADD1B2" rx="11" ry="11" style="stroke:#181818;stroke-width:1.0;"/><path d="M1869.2688,183.9375 Q1868.6906,184.2344 1868.05,184.375 Q1867.4094,184.5313 1866.7063,184.5313 Q1864.2063,184.5313 1862.8781,182.8906 Q1861.5656,181.2344 1861.5656,178.1094 Q1861.5656,174.9844 1862.8781,173.3281 Q1864.2063,171.6719 1866.7063,171.6719 Q1867.4094,171.6719 1868.05,171.8281 Q1868.7063,171.9844 1869.2688,172.2813 L1869.2688,175 Q1868.6438,174.4219 1868.05,174.1563 Q1867.4563,173.875 1866.8313,173.875 Q1865.4875,173.875 1864.8,174.9531 Q1864.1125,176.0156 1864.1125,178.1094 Q1864.1125,180.2031 1864.8,181.2813 Q1865.4875,182.3438 1866.8313,182.3438 Q1867.4563,182.3438 1868.05,182.0781 Q1868.6438,181.7969 1869.2688,181.2188 L1869.2688,183.9375 Z " fill="#000000"/><text fill="#000000" font-family="sans-serif" font-size="14" lengthAdjust="spacing" textLength="157" x="1880.7" y="183.1436">UpdateReservationDto</text><line style="stroke:#181818;stroke-width:0.5;" x1="1850.5" x2="2041.5" y1="194.2969" y2="194.2969"/><text fill="#000000" font-family="sans-serif" font-size="14" lengthAdjust="spacing" textLength="96" x="1855.5" y="211.292">-courtId: UUID</text><text fill="#000000" font-family="sans-serif" font-size="14" lengthAdjust="spacing" textLength="181" x="1855.5" y="227.5889">-startTime: LocalDateTime</text><text fill="#000000" font-family="sans-serif" font-size="14" lengthAdjust="spacing" textLength="177" x="1855.5" y="243.8857">-endTime: LocalDateTime</text><text fill="#000000" font-family="sans-serif" font-size="14" lengthAdjust="spacing" textLength="162" x="1855.5" y="260.1826">-gameType: GameType</text><line style="stroke:#181818;stroke-width:0.5;" x1="1850.5" x2="2041.5" y1="267.4844" y2="267.4844"/></g><!--class ReservationPreviewDto--><g id="elem_ReservationPreviewDto"><rect codeLine="48" fill="#F1F1F1" height="129.4844" id="ReservationPreviewDto" rx="2.5" ry="2.5" style="stroke:#181818;stroke-width:0.5;" width="193" x="2077.5" y="154.2969"/><ellipse cx="2092.95" cy="170.2969" fill="#ADD1B2" rx="11" ry="11" style="stroke:#181818;stroke-width:1.0;"/><path d="M2095.9188,175.9375 Q2095.3406,176.2344 2094.7,176.375 Q2094.0594,176.5313 2093.3563,176.5313 Q2090.8563,176.5313 2089.5281,174.8906 Q2088.2156,173.2344 2088.2156,170.1094 Q2088.2156,166.9844 2089.5281,165.3281 Q2090.8563,163.6719 2093.3563,163.6719 Q2094.0594,163.6719 2094.7,163.8281 Q2095.3563,163.9844 2095.9188,164.2813 L2095.9188,167 Q2095.2938,166.4219 2094.7,166.1563 Q2094.1063,165.875 2093.4813,165.875 Q2092.1375,165.875 2091.45,166.9531 Q2090.7625,168.0156 2090.7625,170.1094 Q2090.7625,172.2031 2091.45,173.2813 Q2092.1375,174.3438 2093.4813,174.3438 Q2094.1063,174.3438 2094.7,174.0781 Q2095.2938,173.7969 2095.9188,173.2188 L2095.9188,175.9375 Z " fill="#000000"/><text fill="#000000" font-family="sans-serif" font-size="14" lengthAdjust="spacing" textLength="160" x="2107.05" y="175.1436">ReservationPreviewDto</text><line style="stroke:#181818;stroke-width:0.5;" x1="2078.5" x2="2269.5" y1="186.2969" y2="186.2969"/><text fill="#000000" font-family="sans-serif" font-size="14" lengthAdjust="spacing" textLength="60" x="2083.5" y="203.292">-id: UUID</text><text fill="#000000" font-family="sans-serif" font-size="14" lengthAdjust="spacing" textLength="130" x="2083.5" y="219.5889">-courtName: String</text><text fill="#000000" font-family="sans-serif" font-size="14" lengthAdjust="spacing" textLength="160" x="2083.5" y="235.8857">-customerName: String</text><text fill="#000000" font-family="sans-serif" font-size="14" lengthAdjust="spacing" textLength="181" x="2083.5" y="252.1826">-startTime: LocalDateTime</text><text fill="#000000" font-family="sans-serif" font-size="14" lengthAdjust="spacing" textLength="177" x="2083.5" y="268.4795">-endTime: LocalDateTime</text><line style="stroke:#181818;stroke-width:0.5;" x1="2078.5" x2="2269.5" y1="275.7813" y2="275.7813"/></g><!--class ReservationDetailDto--><g id="elem_ReservationDetailDto"><rect codeLine="56" fill="#F1F1F1" height="194.6719" id="ReservationDetailDto" rx="2.5" ry="2.5" style="stroke:#181818;stroke-width:0.5;" width="288" x="1554" y="376.2969"/><ellipse cx="1620.75" cy="392.2969" fill="#ADD1B2" rx="11" ry="11" style="stroke:#181818;stroke-width:1.0;"/><path d="M1623.7188,397.9375 Q1623.1406,398.2344 1622.5,398.375 Q1621.8594,398.5313 1621.1563,398.5313 Q1618.6563,398.5313 1617.3281,396.8906 Q1616.0156,395.2344 1616.0156,392.1094 Q1616.0156,388.9844 1617.3281,387.3281 Q1618.6563,385.6719 1621.1563,385.6719 Q1621.8594,385.6719 1622.5,385.8281 Q1623.1563,385.9844 1623.7188,386.2813 L1623.7188,389 Q1623.0938,388.4219 1622.5,388.1563 Q1621.9063,387.875 1621.2813,387.875 Q1619.9375,387.875 1619.25,388.9531 Q1618.5625,390.0156 1618.5625,392.1094 Q1618.5625,394.2031 1619.25,395.2813 Q1619.9375,396.3438 1621.2813,396.3438 Q1621.9063,396.3438 1622.5,396.0781 Q1623.0938,395.7969 1623.7188,395.2188 L1623.7188,397.9375 Z " fill="#000000"/><text fill="#000000" font-family="sans-serif" font-size="14" lengthAdjust="spacing" textLength="146" x="1641.25" y="397.1436">ReservationDetailDto</text><line style="stroke:#181818;stroke-width:0.5;" x1="1555" x2="1841" y1="408.2969" y2="408.2969"/><text fill="#000000" font-family="sans-serif" font-size="14" lengthAdjust="spacing" textLength="60" x="1560" y="425.292">-id: UUID</text><text fill="#000000" font-family="sans-serif" font-size="14" lengthAdjust="spacing" textLength="216" x="1560" y="441.5889">-courtDetailDto: CourtDetailDto</text><text fill="#000000" font-family="sans-serif" font-size="14" lengthAdjust="spacing" textLength="276" x="1560" y="457.8857">-customerDetailDto: CustomerDetailDto</text><text fill="#000000" font-family="sans-serif" font-size="14" lengthAdjust="spacing" textLength="181" x="1560" y="474.1826">-startTime: LocalDateTime</text><text fill="#000000" font-family="sans-serif" font-size="14" lengthAdjust="spacing" textLength="177" x="1560" y="490.4795">-endTime: LocalDateTime</text><text fill="#000000" font-family="sans-serif" font-size="14" lengthAdjust="spacing" textLength="187" x="1560" y="506.7764">-gameType: GameTypeDto</text><text fill="#000000" font-family="sans-serif" font-size="14" lengthAdjust="spacing" textLength="82" x="1560" y="523.0732">-price: Price</text><text fill="#000000" font-family="sans-serif" font-size="14" lengthAdjust="spacing" textLength="123" x="1560" y="539.3701">-deleted: boolean</text><text fill="#000000" font-family="sans-serif" font-size="14" lengthAdjust="spacing" textLength="183" x="1560" y="555.667">-createdAt: LocalDateTime</text><line style="stroke:#181818;stroke-width:0.5;" x1="1555" x2="1841" y1="562.9688" y2="562.9688"/></g><!--class CourtReservationListDto--><g id="elem_CourtReservationListDto"><rect codeLine="68" fill="#F1F1F1" height="80.5938" id="CourtReservationListDto" rx="2.5" ry="2.5" style="stroke:#181818;stroke-width:0.5;" width="318" x="1877" y="433.2969"/><ellipse cx="1947.75" cy="449.2969" fill="#ADD1B2" rx="11" ry="11" style="stroke:#181818;stroke-width:1.0;"/><path d="M1950.7188,454.9375 Q1950.1406,455.2344 1949.5,455.375 Q1948.8594,455.5313 1948.1563,455.5313 Q1945.6563,455.5313 1944.3281,453.8906 Q1943.0156,452.2344 1943.0156,449.1094 Q1943.0156,445.9844 1944.3281,444.3281 Q1945.6563,442.6719 1948.1563,442.6719 Q1948.8594,442.6719 1949.5,442.8281 Q1950.1563,442.9844 1950.7188,443.2813 L1950.7188,446 Q1950.0938,445.4219 1949.5,445.1563 Q1948.9063,444.875 1948.2813,444.875 Q1946.9375,444.875 1946.25,445.9531 Q1945.5625,447.0156 1945.5625,449.1094 Q1945.5625,451.2031 1946.25,452.2813 Q1946.9375,453.3438 1948.2813,453.3438 Q1948.9063,453.3438 1949.5,453.0781 Q1950.0938,452.7969 1950.7188,452.2188 L1950.7188,454.9375 Z " fill="#000000"/><text fill="#000000" font-family="sans-serif" font-size="14" lengthAdjust="spacing" textLength="168" x="1968.25" y="454.1436">CourtReservationListDto</text><line style="stroke:#181818;stroke-width:0.5;" x1="1878" x2="2194" y1="465.2969" y2="465.2969"/><text fill="#000000" font-family="sans-serif" font-size="14" lengthAdjust="spacing" textLength="152" x="1883" y="482.292">-court: CourtDetailDto</text><text fill="#000000" font-family="sans-serif" font-size="14" lengthAdjust="spacing" textLength="306" x="1883" y="498.5889">-reservations: List&lt;ReservationPreviewDto&gt;</text><line style="stroke:#181818;stroke-width:0.5;" x1="1878" x2="2194" y1="505.8906" y2="505.8906"/></g><!--class GameTypeDto--><g id="elem_GameTypeDto"><rect codeLine="73" fill="#F1F1F1" height="80.5938" id="GameTypeDto" rx="2.5" ry="2.5" style="stroke:#181818;stroke-width:0.5;" width="132" x="2230" y="433.2969"/><ellipse cx="2245" cy="449.2969" fill="#EB937F" rx="11" ry="11" style="stroke:#181818;stroke-width:1.0;"/><path d="M2249.1094,455.2969 L2241.3906,455.2969 L2241.3906,442.9063 L2249.1094,442.9063 L2249.1094,445.0625 L2243.8438,445.0625 L2243.8438,447.7344 L2248.6094,447.7344 L2248.6094,449.8906 L2243.8438,449.8906 L2243.8438,453.1406 L2249.1094,453.1406 L2249.1094,455.2969 Z " fill="#000000"/><text fill="#000000" font-family="sans-serif" font-size="14" lengthAdjust="spacing" textLength="100" x="2259" y="454.1436">GameTypeDto</text><line style="stroke:#181818;stroke-width:0.5;" x1="2231" x2="2361" y1="465.2969" y2="465.2969"/><text fill="#000000" font-family="sans-serif" font-size="14" lengthAdjust="spacing" textLength="58" x="2236" y="482.292">SINGLES</text><text fill="#000000" font-family="sans-serif" font-size="14" lengthAdjust="spacing" textLength="67" x="2236" y="498.5889">DOUBLES</text><line style="stroke:#181818;stroke-width:0.5;" x1="2231" x2="2361" y1="505.8906" y2="505.8906"/></g><!--class ReservationService--><g id="elem_ReservationService"><rect codeLine="80" fill="#F1F1F1" height="129.4844" id="ReservationService" rx="2.5" ry="2.5" style="stroke:#181818;stroke-width:0.5;" width="623" x="875.5" y="154.2969"/><ellipse cx="1116.75" cy="170.2969" fill="#ADD1B2" rx="11" ry="11" style="stroke:#181818;stroke-width:1.0;"/><path d="M1119.7188,175.9375 Q1119.1406,176.2344 1118.5,176.375 Q1117.8594,176.5313 1117.1563,176.5313 Q1114.6563,176.5313 1113.3281,174.8906 Q1112.0156,173.2344 1112.0156,170.1094 Q1112.0156,166.9844 1113.3281,165.3281 Q1114.6563,163.6719 1117.1563,163.6719 Q1117.8594,163.6719 1118.5,163.8281 Q1119.1563,163.9844 1119.7188,164.2813 L1119.7188,167 Q1119.0938,166.4219 1118.5,166.1563 Q1117.9063,165.875 1117.2813,165.875 Q1115.9375,165.875 1115.25,166.9531 Q1114.5625,168.0156 1114.5625,170.1094 Q1114.5625,172.2031 1115.25,173.2813 Q1115.9375,174.3438 1117.2813,174.3438 Q1117.9063,174.3438 1118.5,174.0781 Q1119.0938,173.7969 1119.7188,173.2188 L1119.7188,175.9375 Z " fill="#000000"/><text fill="#000000" font-family="sans-serif" font-size="14" lengthAdjust="spacing" textLength="132" x="1137.25" y="175.1436">ReservationService</text><line style="stroke:#181818;stroke-width:0.5;" x1="876.5" x2="1497.5" y1="186.2969" y2="186.2969"/><line style="stroke:#181818;stroke-width:0.5;" x1="876.5" x2="1497.5" y1="194.2969" y2="194.2969"/><text fill="#000000" font-family="sans-serif" font-size="14" lengthAdjust="spacing" textLength="534" x="881.5" y="211.292">+createReservation(createDto: CreateReservationDto): ReservationDetailDto</text><text fill="#000000" font-family="sans-serif" font-size="14" lengthAdjust="spacing" textLength="611" x="881.5" y="227.5889">+updateReservation(id: UUID, updateDto: UpdateReservationDto): ReservationDetailDto</text><text fill="#000000" font-family="sans-serif" font-size="14" lengthAdjust="spacing" textLength="268" x="881.5" y="243.8857">+deleteReservation(id: UUID): boolean</text><text fill="#000000" font-family="sans-serif" font-size="14" lengthAdjust="spacing" textLength="366" x="881.5" y="260.1826">+getReservationById(id: UUID): ReservationDetailDto</text><text fill="#000000" font-family="sans-serif" font-size="14" lengthAdjust="spacing" textLength="513" x="881.5" y="276.4795">+getAllReservations(filter: ReservationsFilter): List&lt;ReservationDetailDto&gt;</text></g><!--class ReservationController--><g id="elem_ReservationController"><rect codeLine="90" fill="#F1F1F1" height="178.375" id="ReservationController" rx="2.5" ry="2.5" style="stroke:#181818;stroke-width:0.5;" width="775" x="45.5" y="129.7969"/><ellipse cx="354.25" cy="145.7969" fill="#ADD1B2" rx="11" ry="11" style="stroke:#181818;stroke-width:1.0;"/><path d="M357.2188,151.4375 Q356.6406,151.7344 356,151.875 Q355.3594,152.0313 354.6563,152.0313 Q352.1563,152.0313 350.8281,150.3906 Q349.5156,148.7344 349.5156,145.6094 Q349.5156,142.4844 350.8281,140.8281 Q352.1563,139.1719 354.6563,139.1719 Q355.3594,139.1719 356,139.3281 Q356.6563,139.4844 357.2188,139.7813 L357.2188,142.5 Q356.5938,141.9219 356,141.6563 Q355.4063,141.375 354.7813,141.375 Q353.4375,141.375 352.75,142.4531 Q352.0625,143.5156 352.0625,145.6094 Q352.0625,147.7031 352.75,148.7813 Q353.4375,149.8438 354.7813,149.8438 Q355.4063,149.8438 356,149.5781 Q356.5938,149.2969 357.2188,148.7188 L357.2188,151.4375 Z " fill="#000000"/><text fill="#000000" font-family="sans-serif" font-size="14" lengthAdjust="spacing" textLength="149" x="374.75" y="150.6436">ReservationController</text><line style="stroke:#181818;stroke-width:0.5;" x1="46.5" x2="819.5" y1="161.7969" y2="161.7969"/><line style="stroke:#181818;stroke-width:0.5;" x1="46.5" x2="819.5" y1="169.7969" y2="169.7969"/><text fill="#000000" font-family="sans-serif" font-size="14" lengthAdjust="spacing" textLength="534" x="51.5" y="186.792">+createReservation(createDto: CreateReservationDto): ReservationDetailDto</text><text fill="#000000" font-family="sans-serif" font-size="14" lengthAdjust="spacing" textLength="611" x="51.5" y="203.0889">+updateReservation(id: UUID, updateDto: UpdateReservationDto): ReservationDetailDto</text><text fill="#000000" font-family="sans-serif" font-size="14" lengthAdjust="spacing" textLength="268" x="51.5" y="219.3857">+deleteReservation(id: UUID): boolean</text><text fill="#000000" font-family="sans-serif" font-size="14" lengthAdjust="spacing" textLength="366" x="51.5" y="235.6826">+getReservationById(id: UUID): ReservationDetailDto</text><text fill="#000000" font-family="sans-serif" font-size="14" lengthAdjust="spacing" textLength="352" x="51.5" y="251.9795">+getAllReservations(): List&lt;ReservationDetailDto&gt;</text><text fill="#000000" font-family="sans-serif" font-size="14" lengthAdjust="spacing" textLength="4" x="51.5" y="268.2764">&#160;</text><text fill="#000000" font-family="sans-serif" font-size="14" lengthAdjust="spacing" textLength="441" x="51.5" y="284.5732">+getCourtReservations(courtId: UUID): CourtReservationListDto</text><text fill="#000000" font-family="sans-serif" font-size="14" lengthAdjust="spacing" textLength="763" x="51.5" y="300.8701">+getReservationsByPhoneNumber(phoneNumber: String, onlyFuture: boolean): List&lt;ReservationPreviewDto&gt;</text></g><!--SRC=[XOvD2i8m44RtEKKyWE8Ln9LRsmjCuwY3oIJCZr9Fxw8KeHLSl_SzFdqGDn0eCMLGFPW93MvuIfKxUcFSXs1a6MEFpAJnc7s8PrIK9nXLZjseXYM43N7AVi4fj9MlicjUSc1yDRZXIapLnIPbGTJb2WdxiU6VXAlLWlApuZg3URuwKCfySe70xJw13m00]--></g></svg>