<?xml version="1.0" encoding="us-ascii" standalone="no"?><svg xmlns="http://www.w3.org/2000/svg" xmlns:xlink="http://www.w3.org/1999/xlink" contentStyleType="text/css" height="581px" preserveAspectRatio="none" style="width:2801px;height:581px;background:#FFFFFF;" version="1.1" viewBox="0 0 2801 581" width="2801px" zoomAndPan="magnify"><defs/><g><!--cluster Reservation--><g id="cluster_Reservation"><path d="M8.5,6 L103.5,6 A3.75,3.75 0 0 1 106,8.5 L113,28.2969 L2791.5,28.2969 A2.5,2.5 0 0 1 2794,30.7969 L2794,571.5 A2.5,2.5 0 0 1 2791.5,574 L8.5,574 A2.5,2.5 0 0 1 6,571.5 L6,8.5 A2.5,2.5 0 0 1 8.5,6 " fill="none" style="stroke:#000000;stroke-width:1.5;"/><line style="stroke:#000000;stroke-width:1.5;" x1="6" x2="113" y1="28.2969" y2="28.2969"/><text fill="#000000" font-family="sans-serif" font-size="14" font-weight="bold" lengthAdjust="spacing" textLength="94" x="10" y="20.9951">Reservation</text></g><!--cluster model--><g id="cluster_model"><path d="M2404.5,49 L2453.5,49 A3.75,3.75 0 0 1 2456,51.5 L2463,71.2969 L2767.5,71.2969 A2.5,2.5 0 0 1 2770,73.7969 L2770,498.5 A2.5,2.5 0 0 1 2767.5,501 L2404.5,501 A2.5,2.5 0 0 1 2402,498.5 L2402,51.5 A2.5,2.5 0 0 1 2404.5,49 " fill="none" style="stroke:#000000;stroke-width:1.5;"/><line style="stroke:#000000;stroke-width:1.5;" x1="2402" x2="2463" y1="71.2969" y2="71.2969"/><text fill="#000000" font-family="sans-serif" font-size="14" font-weight="bold" lengthAdjust="spacing" textLength="48" x="2406" y="63.9951">model</text></g><!--cluster dto--><g id="cluster_dto"><path d="M1540.5,73.5 L1567.5,73.5 A3.75,3.75 0 0 1 1570,76 L1577,95.7969 L2375.5,95.7969 A2.5,2.5 0 0 1 2378,98.2969 L2378,547.5 A2.5,2.5 0 0 1 2375.5,550 L1540.5,550 A2.5,2.5 0 0 1 1538,547.5 L1538,76 A2.5,2.5 0 0 1 1540.5,73.5 " fill="none" style="stroke:#000000;stroke-width:1.5;"/><line style="stroke:#000000;stroke-width:1.5;" x1="1538" x2="1577" y1="95.7969" y2="95.7969"/><text fill="#000000" font-family="sans-serif" font-size="14" font-weight="bold" lengthAdjust="spacing" textLength="26" x="1542" y="88.4951">dto</text></g><!--cluster service--><g id="cluster_service"><path d="M862.5,82 L921.5,82 A3.75,3.75 0 0 1 924,84.5 L931,104.2969 L1511.5,104.2969 A2.5,2.5 0 0 1 1514,106.7969 L1514,259.5 A2.5,2.5 0 0 1 1511.5,262 L862.5,262 A2.5,2.5 0 0 1 860,259.5 L860,84.5 A2.5,2.5 0 0 1 862.5,82 " fill="none" style="stroke:#000000;stroke-width:1.5;"/><line style="stroke:#000000;stroke-width:1.5;" x1="860" x2="931" y1="104.2969" y2="104.2969"/><text fill="#000000" font-family="sans-serif" font-size="14" font-weight="bold" lengthAdjust="spacing" textLength="58" x="864" y="96.9951">service</text></g><!--cluster controller--><g id="cluster_controller"><path d="M32.5,57.5 L110.5,57.5 A3.75,3.75 0 0 1 113,60 L120,79.7969 L833.5,79.7969 A2.5,2.5 0 0 1 836,82.2969 L836,284 A2.5,2.5 0 0 1 833.5,286.5 L32.5,286.5 A2.5,2.5 0 0 1 30,284 L30,60 A2.5,2.5 0 0 1 32.5,57.5 " fill="none" style="stroke:#000000;stroke-width:1.5;"/><line style="stroke:#000000;stroke-width:1.5;" x1="30" x2="120" y1="79.7969" y2="79.7969"/><text fill="#000000" font-family="sans-serif" font-size="14" font-weight="bold" lengthAdjust="spacing" textLength="77" x="34" y="72.4951">controller</text></g><!--class Reservation--><g id="elem_Reservation"><rect codeLine="7" fill="#F1F1F1" height="194.6719" id="Reservation" rx="2.5" ry="2.5" style="stroke:#181818;stroke-width:0.5;" width="195" x="2417.5" y="84"/><ellipse cx="2469.75" cy="100" fill="#ADD1B2" rx="11" ry="11" style="stroke:#181818;stroke-width:1.0;"/><path d="M2472.7188,105.6406 Q2472.1406,105.9375 2471.5,106.0781 Q2470.8594,106.2344 2470.1563,106.2344 Q2467.6563,106.2344 2466.3281,104.5938 Q2465.0156,102.9375 2465.0156,99.8125 Q2465.0156,96.6875 2466.3281,95.0313 Q2467.6563,93.375 2470.1563,93.375 Q2470.8594,93.375 2471.5,93.5313 Q2472.1563,93.6875 2472.7188,93.9844 L2472.7188,96.7031 Q2472.0938,96.125 2471.5,95.8594 Q2470.9063,95.5781 2470.2813,95.5781 Q2468.9375,95.5781 2468.25,96.6563 Q2467.5625,97.7188 2467.5625,99.8125 Q2467.5625,101.9063 2468.25,102.9844 Q2468.9375,104.0469 2470.2813,104.0469 Q2470.9063,104.0469 2471.5,103.7813 Q2472.0938,103.5 2472.7188,102.9219 L2472.7188,105.6406 Z " fill="#000000"/><text fill="#000000" font-family="sans-serif" font-size="14" lengthAdjust="spacing" textLength="82" x="2490.25" y="104.8467">Reservation</text><line style="stroke:#181818;stroke-width:0.5;" x1="2418.5" x2="2611.5" y1="116" y2="116"/><text fill="#000000" font-family="sans-serif" font-size="14" lengthAdjust="spacing" textLength="60" x="2423.5" y="132.9951">-id: UUID</text><text fill="#000000" font-family="sans-serif" font-size="14" lengthAdjust="spacing" textLength="88" x="2423.5" y="149.292">-court: Court</text><text fill="#000000" font-family="sans-serif" font-size="14" lengthAdjust="spacing" textLength="148" x="2423.5" y="165.5889">-customer: Customer</text><text fill="#000000" font-family="sans-serif" font-size="14" lengthAdjust="spacing" textLength="181" x="2423.5" y="181.8857">-startTime: LocalDateTime</text><text fill="#000000" font-family="sans-serif" font-size="14" lengthAdjust="spacing" textLength="177" x="2423.5" y="198.1826">-endTime: LocalDateTime</text><text fill="#000000" font-family="sans-serif" font-size="14" lengthAdjust="spacing" textLength="82" x="2423.5" y="214.4795">-price: Price</text><text fill="#000000" font-family="sans-serif" font-size="14" lengthAdjust="spacing" textLength="162" x="2423.5" y="230.7764">-gameType: GameType</text><text fill="#000000" font-family="sans-serif" font-size="14" lengthAdjust="spacing" textLength="123" x="2423.5" y="247.0732">-deleted: boolean</text><text fill="#000000" font-family="sans-serif" font-size="14" lengthAdjust="spacing" textLength="183" x="2423.5" y="263.3701">-createdAt: LocalDateTime</text><line style="stroke:#181818;stroke-width:0.5;" x1="2418.5" x2="2611.5" y1="270.6719" y2="270.6719"/></g><!--class GameType--><g id="elem_GameType"><rect codeLine="19" fill="#F1F1F1" height="80.5938" id="GameType" rx="2.5" ry="2.5" style="stroke:#181818;stroke-width:0.5;" width="107" x="2647.5" y="141"/><ellipse cx="2662.5" cy="157" fill="#EB937F" rx="11" ry="11" style="stroke:#181818;stroke-width:1.0;"/><path d="M2666.6094,163 L2658.8906,163 L2658.8906,150.6094 L2666.6094,150.6094 L2666.6094,152.7656 L2661.3438,152.7656 L2661.3438,155.4375 L2666.1094,155.4375 L2666.1094,157.5938 L2661.3438,157.5938 L2661.3438,160.8438 L2666.6094,160.8438 L2666.6094,163 Z " fill="#000000"/><text fill="#000000" font-family="sans-serif" font-size="14" lengthAdjust="spacing" textLength="75" x="2676.5" y="161.8467">GameType</text><line style="stroke:#181818;stroke-width:0.5;" x1="2648.5" x2="2753.5" y1="173" y2="173"/><text fill="#000000" font-family="sans-serif" font-size="14" lengthAdjust="spacing" textLength="58" x="2653.5" y="189.9951">SINGLES</text><text fill="#000000" font-family="sans-serif" font-size="14" lengthAdjust="spacing" textLength="67" x="2653.5" y="206.292">DOUBLES</text><line style="stroke:#181818;stroke-width:0.5;" x1="2648.5" x2="2753.5" y1="213.5938" y2="213.5938"/></g><!--class ReservationsFilter--><g id="elem_ReservationsFilter"><rect codeLine="24" fill="#F1F1F1" height="96.8906" id="ReservationsFilter" rx="2.5" ry="2.5" style="stroke:#181818;stroke-width:0.5;" width="166" x="2432" y="388"/><ellipse cx="2451.95" cy="404" fill="#ADD1B2" rx="11" ry="11" style="stroke:#181818;stroke-width:1.0;"/><path d="M2454.9188,409.6406 Q2454.3406,409.9375 2453.7,410.0781 Q2453.0594,410.2344 2452.3563,410.2344 Q2449.8563,410.2344 2448.5281,408.5938 Q2447.2156,406.9375 2447.2156,403.8125 Q2447.2156,400.6875 2448.5281,399.0313 Q2449.8563,397.375 2452.3563,397.375 Q2453.0594,397.375 2453.7,397.5313 Q2454.3563,397.6875 2454.9188,397.9844 L2454.9188,400.7031 Q2454.2938,400.125 2453.7,399.8594 Q2453.1063,399.5781 2452.4813,399.5781 Q2451.1375,399.5781 2450.45,400.6563 Q2449.7625,401.7188 2449.7625,403.8125 Q2449.7625,405.9063 2450.45,406.9844 Q2451.1375,408.0469 2452.4813,408.0469 Q2453.1063,408.0469 2453.7,407.7813 Q2454.2938,407.5 2454.9188,406.9219 L2454.9188,409.6406 Z " fill="#000000"/><text fill="#000000" font-family="sans-serif" font-size="14" lengthAdjust="spacing" textLength="123" x="2467.05" y="408.8467">ReservationsFilter</text><line style="stroke:#181818;stroke-width:0.5;" x1="2433" x2="2597" y1="420" y2="420"/><text fill="#000000" font-family="sans-serif" font-size="14" lengthAdjust="spacing" textLength="96" x="2438" y="436.9951">-courtId: UUID</text><text fill="#000000" font-family="sans-serif" font-size="14" lengthAdjust="spacing" textLength="154" x="2438" y="453.292">-phoneNumber: String</text><text fill="#000000" font-family="sans-serif" font-size="14" lengthAdjust="spacing" textLength="143" x="2438" y="469.5889">-onlyFuture: boolean</text><line style="stroke:#181818;stroke-width:0.5;" x1="2433" x2="2597" y1="476.8906" y2="476.8906"/></g><!--class CreateReservationDto--><g id="elem_CreateReservationDto"><rect codeLine="32" fill="#F1F1F1" height="145.7813" id="CreateReservationDto" rx="2.5" ry="2.5" style="stroke:#181818;stroke-width:0.5;" width="232" x="1582" y="108.5"/><ellipse cx="1618.15" cy="124.5" fill="#ADD1B2" rx="11" ry="11" style="stroke:#181818;stroke-width:1.0;"/><path d="M1621.1188,130.1406 Q1620.5406,130.4375 1619.9,130.5781 Q1619.2594,130.7344 1618.5563,130.7344 Q1616.0563,130.7344 1614.7281,129.0938 Q1613.4156,127.4375 1613.4156,124.3125 Q1613.4156,121.1875 1614.7281,119.5313 Q1616.0563,117.875 1618.5563,117.875 Q1619.2594,117.875 1619.9,118.0313 Q1620.5563,118.1875 1621.1188,118.4844 L1621.1188,121.2031 Q1620.4938,120.625 1619.9,120.3594 Q1619.3063,120.0781 1618.6813,120.0781 Q1617.3375,120.0781 1616.65,121.1563 Q1615.9625,122.2188 1615.9625,124.3125 Q1615.9625,126.4063 1616.65,127.4844 Q1617.3375,128.5469 1618.6813,128.5469 Q1619.3063,128.5469 1619.9,128.2813 Q1620.4938,128 1621.1188,127.4219 L1621.1188,130.1406 Z " fill="#000000"/><text fill="#000000" font-family="sans-serif" font-size="14" lengthAdjust="spacing" textLength="153" x="1636.85" y="129.3467">CreateReservationDto</text><line style="stroke:#181818;stroke-width:0.5;" x1="1583" x2="1813" y1="140.5" y2="140.5"/><text fill="#000000" font-family="sans-serif" font-size="14" lengthAdjust="spacing" textLength="96" x="1588" y="157.4951">-courtId: UUID</text><text fill="#000000" font-family="sans-serif" font-size="14" lengthAdjust="spacing" textLength="181" x="1588" y="173.792">-startTime: LocalDateTime</text><text fill="#000000" font-family="sans-serif" font-size="14" lengthAdjust="spacing" textLength="177" x="1588" y="190.0889">-endTime: LocalDateTime</text><text fill="#000000" font-family="sans-serif" font-size="14" lengthAdjust="spacing" textLength="162" x="1588" y="206.3857">-gameType: GameType</text><text fill="#000000" font-family="sans-serif" font-size="14" lengthAdjust="spacing" textLength="220" x="1588" y="222.6826">-customerPhoneNumber: String</text><text fill="#000000" font-family="sans-serif" font-size="14" lengthAdjust="spacing" textLength="160" x="1588" y="238.9795">-customerName: String</text><line style="stroke:#181818;stroke-width:0.5;" x1="1583" x2="1813" y1="246.2813" y2="246.2813"/></g><!--class UpdateReservationDto--><g id="elem_UpdateReservationDto"><rect codeLine="41" fill="#F1F1F1" height="113.1875" id="UpdateReservationDto" rx="2.5" ry="2.5" style="stroke:#181818;stroke-width:0.5;" width="193" x="1849.5" y="125"/><ellipse cx="1866.3" cy="141" fill="#ADD1B2" rx="11" ry="11" style="stroke:#181818;stroke-width:1.0;"/><path d="M1869.2688,146.6406 Q1868.6906,146.9375 1868.05,147.0781 Q1867.4094,147.2344 1866.7063,147.2344 Q1864.2063,147.2344 1862.8781,145.5938 Q1861.5656,143.9375 1861.5656,140.8125 Q1861.5656,137.6875 1862.8781,136.0313 Q1864.2063,134.375 1866.7063,134.375 Q1867.4094,134.375 1868.05,134.5313 Q1868.7063,134.6875 1869.2688,134.9844 L1869.2688,137.7031 Q1868.6438,137.125 1868.05,136.8594 Q1867.4563,136.5781 1866.8313,136.5781 Q1865.4875,136.5781 1864.8,137.6563 Q1864.1125,138.7188 1864.1125,140.8125 Q1864.1125,142.9063 1864.8,143.9844 Q1865.4875,145.0469 1866.8313,145.0469 Q1867.4563,145.0469 1868.05,144.7813 Q1868.6438,144.5 1869.2688,143.9219 L1869.2688,146.6406 Z " fill="#000000"/><text fill="#000000" font-family="sans-serif" font-size="14" lengthAdjust="spacing" textLength="157" x="1880.7" y="145.8467">UpdateReservationDto</text><line style="stroke:#181818;stroke-width:0.5;" x1="1850.5" x2="2041.5" y1="157" y2="157"/><text fill="#000000" font-family="sans-serif" font-size="14" lengthAdjust="spacing" textLength="96" x="1855.5" y="173.9951">-courtId: UUID</text><text fill="#000000" font-family="sans-serif" font-size="14" lengthAdjust="spacing" textLength="181" x="1855.5" y="190.292">-startTime: LocalDateTime</text><text fill="#000000" font-family="sans-serif" font-size="14" lengthAdjust="spacing" textLength="177" x="1855.5" y="206.5889">-endTime: LocalDateTime</text><text fill="#000000" font-family="sans-serif" font-size="14" lengthAdjust="spacing" textLength="162" x="1855.5" y="222.8857">-gameType: GameType</text><line style="stroke:#181818;stroke-width:0.5;" x1="1850.5" x2="2041.5" y1="230.1875" y2="230.1875"/></g><!--class ReservationPreviewDto--><g id="elem_ReservationPreviewDto"><rect codeLine="48" fill="#F1F1F1" height="129.4844" id="ReservationPreviewDto" rx="2.5" ry="2.5" style="stroke:#181818;stroke-width:0.5;" width="193" x="2077.5" y="117"/><ellipse cx="2092.95" cy="133" fill="#ADD1B2" rx="11" ry="11" style="stroke:#181818;stroke-width:1.0;"/><path d="M2095.9188,138.6406 Q2095.3406,138.9375 2094.7,139.0781 Q2094.0594,139.2344 2093.3563,139.2344 Q2090.8563,139.2344 2089.5281,137.5938 Q2088.2156,135.9375 2088.2156,132.8125 Q2088.2156,129.6875 2089.5281,128.0313 Q2090.8563,126.375 2093.3563,126.375 Q2094.0594,126.375 2094.7,126.5313 Q2095.3563,126.6875 2095.9188,126.9844 L2095.9188,129.7031 Q2095.2938,129.125 2094.7,128.8594 Q2094.1063,128.5781 2093.4813,128.5781 Q2092.1375,128.5781 2091.45,129.6563 Q2090.7625,130.7188 2090.7625,132.8125 Q2090.7625,134.9063 2091.45,135.9844 Q2092.1375,137.0469 2093.4813,137.0469 Q2094.1063,137.0469 2094.7,136.7813 Q2095.2938,136.5 2095.9188,135.9219 L2095.9188,138.6406 Z " fill="#000000"/><text fill="#000000" font-family="sans-serif" font-size="14" lengthAdjust="spacing" textLength="160" x="2107.05" y="137.8467">ReservationPreviewDto</text><line style="stroke:#181818;stroke-width:0.5;" x1="2078.5" x2="2269.5" y1="149" y2="149"/><text fill="#000000" font-family="sans-serif" font-size="14" lengthAdjust="spacing" textLength="60" x="2083.5" y="165.9951">-id: UUID</text><text fill="#000000" font-family="sans-serif" font-size="14" lengthAdjust="spacing" textLength="130" x="2083.5" y="182.292">-courtName: String</text><text fill="#000000" font-family="sans-serif" font-size="14" lengthAdjust="spacing" textLength="160" x="2083.5" y="198.5889">-customerName: String</text><text fill="#000000" font-family="sans-serif" font-size="14" lengthAdjust="spacing" textLength="181" x="2083.5" y="214.8857">-startTime: LocalDateTime</text><text fill="#000000" font-family="sans-serif" font-size="14" lengthAdjust="spacing" textLength="177" x="2083.5" y="231.1826">-endTime: LocalDateTime</text><line style="stroke:#181818;stroke-width:0.5;" x1="2078.5" x2="2269.5" y1="238.4844" y2="238.4844"/></g><!--class ReservationDetailDto--><g id="elem_ReservationDetailDto"><rect codeLine="56" fill="#F1F1F1" height="194.6719" id="ReservationDetailDto" rx="2.5" ry="2.5" style="stroke:#181818;stroke-width:0.5;" width="288" x="1554" y="339"/><ellipse cx="1620.75" cy="355" fill="#ADD1B2" rx="11" ry="11" style="stroke:#181818;stroke-width:1.0;"/><path d="M1623.7188,360.6406 Q1623.1406,360.9375 1622.5,361.0781 Q1621.8594,361.2344 1621.1563,361.2344 Q1618.6563,361.2344 1617.3281,359.5938 Q1616.0156,357.9375 1616.0156,354.8125 Q1616.0156,351.6875 1617.3281,350.0313 Q1618.6563,348.375 1621.1563,348.375 Q1621.8594,348.375 1622.5,348.5313 Q1623.1563,348.6875 1623.7188,348.9844 L1623.7188,351.7031 Q1623.0938,351.125 1622.5,350.8594 Q1621.9063,350.5781 1621.2813,350.5781 Q1619.9375,350.5781 1619.25,351.6563 Q1618.5625,352.7188 1618.5625,354.8125 Q1618.5625,356.9063 1619.25,357.9844 Q1619.9375,359.0469 1621.2813,359.0469 Q1621.9063,359.0469 1622.5,358.7813 Q1623.0938,358.5 1623.7188,357.9219 L1623.7188,360.6406 Z " fill="#000000"/><text fill="#000000" font-family="sans-serif" font-size="14" lengthAdjust="spacing" textLength="146" x="1641.25" y="359.8467">ReservationDetailDto</text><line style="stroke:#181818;stroke-width:0.5;" x1="1555" x2="1841" y1="371" y2="371"/><text fill="#000000" font-family="sans-serif" font-size="14" lengthAdjust="spacing" textLength="60" x="1560" y="387.9951">-id: UUID</text><text fill="#000000" font-family="sans-serif" font-size="14" lengthAdjust="spacing" textLength="216" x="1560" y="404.292">-courtDetailDto: CourtDetailDto</text><text fill="#000000" font-family="sans-serif" font-size="14" lengthAdjust="spacing" textLength="276" x="1560" y="420.5889">-customerDetailDto: CustomerDetailDto</text><text fill="#000000" font-family="sans-serif" font-size="14" lengthAdjust="spacing" textLength="181" x="1560" y="436.8857">-startTime: LocalDateTime</text><text fill="#000000" font-family="sans-serif" font-size="14" lengthAdjust="spacing" textLength="177" x="1560" y="453.1826">-endTime: LocalDateTime</text><text fill="#000000" font-family="sans-serif" font-size="14" lengthAdjust="spacing" textLength="187" x="1560" y="469.4795">-gameType: GameTypeDto</text><text fill="#000000" font-family="sans-serif" font-size="14" lengthAdjust="spacing" textLength="82" x="1560" y="485.7764">-price: Price</text><text fill="#000000" font-family="sans-serif" font-size="14" lengthAdjust="spacing" textLength="123" x="1560" y="502.0732">-deleted: boolean</text><text fill="#000000" font-family="sans-serif" font-size="14" lengthAdjust="spacing" textLength="183" x="1560" y="518.3701">-createdAt: LocalDateTime</text><line style="stroke:#181818;stroke-width:0.5;" x1="1555" x2="1841" y1="525.6719" y2="525.6719"/></g><!--class CourtReservationListDto--><g id="elem_CourtReservationListDto"><rect codeLine="68" fill="#F1F1F1" height="80.5938" id="CourtReservationListDto" rx="2.5" ry="2.5" style="stroke:#181818;stroke-width:0.5;" width="318" x="1877" y="396"/><ellipse cx="1947.75" cy="412" fill="#ADD1B2" rx="11" ry="11" style="stroke:#181818;stroke-width:1.0;"/><path d="M1950.7188,417.6406 Q1950.1406,417.9375 1949.5,418.0781 Q1948.8594,418.2344 1948.1563,418.2344 Q1945.6563,418.2344 1944.3281,416.5938 Q1943.0156,414.9375 1943.0156,411.8125 Q1943.0156,408.6875 1944.3281,407.0313 Q1945.6563,405.375 1948.1563,405.375 Q1948.8594,405.375 1949.5,405.5313 Q1950.1563,405.6875 1950.7188,405.9844 L1950.7188,408.7031 Q1950.0938,408.125 1949.5,407.8594 Q1948.9063,407.5781 1948.2813,407.5781 Q1946.9375,407.5781 1946.25,408.6563 Q1945.5625,409.7188 1945.5625,411.8125 Q1945.5625,413.9063 1946.25,414.9844 Q1946.9375,416.0469 1948.2813,416.0469 Q1948.9063,416.0469 1949.5,415.7813 Q1950.0938,415.5 1950.7188,414.9219 L1950.7188,417.6406 Z " fill="#000000"/><text fill="#000000" font-family="sans-serif" font-size="14" lengthAdjust="spacing" textLength="168" x="1968.25" y="416.8467">CourtReservationListDto</text><line style="stroke:#181818;stroke-width:0.5;" x1="1878" x2="2194" y1="428" y2="428"/><text fill="#000000" font-family="sans-serif" font-size="14" lengthAdjust="spacing" textLength="152" x="1883" y="444.9951">-court: CourtDetailDto</text><text fill="#000000" font-family="sans-serif" font-size="14" lengthAdjust="spacing" textLength="306" x="1883" y="461.292">-reservations: List&lt;ReservationPreviewDto&gt;</text><line style="stroke:#181818;stroke-width:0.5;" x1="1878" x2="2194" y1="468.5938" y2="468.5938"/></g><!--class GameTypeDto--><g id="elem_GameTypeDto"><rect codeLine="73" fill="#F1F1F1" height="80.5938" id="GameTypeDto" rx="2.5" ry="2.5" style="stroke:#181818;stroke-width:0.5;" width="132" x="2230" y="396"/><ellipse cx="2245" cy="412" fill="#EB937F" rx="11" ry="11" style="stroke:#181818;stroke-width:1.0;"/><path d="M2249.1094,418 L2241.3906,418 L2241.3906,405.6094 L2249.1094,405.6094 L2249.1094,407.7656 L2243.8438,407.7656 L2243.8438,410.4375 L2248.6094,410.4375 L2248.6094,412.5938 L2243.8438,412.5938 L2243.8438,415.8438 L2249.1094,415.8438 L2249.1094,418 Z " fill="#000000"/><text fill="#000000" font-family="sans-serif" font-size="14" lengthAdjust="spacing" textLength="100" x="2259" y="416.8467">GameTypeDto</text><line style="stroke:#181818;stroke-width:0.5;" x1="2231" x2="2361" y1="428" y2="428"/><text fill="#000000" font-family="sans-serif" font-size="14" lengthAdjust="spacing" textLength="58" x="2236" y="444.9951">SINGLES</text><text fill="#000000" font-family="sans-serif" font-size="14" lengthAdjust="spacing" textLength="67" x="2236" y="461.292">DOUBLES</text><line style="stroke:#181818;stroke-width:0.5;" x1="2231" x2="2361" y1="468.5938" y2="468.5938"/></g><!--class ReservationService--><g id="elem_ReservationService"><rect codeLine="80" fill="#F1F1F1" height="129.4844" id="ReservationService" rx="2.5" ry="2.5" style="stroke:#181818;stroke-width:0.5;" width="623" x="875.5" y="117"/><ellipse cx="1116.75" cy="133" fill="#ADD1B2" rx="11" ry="11" style="stroke:#181818;stroke-width:1.0;"/><path d="M1119.7188,138.6406 Q1119.1406,138.9375 1118.5,139.0781 Q1117.8594,139.2344 1117.1563,139.2344 Q1114.6563,139.2344 1113.3281,137.5938 Q1112.0156,135.9375 1112.0156,132.8125 Q1112.0156,129.6875 1113.3281,128.0313 Q1114.6563,126.375 1117.1563,126.375 Q1117.8594,126.375 1118.5,126.5313 Q1119.1563,126.6875 1119.7188,126.9844 L1119.7188,129.7031 Q1119.0938,129.125 1118.5,128.8594 Q1117.9063,128.5781 1117.2813,128.5781 Q1115.9375,128.5781 1115.25,129.6563 Q1114.5625,130.7188 1114.5625,132.8125 Q1114.5625,134.9063 1115.25,135.9844 Q1115.9375,137.0469 1117.2813,137.0469 Q1117.9063,137.0469 1118.5,136.7813 Q1119.0938,136.5 1119.7188,135.9219 L1119.7188,138.6406 Z " fill="#000000"/><text fill="#000000" font-family="sans-serif" font-size="14" lengthAdjust="spacing" textLength="132" x="1137.25" y="137.8467">ReservationService</text><line style="stroke:#181818;stroke-width:0.5;" x1="876.5" x2="1497.5" y1="149" y2="149"/><line style="stroke:#181818;stroke-width:0.5;" x1="876.5" x2="1497.5" y1="157" y2="157"/><text fill="#000000" font-family="sans-serif" font-size="14" lengthAdjust="spacing" textLength="534" x="881.5" y="173.9951">+createReservation(createDto: CreateReservationDto): ReservationDetailDto</text><text fill="#000000" font-family="sans-serif" font-size="14" lengthAdjust="spacing" textLength="611" x="881.5" y="190.292">+updateReservation(id: UUID, updateDto: UpdateReservationDto): ReservationDetailDto</text><text fill="#000000" font-family="sans-serif" font-size="14" lengthAdjust="spacing" textLength="268" x="881.5" y="206.5889">+deleteReservation(id: UUID): boolean</text><text fill="#000000" font-family="sans-serif" font-size="14" lengthAdjust="spacing" textLength="366" x="881.5" y="222.8857">+getReservationById(id: UUID): ReservationDetailDto</text><text fill="#000000" font-family="sans-serif" font-size="14" lengthAdjust="spacing" textLength="513" x="881.5" y="239.1826">+getAllReservations(filter: ReservationsFilter): List&lt;ReservationDetailDto&gt;</text></g><!--class ReservationController--><g id="elem_ReservationController"><rect codeLine="90" fill="#F1F1F1" height="178.375" id="ReservationController" rx="2.5" ry="2.5" style="stroke:#181818;stroke-width:0.5;" width="775" x="45.5" y="92.5"/><ellipse cx="354.25" cy="108.5" fill="#ADD1B2" rx="11" ry="11" style="stroke:#181818;stroke-width:1.0;"/><path d="M357.2188,114.1406 Q356.6406,114.4375 356,114.5781 Q355.3594,114.7344 354.6563,114.7344 Q352.1563,114.7344 350.8281,113.0938 Q349.5156,111.4375 349.5156,108.3125 Q349.5156,105.1875 350.8281,103.5313 Q352.1563,101.875 354.6563,101.875 Q355.3594,101.875 356,102.0313 Q356.6563,102.1875 357.2188,102.4844 L357.2188,105.2031 Q356.5938,104.625 356,104.3594 Q355.4063,104.0781 354.7813,104.0781 Q353.4375,104.0781 352.75,105.1563 Q352.0625,106.2188 352.0625,108.3125 Q352.0625,110.4063 352.75,111.4844 Q353.4375,112.5469 354.7813,112.5469 Q355.4063,112.5469 356,112.2813 Q356.5938,112 357.2188,111.4219 L357.2188,114.1406 Z " fill="#000000"/><text fill="#000000" font-family="sans-serif" font-size="14" lengthAdjust="spacing" textLength="149" x="374.75" y="113.3467">ReservationController</text><line style="stroke:#181818;stroke-width:0.5;" x1="46.5" x2="819.5" y1="124.5" y2="124.5"/><line style="stroke:#181818;stroke-width:0.5;" x1="46.5" x2="819.5" y1="132.5" y2="132.5"/><text fill="#000000" font-family="sans-serif" font-size="14" lengthAdjust="spacing" textLength="534" x="51.5" y="149.4951">+createReservation(createDto: CreateReservationDto): ReservationDetailDto</text><text fill="#000000" font-family="sans-serif" font-size="14" lengthAdjust="spacing" textLength="611" x="51.5" y="165.792">+updateReservation(id: UUID, updateDto: UpdateReservationDto): ReservationDetailDto</text><text fill="#000000" font-family="sans-serif" font-size="14" lengthAdjust="spacing" textLength="268" x="51.5" y="182.0889">+deleteReservation(id: UUID): boolean</text><text fill="#000000" font-family="sans-serif" font-size="14" lengthAdjust="spacing" textLength="366" x="51.5" y="198.3857">+getReservationById(id: UUID): ReservationDetailDto</text><text fill="#000000" font-family="sans-serif" font-size="14" lengthAdjust="spacing" textLength="352" x="51.5" y="214.6826">+getAllReservations(): List&lt;ReservationDetailDto&gt;</text><text fill="#000000" font-family="sans-serif" font-size="14" lengthAdjust="spacing" textLength="4" x="51.5" y="230.9795">&#160;</text><text fill="#000000" font-family="sans-serif" font-size="14" lengthAdjust="spacing" textLength="441" x="51.5" y="247.2764">+getCourtReservations(courtId: UUID): CourtReservationListDto</text><text fill="#000000" font-family="sans-serif" font-size="14" lengthAdjust="spacing" textLength="763" x="51.5" y="263.5732">+getReservationsByPhoneNumber(phoneNumber: String, onlyFuture: boolean): List&lt;ReservationPreviewDto&gt;</text></g><!--SRC=[xLNDRjim33x7Jo7avA0TiBCn5CZFMXW8ic1f7a2nsKoeR1cot24R-kxJVsLRJh5Xm2xBnH59aH_vYMJxJEe6SroXWkAsNGh1oQaJa1UiFf0VW3ucIOEBPtm6DFyABV0NB0Yhv-Xdaioyfc8bK2MR8UC81RP6ZD07HCeC7O_vnfqBrd6HeRNwU5dN2bO1bsBxpsbQWRbu91LaQCiAJ3TOW3ewFTJb5Mt3II5rU_LniZEkuF7IIF63_USqCXqG8E6U6AE0Qu-EW_HRBaKaockIA2EekyhxaxaZ_JlakuVjvuCzRRuSL-vahutArjuJAe1R3pDRhToLq0gRRwo6NLUTLCKEahtwx5IiffVxJdGStj8m0MrGJryfc2PlPa2iTP81b8rWMZq2eKNJl2Zj52jA5wk_3cAPtqUIwndiiFBiDJ8hbyEnAVzX3W6G0CAUmmk1xm4IqWEXSGrIcaxspr77qMr0O4AlW_CsjcdzkOyqD1kA_dwzlTD-Yol9k8qrpCac3akZ4mpgioMj63wYU1buqCGoXBptAVeAxap0qT0mKTwV6yCsLY5awdDxUSJmmUZTFBwnXGWiKYCnp4Mcm2ABlXZdhnisNUhUqAtLQS-ntdp7io4ovdancD4tw0mXRQjBNeR6rwB8cqjAmncSFkaXd4K6ys9ChNTuP_R1a22vL0Ldb0AVv6ZjJVxJz1iqNISZk3ZiwZRjROD5DjNtSTZjwX8igJIoZMzZUtXnVIoyjVThyWi0]--></g></svg>