<?xml version="1.0" encoding="us-ascii" standalone="no"?><svg xmlns="http://www.w3.org/2000/svg" xmlns:xlink="http://www.w3.org/1999/xlink" contentStyleType="text/css" height="433px" preserveAspectRatio="none" style="width:2011px;height:433px;background:#FFFFFF;" version="1.1" viewBox="0 0 2011 433" width="2011px" zoomAndPan="magnify"><defs/><g><!--cluster SurfaceType--><g id="cluster_SurfaceType"><path d="M8.5,6 L109.5,6 A3.75,3.75 0 0 1 112,8.5 L119,28.2969 L2001.5,28.2969 A2.5,2.5 0 0 1 2004,30.7969 L2004,423.5 A2.5,2.5 0 0 1 2001.5,426 L8.5,426 A2.5,2.5 0 0 1 6,423.5 L6,8.5 A2.5,2.5 0 0 1 8.5,6 " fill="none" style="stroke:#000000;stroke-width:1.5;"/><line style="stroke:#000000;stroke-width:1.5;" x1="6" x2="119" y1="28.2969" y2="28.2969"/><text fill="#000000" font-family="sans-serif" font-size="14" font-weight="bold" lengthAdjust="spacing" textLength="100" x="10" y="20.9951">SurfaceType</text></g><!--cluster model--><g id="cluster_model"><path d="M1786.5,57 L1835.5,57 A3.75,3.75 0 0 1 1838,59.5 L1845,79.2969 L1977.5,79.2969 A2.5,2.5 0 0 1 1980,81.7969 L1980,218.5 A2.5,2.5 0 0 1 1977.5,221 L1786.5,221 A2.5,2.5 0 0 1 1784,218.5 L1784,59.5 A2.5,2.5 0 0 1 1786.5,57 " fill="none" style="stroke:#000000;stroke-width:1.5;"/><line style="stroke:#000000;stroke-width:1.5;" x1="1784" x2="1845" y1="79.2969" y2="79.2969"/><text fill="#000000" font-family="sans-serif" font-size="14" font-weight="bold" lengthAdjust="spacing" textLength="48" x="1788" y="71.9951">model</text></g><!--cluster dto--><g id="cluster_dto"><path d="M1312.5,73 L1339.5,73 A3.75,3.75 0 0 1 1342,75.5 L1349,95.2969 L1757.5,95.2969 A2.5,2.5 0 0 1 1760,97.7969 L1760,399.5 A2.5,2.5 0 0 1 1757.5,402 L1312.5,402 A2.5,2.5 0 0 1 1310,399.5 L1310,75.5 A2.5,2.5 0 0 1 1312.5,73 " fill="none" style="stroke:#000000;stroke-width:1.5;"/><line style="stroke:#000000;stroke-width:1.5;" x1="1310" x2="1349" y1="95.2969" y2="95.2969"/><text fill="#000000" font-family="sans-serif" font-size="14" font-weight="bold" lengthAdjust="spacing" textLength="26" x="1314" y="87.9951">dto</text></g><!--cluster service--><g id="cluster_service"><path d="M672.5,49 L731.5,49 A3.75,3.75 0 0 1 734,51.5 L741,71.2969 L1283.5,71.2969 A2.5,2.5 0 0 1 1286,73.7969 L1286,226.5 A2.5,2.5 0 0 1 1283.5,229 L672.5,229 A2.5,2.5 0 0 1 670,226.5 L670,51.5 A2.5,2.5 0 0 1 672.5,49 " fill="none" style="stroke:#000000;stroke-width:1.5;"/><line style="stroke:#000000;stroke-width:1.5;" x1="670" x2="741" y1="71.2969" y2="71.2969"/><text fill="#000000" font-family="sans-serif" font-size="14" font-weight="bold" lengthAdjust="spacing" textLength="58" x="674" y="63.9951">service</text></g><!--cluster controller--><g id="cluster_controller"><path d="M32.5,49 L110.5,49 A3.75,3.75 0 0 1 113,51.5 L120,71.2969 L643.5,71.2969 A2.5,2.5 0 0 1 646,73.7969 L646,226.5 A2.5,2.5 0 0 1 643.5,229 L32.5,229 A2.5,2.5 0 0 1 30,226.5 L30,51.5 A2.5,2.5 0 0 1 32.5,49 " fill="none" style="stroke:#000000;stroke-width:1.5;"/><line style="stroke:#000000;stroke-width:1.5;" x1="30" x2="120" y1="71.2969" y2="71.2969"/><text fill="#000000" font-family="sans-serif" font-size="14" font-weight="bold" lengthAdjust="spacing" textLength="77" x="34" y="63.9951">controller</text></g><!--class SurfaceType--><g id="elem_SurfaceType"><rect codeLine="7" fill="#F1F1F1" height="113.1875" id="SurfaceType" rx="2.5" ry="2.5" style="stroke:#181818;stroke-width:0.5;" width="164" x="1800" y="92"/><ellipse cx="1835.7" cy="108" fill="#ADD1B2" rx="11" ry="11" style="stroke:#181818;stroke-width:1.0;"/><path d="M1838.6688,113.6406 Q1838.0906,113.9375 1837.45,114.0781 Q1836.8094,114.2344 1836.1063,114.2344 Q1833.6063,114.2344 1832.2781,112.5938 Q1830.9656,110.9375 1830.9656,107.8125 Q1830.9656,104.6875 1832.2781,103.0313 Q1833.6063,101.375 1836.1063,101.375 Q1836.8094,101.375 1837.45,101.5313 Q1838.1063,101.6875 1838.6688,101.9844 L1838.6688,104.7031 Q1838.0438,104.125 1837.45,103.8594 Q1836.8563,103.5781 1836.2313,103.5781 Q1834.8875,103.5781 1834.2,104.6563 Q1833.5125,105.7188 1833.5125,107.8125 Q1833.5125,109.9063 1834.2,110.9844 Q1834.8875,112.0469 1836.2313,112.0469 Q1836.8563,112.0469 1837.45,111.7813 Q1838.0438,111.5 1838.6688,110.9219 L1838.6688,113.6406 Z " fill="#000000"/><text fill="#000000" font-family="sans-serif" font-size="14" lengthAdjust="spacing" textLength="86" x="1854.3" y="112.8467">SurfaceType</text><line style="stroke:#181818;stroke-width:0.5;" x1="1801" x2="1963" y1="124" y2="124"/><text fill="#000000" font-family="sans-serif" font-size="14" lengthAdjust="spacing" textLength="60" x="1806" y="140.9951">-id: UUID</text><text fill="#000000" font-family="sans-serif" font-size="14" lengthAdjust="spacing" textLength="93" x="1806" y="157.292">-name: String</text><text fill="#000000" font-family="sans-serif" font-size="14" lengthAdjust="spacing" textLength="152" x="1806" y="173.5889">-pricePerMinute: Price</text><text fill="#000000" font-family="sans-serif" font-size="14" lengthAdjust="spacing" textLength="123" x="1806" y="189.8857">-deleted: boolean</text><line style="stroke:#181818;stroke-width:0.5;" x1="1801" x2="1963" y1="197.1875" y2="197.1875"/></g><!--class CreateSurfaceTypeDto--><g id="elem_CreateSurfaceTypeDto"><rect codeLine="16" fill="#F1F1F1" height="80.5938" id="CreateSurfaceTypeDto" rx="2.5" ry="2.5" style="stroke:#181818;stroke-width:0.5;" width="189" x="1326.5" y="108"/><ellipse cx="1341.5" cy="124" fill="#ADD1B2" rx="11" ry="11" style="stroke:#181818;stroke-width:1.0;"/><path d="M1344.4688,129.6406 Q1343.8906,129.9375 1343.25,130.0781 Q1342.6094,130.2344 1341.9063,130.2344 Q1339.4063,130.2344 1338.0781,128.5938 Q1336.7656,126.9375 1336.7656,123.8125 Q1336.7656,120.6875 1338.0781,119.0313 Q1339.4063,117.375 1341.9063,117.375 Q1342.6094,117.375 1343.25,117.5313 Q1343.9063,117.6875 1344.4688,117.9844 L1344.4688,120.7031 Q1343.8438,120.125 1343.25,119.8594 Q1342.6563,119.5781 1342.0313,119.5781 Q1340.6875,119.5781 1340,120.6563 Q1339.3125,121.7188 1339.3125,123.8125 Q1339.3125,125.9063 1340,126.9844 Q1340.6875,128.0469 1342.0313,128.0469 Q1342.6563,128.0469 1343.25,127.7813 Q1343.8438,127.5 1344.4688,126.9219 L1344.4688,129.6406 Z " fill="#000000"/><text fill="#000000" font-family="sans-serif" font-size="14" lengthAdjust="spacing" textLength="157" x="1355.5" y="128.8467">CreateSurfaceTypeDto</text><line style="stroke:#181818;stroke-width:0.5;" x1="1327.5" x2="1514.5" y1="140" y2="140"/><text fill="#000000" font-family="sans-serif" font-size="14" lengthAdjust="spacing" textLength="93" x="1332.5" y="156.9951">-name: String</text><text fill="#000000" font-family="sans-serif" font-size="14" lengthAdjust="spacing" textLength="152" x="1332.5" y="173.292">-pricePerMinute: Price</text><line style="stroke:#181818;stroke-width:0.5;" x1="1327.5" x2="1514.5" y1="180.5938" y2="180.5938"/></g><!--class UpdateSurfaceTypeDto--><g id="elem_UpdateSurfaceTypeDto"><rect codeLine="21" fill="#F1F1F1" height="80.5938" id="UpdateSurfaceTypeDto" rx="2.5" ry="2.5" style="stroke:#181818;stroke-width:0.5;" width="193" x="1550.5" y="108"/><ellipse cx="1565.5" cy="124" fill="#ADD1B2" rx="11" ry="11" style="stroke:#181818;stroke-width:1.0;"/><path d="M1568.4688,129.6406 Q1567.8906,129.9375 1567.25,130.0781 Q1566.6094,130.2344 1565.9063,130.2344 Q1563.4063,130.2344 1562.0781,128.5938 Q1560.7656,126.9375 1560.7656,123.8125 Q1560.7656,120.6875 1562.0781,119.0313 Q1563.4063,117.375 1565.9063,117.375 Q1566.6094,117.375 1567.25,117.5313 Q1567.9063,117.6875 1568.4688,117.9844 L1568.4688,120.7031 Q1567.8438,120.125 1567.25,119.8594 Q1566.6563,119.5781 1566.0313,119.5781 Q1564.6875,119.5781 1564,120.6563 Q1563.3125,121.7188 1563.3125,123.8125 Q1563.3125,125.9063 1564,126.9844 Q1564.6875,128.0469 1566.0313,128.0469 Q1566.6563,128.0469 1567.25,127.7813 Q1567.8438,127.5 1568.4688,126.9219 L1568.4688,129.6406 Z " fill="#000000"/><text fill="#000000" font-family="sans-serif" font-size="14" lengthAdjust="spacing" textLength="161" x="1579.5" y="128.8467">UpdateSurfaceTypeDto</text><line style="stroke:#181818;stroke-width:0.5;" x1="1551.5" x2="1742.5" y1="140" y2="140"/><text fill="#000000" font-family="sans-serif" font-size="14" lengthAdjust="spacing" textLength="93" x="1556.5" y="156.9951">-name: String</text><text fill="#000000" font-family="sans-serif" font-size="14" lengthAdjust="spacing" textLength="152" x="1556.5" y="173.292">-pricePerMinute: Price</text><line style="stroke:#181818;stroke-width:0.5;" x1="1551.5" x2="1742.5" y1="180.5938" y2="180.5938"/></g><!--class SurfaceTypeDetailDto--><g id="elem_SurfaceTypeDetailDto"><rect codeLine="26" fill="#F1F1F1" height="113.1875" id="SurfaceTypeDetailDto" rx="2.5" ry="2.5" style="stroke:#181818;stroke-width:0.5;" width="182" x="1330" y="273"/><ellipse cx="1345" cy="289" fill="#ADD1B2" rx="11" ry="11" style="stroke:#181818;stroke-width:1.0;"/><path d="M1347.9688,294.6406 Q1347.3906,294.9375 1346.75,295.0781 Q1346.1094,295.2344 1345.4063,295.2344 Q1342.9063,295.2344 1341.5781,293.5938 Q1340.2656,291.9375 1340.2656,288.8125 Q1340.2656,285.6875 1341.5781,284.0313 Q1342.9063,282.375 1345.4063,282.375 Q1346.1094,282.375 1346.75,282.5313 Q1347.4063,282.6875 1347.9688,282.9844 L1347.9688,285.7031 Q1347.3438,285.125 1346.75,284.8594 Q1346.1563,284.5781 1345.5313,284.5781 Q1344.1875,284.5781 1343.5,285.6563 Q1342.8125,286.7188 1342.8125,288.8125 Q1342.8125,290.9063 1343.5,291.9844 Q1344.1875,293.0469 1345.5313,293.0469 Q1346.1563,293.0469 1346.75,292.7813 Q1347.3438,292.5 1347.9688,291.9219 L1347.9688,294.6406 Z " fill="#000000"/><text fill="#000000" font-family="sans-serif" font-size="14" lengthAdjust="spacing" textLength="150" x="1359" y="293.8467">SurfaceTypeDetailDto</text><line style="stroke:#181818;stroke-width:0.5;" x1="1331" x2="1511" y1="305" y2="305"/><text fill="#000000" font-family="sans-serif" font-size="14" lengthAdjust="spacing" textLength="60" x="1336" y="321.9951">-id: UUID</text><text fill="#000000" font-family="sans-serif" font-size="14" lengthAdjust="spacing" textLength="93" x="1336" y="338.292">-name: String</text><text fill="#000000" font-family="sans-serif" font-size="14" lengthAdjust="spacing" textLength="152" x="1336" y="354.5889">-pricePerMinute: Price</text><text fill="#000000" font-family="sans-serif" font-size="14" lengthAdjust="spacing" textLength="123" x="1336" y="370.8857">-deleted: boolean</text><line style="stroke:#181818;stroke-width:0.5;" x1="1331" x2="1511" y1="378.1875" y2="378.1875"/></g><!--class SurfaceTypeService--><g id="elem_SurfaceTypeService"><rect codeLine="35" fill="#F1F1F1" height="129.4844" id="SurfaceTypeService" rx="2.5" ry="2.5" style="stroke:#181818;stroke-width:0.5;" width="584" x="686" y="84"/><ellipse cx="905.75" cy="100" fill="#ADD1B2" rx="11" ry="11" style="stroke:#181818;stroke-width:1.0;"/><path d="M908.7188,105.6406 Q908.1406,105.9375 907.5,106.0781 Q906.8594,106.2344 906.1563,106.2344 Q903.6563,106.2344 902.3281,104.5938 Q901.0156,102.9375 901.0156,99.8125 Q901.0156,96.6875 902.3281,95.0313 Q903.6563,93.375 906.1563,93.375 Q906.8594,93.375 907.5,93.5313 Q908.1563,93.6875 908.7188,93.9844 L908.7188,96.7031 Q908.0938,96.125 907.5,95.8594 Q906.9063,95.5781 906.2813,95.5781 Q904.9375,95.5781 904.25,96.6563 Q903.5625,97.7188 903.5625,99.8125 Q903.5625,101.9063 904.25,102.9844 Q904.9375,104.0469 906.2813,104.0469 Q906.9063,104.0469 907.5,103.7813 Q908.0938,103.5 908.7188,102.9219 L908.7188,105.6406 Z " fill="#000000"/><text fill="#000000" font-family="sans-serif" font-size="14" lengthAdjust="spacing" textLength="136" x="926.25" y="104.8467">SurfaceTypeService</text><line style="stroke:#181818;stroke-width:0.5;" x1="687" x2="1269" y1="116" y2="116"/><line style="stroke:#181818;stroke-width:0.5;" x1="687" x2="1269" y1="124" y2="124"/><text fill="#000000" font-family="sans-serif" font-size="14" lengthAdjust="spacing" textLength="500" x="692" y="140.9951">+createSurfaceType(dto: CreateSurfaceTypeDto): SurfaceTypeDetailDto</text><text fill="#000000" font-family="sans-serif" font-size="14" lengthAdjust="spacing" textLength="572" x="692" y="157.292">+updateSurfaceType(id: UUID, dto: UpdateSurfaceTypeDto): SurfaceTypeDetailDto</text><text fill="#000000" font-family="sans-serif" font-size="14" lengthAdjust="spacing" textLength="374" x="692" y="173.5889">+getSurfaceTypeById(id: UUID): SurfaceTypeDetailDto</text><text fill="#000000" font-family="sans-serif" font-size="14" lengthAdjust="spacing" textLength="360" x="692" y="189.8857">+getAllSurfaceTypes(): List&lt;SurfaceTypeDetailDto&gt;</text><text fill="#000000" font-family="sans-serif" font-size="14" lengthAdjust="spacing" textLength="272" x="692" y="206.1826">+deleteSurfaceType(id: UUID): boolean</text></g><!--class SurfaceTypeController--><g id="elem_SurfaceTypeController"><rect codeLine="45" fill="#F1F1F1" height="129.4844" id="SurfaceTypeController" rx="2.5" ry="2.5" style="stroke:#181818;stroke-width:0.5;" width="584" x="46" y="84"/><ellipse cx="257.25" cy="100" fill="#ADD1B2" rx="11" ry="11" style="stroke:#181818;stroke-width:1.0;"/><path d="M260.2188,105.6406 Q259.6406,105.9375 259,106.0781 Q258.3594,106.2344 257.6563,106.2344 Q255.1563,106.2344 253.8281,104.5938 Q252.5156,102.9375 252.5156,99.8125 Q252.5156,96.6875 253.8281,95.0313 Q255.1563,93.375 257.6563,93.375 Q258.3594,93.375 259,93.5313 Q259.6563,93.6875 260.2188,93.9844 L260.2188,96.7031 Q259.5938,96.125 259,95.8594 Q258.4063,95.5781 257.7813,95.5781 Q256.4375,95.5781 255.75,96.6563 Q255.0625,97.7188 255.0625,99.8125 Q255.0625,101.9063 255.75,102.9844 Q256.4375,104.0469 257.7813,104.0469 Q258.4063,104.0469 259,103.7813 Q259.5938,103.5 260.2188,102.9219 L260.2188,105.6406 Z " fill="#000000"/><text fill="#000000" font-family="sans-serif" font-size="14" lengthAdjust="spacing" textLength="153" x="277.75" y="104.8467">SurfaceTypeController</text><line style="stroke:#181818;stroke-width:0.5;" x1="47" x2="629" y1="116" y2="116"/><line style="stroke:#181818;stroke-width:0.5;" x1="47" x2="629" y1="124" y2="124"/><text fill="#000000" font-family="sans-serif" font-size="14" lengthAdjust="spacing" textLength="500" x="52" y="140.9951">+createSurfaceType(dto: CreateSurfaceTypeDto): SurfaceTypeDetailDto</text><text fill="#000000" font-family="sans-serif" font-size="14" lengthAdjust="spacing" textLength="572" x="52" y="157.292">+updateSurfaceType(id: UUID, dto: UpdateSurfaceTypeDto): SurfaceTypeDetailDto</text><text fill="#000000" font-family="sans-serif" font-size="14" lengthAdjust="spacing" textLength="374" x="52" y="173.5889">+getSurfaceTypeById(id: UUID): SurfaceTypeDetailDto</text><text fill="#000000" font-family="sans-serif" font-size="14" lengthAdjust="spacing" textLength="360" x="52" y="189.8857">+getAllSurfaceTypes(): List&lt;SurfaceTypeDetailDto&gt;</text><text fill="#000000" font-family="sans-serif" font-size="14" lengthAdjust="spacing" textLength="272" x="52" y="206.1826">+deleteSurfaceType(id: UUID): boolean</text></g><!--SRC=[xPFHIiCm58QlawSuxAf31Q-B27ExAIWCQXyWIuybB4rAcWfJ-kwcBSQiYnC6kpDtEVyv__dpGTgzK0qph0OkMTkkh3LYrrdCk5Qv-42ufxHXVCygX4NUcJV6yVNGu08-AILUgNM9SgWHc8mWw7Lb6CyTY3A5eiWslg1OZIdaRgkgVB4nWkCMpOjGBaeAs-7kLRS9BJgZdTOIcHg5df8-35HQVHHdRP1P349jh9xqanJaN0WohFgnBPho6hQX8Lecv96jXtZ9cYX1SWgmHVFkHaQ8v2HLFgcZI6w0p-acZdyQXRvCew-RVBevpkJxhRSmEiPudtMiq0RYqo4hlULVSoif0xrDNF-pQEr3REXncfh0nl8l0zXapjhzDMkqb6X-mRts3V_4BoVUqoy0]--></g></svg>