<?xml version="1.0" encoding="us-ascii" standalone="no"?><svg xmlns="http://www.w3.org/2000/svg" xmlns:xlink="http://www.w3.org/1999/xlink" contentStyleType="text/css" height="581px" preserveAspectRatio="none" style="width:2834px;height:581px;background:#FFFFFF;" version="1.1" viewBox="0 0 2834 581" width="2834px" zoomAndPan="magnify"><defs/><g><!--cluster Reservation--><g id="cluster_Reservation"><path d="M8.5,6 L103.5,6 A3.75,3.75 0 0 1 106,8.5 L113,28.2969 L2824.5,28.2969 A2.5,2.5 0 0 1 2827,30.7969 L2827,571.5 A2.5,2.5 0 0 1 2824.5,574 L8.5,574 A2.5,2.5 0 0 1 6,571.5 L6,8.5 A2.5,2.5 0 0 1 8.5,6 " fill="none" style="stroke:#000000;stroke-width:1.5;"/><line style="stroke:#000000;stroke-width:1.5;" x1="6" x2="113" y1="28.2969" y2="28.2969"/><text fill="#000000" font-family="sans-serif" font-size="14" font-weight="bold" lengthAdjust="spacing" textLength="94" x="10" y="20.9951">Reservation</text></g><!--cluster model--><g id="cluster_model"><path d="M2437.5,49 L2486.5,49 A3.75,3.75 0 0 1 2489,51.5 L2496,71.2969 L2800.5,71.2969 A2.5,2.5 0 0 1 2803,73.7969 L2803,292.5 A2.5,2.5 0 0 1 2800.5,295 L2437.5,295 A2.5,2.5 0 0 1 2435,292.5 L2435,51.5 A2.5,2.5 0 0 1 2437.5,49 " fill="none" style="stroke:#000000;stroke-width:1.5;"/><line style="stroke:#000000;stroke-width:1.5;" x1="2435" x2="2496" y1="71.2969" y2="71.2969"/><text fill="#000000" font-family="sans-serif" font-size="14" font-weight="bold" lengthAdjust="spacing" textLength="48" x="2439" y="63.9951">model</text></g><!--cluster dto--><g id="cluster_dto"><path d="M1692.5,73.5 L1719.5,73.5 A3.75,3.75 0 0 1 1722,76 L1729,95.7969 L2408.5,95.7969 A2.5,2.5 0 0 1 2411,98.2969 L2411,547.5 A2.5,2.5 0 0 1 2408.5,550 L1692.5,550 A2.5,2.5 0 0 1 1690,547.5 L1690,76 A2.5,2.5 0 0 1 1692.5,73.5 " fill="none" style="stroke:#000000;stroke-width:1.5;"/><line style="stroke:#000000;stroke-width:1.5;" x1="1690" x2="1729" y1="95.7969" y2="95.7969"/><text fill="#000000" font-family="sans-serif" font-size="14" font-weight="bold" lengthAdjust="spacing" textLength="26" x="1694" y="88.4951">dto</text></g><!--cluster service--><g id="cluster_service"><path d="M862.5,57.5 L921.5,57.5 A3.75,3.75 0 0 1 924,60 L931,79.7969 L1663.5,79.7969 A2.5,2.5 0 0 1 1666,82.2969 L1666,284 A2.5,2.5 0 0 1 1663.5,286.5 L862.5,286.5 A2.5,2.5 0 0 1 860,284 L860,60 A2.5,2.5 0 0 1 862.5,57.5 " fill="none" style="stroke:#000000;stroke-width:1.5;"/><line style="stroke:#000000;stroke-width:1.5;" x1="860" x2="931" y1="79.7969" y2="79.7969"/><text fill="#000000" font-family="sans-serif" font-size="14" font-weight="bold" lengthAdjust="spacing" textLength="58" x="864" y="72.4951">service</text></g><!--cluster controller--><g id="cluster_controller"><path d="M32.5,57.5 L110.5,57.5 A3.75,3.75 0 0 1 113,60 L120,79.7969 L833.5,79.7969 A2.5,2.5 0 0 1 836,82.2969 L836,284 A2.5,2.5 0 0 1 833.5,286.5 L32.5,286.5 A2.5,2.5 0 0 1 30,284 L30,60 A2.5,2.5 0 0 1 32.5,57.5 " fill="none" style="stroke:#000000;stroke-width:1.5;"/><line style="stroke:#000000;stroke-width:1.5;" x1="30" x2="120" y1="79.7969" y2="79.7969"/><text fill="#000000" font-family="sans-serif" font-size="14" font-weight="bold" lengthAdjust="spacing" textLength="77" x="34" y="72.4951">controller</text></g><!--class Reservation--><g id="elem_Reservation"><rect codeLine="7" fill="#F1F1F1" height="194.6719" id="Reservation" rx="2.5" ry="2.5" style="stroke:#181818;stroke-width:0.5;" width="195" x="2592.5" y="84"/><ellipse cx="2644.75" cy="100" fill="#ADD1B2" rx="11" ry="11" style="stroke:#181818;stroke-width:1.0;"/><path d="M2647.7188,105.6406 Q2647.1406,105.9375 2646.5,106.0781 Q2645.8594,106.2344 2645.1563,106.2344 Q2642.6563,106.2344 2641.3281,104.5938 Q2640.0156,102.9375 2640.0156,99.8125 Q2640.0156,96.6875 2641.3281,95.0313 Q2642.6563,93.375 2645.1563,93.375 Q2645.8594,93.375 2646.5,93.5313 Q2647.1563,93.6875 2647.7188,93.9844 L2647.7188,96.7031 Q2647.0938,96.125 2646.5,95.8594 Q2645.9063,95.5781 2645.2813,95.5781 Q2643.9375,95.5781 2643.25,96.6563 Q2642.5625,97.7188 2642.5625,99.8125 Q2642.5625,101.9063 2643.25,102.9844 Q2643.9375,104.0469 2645.2813,104.0469 Q2645.9063,104.0469 2646.5,103.7813 Q2647.0938,103.5 2647.7188,102.9219 L2647.7188,105.6406 Z " fill="#000000"/><text fill="#000000" font-family="sans-serif" font-size="14" lengthAdjust="spacing" textLength="82" x="2665.25" y="104.8467">Reservation</text><line style="stroke:#181818;stroke-width:0.5;" x1="2593.5" x2="2786.5" y1="116" y2="116"/><text fill="#000000" font-family="sans-serif" font-size="14" lengthAdjust="spacing" textLength="60" x="2598.5" y="132.9951">-id: UUID</text><text fill="#000000" font-family="sans-serif" font-size="14" lengthAdjust="spacing" textLength="88" x="2598.5" y="149.292">-court: Court</text><text fill="#000000" font-family="sans-serif" font-size="14" lengthAdjust="spacing" textLength="148" x="2598.5" y="165.5889">-customer: Customer</text><text fill="#000000" font-family="sans-serif" font-size="14" lengthAdjust="spacing" textLength="181" x="2598.5" y="181.8857">-startTime: LocalDateTime</text><text fill="#000000" font-family="sans-serif" font-size="14" lengthAdjust="spacing" textLength="177" x="2598.5" y="198.1826">-endTime: LocalDateTime</text><text fill="#000000" font-family="sans-serif" font-size="14" lengthAdjust="spacing" textLength="82" x="2598.5" y="214.4795">-price: Price</text><text fill="#000000" font-family="sans-serif" font-size="14" lengthAdjust="spacing" textLength="162" x="2598.5" y="230.7764">-gameType: GameType</text><text fill="#000000" font-family="sans-serif" font-size="14" lengthAdjust="spacing" textLength="123" x="2598.5" y="247.0732">-deleted: boolean</text><text fill="#000000" font-family="sans-serif" font-size="14" lengthAdjust="spacing" textLength="183" x="2598.5" y="263.3701">-createdAt: LocalDateTime</text><line style="stroke:#181818;stroke-width:0.5;" x1="2593.5" x2="2786.5" y1="270.6719" y2="270.6719"/></g><!--class GameType--><g id="elem_GameType"><rect codeLine="19" fill="#F1F1F1" height="80.5938" id="GameType" rx="2.5" ry="2.5" style="stroke:#181818;stroke-width:0.5;" width="107" x="2450.5" y="141"/><ellipse cx="2465.5" cy="157" fill="#EB937F" rx="11" ry="11" style="stroke:#181818;stroke-width:1.0;"/><path d="M2469.6094,163 L2461.8906,163 L2461.8906,150.6094 L2469.6094,150.6094 L2469.6094,152.7656 L2464.3438,152.7656 L2464.3438,155.4375 L2469.1094,155.4375 L2469.1094,157.5938 L2464.3438,157.5938 L2464.3438,160.8438 L2469.6094,160.8438 L2469.6094,163 Z " fill="#000000"/><text fill="#000000" font-family="sans-serif" font-size="14" lengthAdjust="spacing" textLength="75" x="2479.5" y="161.8467">GameType</text><line style="stroke:#181818;stroke-width:0.5;" x1="2451.5" x2="2556.5" y1="173" y2="173"/><text fill="#000000" font-family="sans-serif" font-size="14" lengthAdjust="spacing" textLength="58" x="2456.5" y="189.9951">SINGLES</text><text fill="#000000" font-family="sans-serif" font-size="14" lengthAdjust="spacing" textLength="67" x="2456.5" y="206.292">DOUBLES</text><line style="stroke:#181818;stroke-width:0.5;" x1="2451.5" x2="2556.5" y1="213.5938" y2="213.5938"/></g><!--class CreateReservationDto--><g id="elem_CreateReservationDto"><rect codeLine="26" fill="#F1F1F1" height="145.7813" id="CreateReservationDto" rx="2.5" ry="2.5" style="stroke:#181818;stroke-width:0.5;" width="232" x="1706" y="108.5"/><ellipse cx="1742.15" cy="124.5" fill="#ADD1B2" rx="11" ry="11" style="stroke:#181818;stroke-width:1.0;"/><path d="M1745.1188,130.1406 Q1744.5406,130.4375 1743.9,130.5781 Q1743.2594,130.7344 1742.5563,130.7344 Q1740.0563,130.7344 1738.7281,129.0938 Q1737.4156,127.4375 1737.4156,124.3125 Q1737.4156,121.1875 1738.7281,119.5313 Q1740.0563,117.875 1742.5563,117.875 Q1743.2594,117.875 1743.9,118.0313 Q1744.5563,118.1875 1745.1188,118.4844 L1745.1188,121.2031 Q1744.4938,120.625 1743.9,120.3594 Q1743.3063,120.0781 1742.6813,120.0781 Q1741.3375,120.0781 1740.65,121.1563 Q1739.9625,122.2188 1739.9625,124.3125 Q1739.9625,126.4063 1740.65,127.4844 Q1741.3375,128.5469 1742.6813,128.5469 Q1743.3063,128.5469 1743.9,128.2813 Q1744.4938,128 1745.1188,127.4219 L1745.1188,130.1406 Z " fill="#000000"/><text fill="#000000" font-family="sans-serif" font-size="14" lengthAdjust="spacing" textLength="153" x="1760.85" y="129.3467">CreateReservationDto</text><line style="stroke:#181818;stroke-width:0.5;" x1="1707" x2="1937" y1="140.5" y2="140.5"/><text fill="#000000" font-family="sans-serif" font-size="14" lengthAdjust="spacing" textLength="96" x="1712" y="157.4951">-courtId: UUID</text><text fill="#000000" font-family="sans-serif" font-size="14" lengthAdjust="spacing" textLength="181" x="1712" y="173.792">-startTime: LocalDateTime</text><text fill="#000000" font-family="sans-serif" font-size="14" lengthAdjust="spacing" textLength="177" x="1712" y="190.0889">-endTime: LocalDateTime</text><text fill="#000000" font-family="sans-serif" font-size="14" lengthAdjust="spacing" textLength="162" x="1712" y="206.3857">-gameType: GameType</text><text fill="#000000" font-family="sans-serif" font-size="14" lengthAdjust="spacing" textLength="220" x="1712" y="222.6826">-customerPhoneNumber: String</text><text fill="#000000" font-family="sans-serif" font-size="14" lengthAdjust="spacing" textLength="160" x="1712" y="238.9795">-customerName: String</text><line style="stroke:#181818;stroke-width:0.5;" x1="1707" x2="1937" y1="246.2813" y2="246.2813"/></g><!--class UpdateReservationDto--><g id="elem_UpdateReservationDto"><rect codeLine="35" fill="#F1F1F1" height="113.1875" id="UpdateReservationDto" rx="2.5" ry="2.5" style="stroke:#181818;stroke-width:0.5;" width="193" x="1973.5" y="125"/><ellipse cx="1990.3" cy="141" fill="#ADD1B2" rx="11" ry="11" style="stroke:#181818;stroke-width:1.0;"/><path d="M1993.2688,146.6406 Q1992.6906,146.9375 1992.05,147.0781 Q1991.4094,147.2344 1990.7063,147.2344 Q1988.2063,147.2344 1986.8781,145.5938 Q1985.5656,143.9375 1985.5656,140.8125 Q1985.5656,137.6875 1986.8781,136.0313 Q1988.2063,134.375 1990.7063,134.375 Q1991.4094,134.375 1992.05,134.5313 Q1992.7063,134.6875 1993.2688,134.9844 L1993.2688,137.7031 Q1992.6438,137.125 1992.05,136.8594 Q1991.4563,136.5781 1990.8313,136.5781 Q1989.4875,136.5781 1988.8,137.6563 Q1988.1125,138.7188 1988.1125,140.8125 Q1988.1125,142.9063 1988.8,143.9844 Q1989.4875,145.0469 1990.8313,145.0469 Q1991.4563,145.0469 1992.05,144.7813 Q1992.6438,144.5 1993.2688,143.9219 L1993.2688,146.6406 Z " fill="#000000"/><text fill="#000000" font-family="sans-serif" font-size="14" lengthAdjust="spacing" textLength="157" x="2004.7" y="145.8467">UpdateReservationDto</text><line style="stroke:#181818;stroke-width:0.5;" x1="1974.5" x2="2165.5" y1="157" y2="157"/><text fill="#000000" font-family="sans-serif" font-size="14" lengthAdjust="spacing" textLength="96" x="1979.5" y="173.9951">-courtId: UUID</text><text fill="#000000" font-family="sans-serif" font-size="14" lengthAdjust="spacing" textLength="181" x="1979.5" y="190.292">-startTime: LocalDateTime</text><text fill="#000000" font-family="sans-serif" font-size="14" lengthAdjust="spacing" textLength="177" x="1979.5" y="206.5889">-endTime: LocalDateTime</text><text fill="#000000" font-family="sans-serif" font-size="14" lengthAdjust="spacing" textLength="162" x="1979.5" y="222.8857">-gameType: GameType</text><line style="stroke:#181818;stroke-width:0.5;" x1="1974.5" x2="2165.5" y1="230.1875" y2="230.1875"/></g><!--class ReservationPreviewDto--><g id="elem_ReservationPreviewDto"><rect codeLine="42" fill="#F1F1F1" height="129.4844" id="ReservationPreviewDto" rx="2.5" ry="2.5" style="stroke:#181818;stroke-width:0.5;" width="193" x="2201.5" y="117"/><ellipse cx="2216.95" cy="133" fill="#ADD1B2" rx="11" ry="11" style="stroke:#181818;stroke-width:1.0;"/><path d="M2219.9188,138.6406 Q2219.3406,138.9375 2218.7,139.0781 Q2218.0594,139.2344 2217.3563,139.2344 Q2214.8563,139.2344 2213.5281,137.5938 Q2212.2156,135.9375 2212.2156,132.8125 Q2212.2156,129.6875 2213.5281,128.0313 Q2214.8563,126.375 2217.3563,126.375 Q2218.0594,126.375 2218.7,126.5313 Q2219.3563,126.6875 2219.9188,126.9844 L2219.9188,129.7031 Q2219.2938,129.125 2218.7,128.8594 Q2218.1063,128.5781 2217.4813,128.5781 Q2216.1375,128.5781 2215.45,129.6563 Q2214.7625,130.7188 2214.7625,132.8125 Q2214.7625,134.9063 2215.45,135.9844 Q2216.1375,137.0469 2217.4813,137.0469 Q2218.1063,137.0469 2218.7,136.7813 Q2219.2938,136.5 2219.9188,135.9219 L2219.9188,138.6406 Z " fill="#000000"/><text fill="#000000" font-family="sans-serif" font-size="14" lengthAdjust="spacing" textLength="160" x="2231.05" y="137.8467">ReservationPreviewDto</text><line style="stroke:#181818;stroke-width:0.5;" x1="2202.5" x2="2393.5" y1="149" y2="149"/><text fill="#000000" font-family="sans-serif" font-size="14" lengthAdjust="spacing" textLength="60" x="2207.5" y="165.9951">-id: UUID</text><text fill="#000000" font-family="sans-serif" font-size="14" lengthAdjust="spacing" textLength="130" x="2207.5" y="182.292">-courtName: String</text><text fill="#000000" font-family="sans-serif" font-size="14" lengthAdjust="spacing" textLength="160" x="2207.5" y="198.5889">-customerName: String</text><text fill="#000000" font-family="sans-serif" font-size="14" lengthAdjust="spacing" textLength="181" x="2207.5" y="214.8857">-startTime: LocalDateTime</text><text fill="#000000" font-family="sans-serif" font-size="14" lengthAdjust="spacing" textLength="177" x="2207.5" y="231.1826">-endTime: LocalDateTime</text><line style="stroke:#181818;stroke-width:0.5;" x1="2202.5" x2="2393.5" y1="238.4844" y2="238.4844"/></g><!--class ReservationDetailDto--><g id="elem_ReservationDetailDto"><rect codeLine="50" fill="#F1F1F1" height="194.6719" id="ReservationDetailDto" rx="2.5" ry="2.5" style="stroke:#181818;stroke-width:0.5;" width="288" x="1706" y="339"/><ellipse cx="1772.75" cy="355" fill="#ADD1B2" rx="11" ry="11" style="stroke:#181818;stroke-width:1.0;"/><path d="M1775.7188,360.6406 Q1775.1406,360.9375 1774.5,361.0781 Q1773.8594,361.2344 1773.1563,361.2344 Q1770.6563,361.2344 1769.3281,359.5938 Q1768.0156,357.9375 1768.0156,354.8125 Q1768.0156,351.6875 1769.3281,350.0313 Q1770.6563,348.375 1773.1563,348.375 Q1773.8594,348.375 1774.5,348.5313 Q1775.1563,348.6875 1775.7188,348.9844 L1775.7188,351.7031 Q1775.0938,351.125 1774.5,350.8594 Q1773.9063,350.5781 1773.2813,350.5781 Q1771.9375,350.5781 1771.25,351.6563 Q1770.5625,352.7188 1770.5625,354.8125 Q1770.5625,356.9063 1771.25,357.9844 Q1771.9375,359.0469 1773.2813,359.0469 Q1773.9063,359.0469 1774.5,358.7813 Q1775.0938,358.5 1775.7188,357.9219 L1775.7188,360.6406 Z " fill="#000000"/><text fill="#000000" font-family="sans-serif" font-size="14" lengthAdjust="spacing" textLength="146" x="1793.25" y="359.8467">ReservationDetailDto</text><line style="stroke:#181818;stroke-width:0.5;" x1="1707" x2="1993" y1="371" y2="371"/><text fill="#000000" font-family="sans-serif" font-size="14" lengthAdjust="spacing" textLength="60" x="1712" y="387.9951">-id: UUID</text><text fill="#000000" font-family="sans-serif" font-size="14" lengthAdjust="spacing" textLength="216" x="1712" y="404.292">-courtDetailDto: CourtDetailDto</text><text fill="#000000" font-family="sans-serif" font-size="14" lengthAdjust="spacing" textLength="276" x="1712" y="420.5889">-customerDetailDto: CustomerDetailDto</text><text fill="#000000" font-family="sans-serif" font-size="14" lengthAdjust="spacing" textLength="181" x="1712" y="436.8857">-startTime: LocalDateTime</text><text fill="#000000" font-family="sans-serif" font-size="14" lengthAdjust="spacing" textLength="177" x="1712" y="453.1826">-endTime: LocalDateTime</text><text fill="#000000" font-family="sans-serif" font-size="14" lengthAdjust="spacing" textLength="187" x="1712" y="469.4795">-gameType: GameTypeDto</text><text fill="#000000" font-family="sans-serif" font-size="14" lengthAdjust="spacing" textLength="82" x="1712" y="485.7764">-price: Price</text><text fill="#000000" font-family="sans-serif" font-size="14" lengthAdjust="spacing" textLength="123" x="1712" y="502.0732">-deleted: boolean</text><text fill="#000000" font-family="sans-serif" font-size="14" lengthAdjust="spacing" textLength="183" x="1712" y="518.3701">-createdAt: LocalDateTime</text><line style="stroke:#181818;stroke-width:0.5;" x1="1707" x2="1993" y1="525.6719" y2="525.6719"/></g><!--class CourtReservationListDto--><g id="elem_CourtReservationListDto"><rect codeLine="62" fill="#F1F1F1" height="80.5938" id="CourtReservationListDto" rx="2.5" ry="2.5" style="stroke:#181818;stroke-width:0.5;" width="318" x="2029" y="396"/><ellipse cx="2099.75" cy="412" fill="#ADD1B2" rx="11" ry="11" style="stroke:#181818;stroke-width:1.0;"/><path d="M2102.7188,417.6406 Q2102.1406,417.9375 2101.5,418.0781 Q2100.8594,418.2344 2100.1563,418.2344 Q2097.6563,418.2344 2096.3281,416.5938 Q2095.0156,414.9375 2095.0156,411.8125 Q2095.0156,408.6875 2096.3281,407.0313 Q2097.6563,405.375 2100.1563,405.375 Q2100.8594,405.375 2101.5,405.5313 Q2102.1563,405.6875 2102.7188,405.9844 L2102.7188,408.7031 Q2102.0938,408.125 2101.5,407.8594 Q2100.9063,407.5781 2100.2813,407.5781 Q2098.9375,407.5781 2098.25,408.6563 Q2097.5625,409.7188 2097.5625,411.8125 Q2097.5625,413.9063 2098.25,414.9844 Q2098.9375,416.0469 2100.2813,416.0469 Q2100.9063,416.0469 2101.5,415.7813 Q2102.0938,415.5 2102.7188,414.9219 L2102.7188,417.6406 Z " fill="#000000"/><text fill="#000000" font-family="sans-serif" font-size="14" lengthAdjust="spacing" textLength="168" x="2120.25" y="416.8467">CourtReservationListDto</text><line style="stroke:#181818;stroke-width:0.5;" x1="2030" x2="2346" y1="428" y2="428"/><text fill="#000000" font-family="sans-serif" font-size="14" lengthAdjust="spacing" textLength="152" x="2035" y="444.9951">-court: CourtDetailDto</text><text fill="#000000" font-family="sans-serif" font-size="14" lengthAdjust="spacing" textLength="306" x="2035" y="461.292">-reservations: List&lt;ReservationPreviewDto&gt;</text><line style="stroke:#181818;stroke-width:0.5;" x1="2030" x2="2346" y1="468.5938" y2="468.5938"/></g><!--class ReservationService--><g id="elem_ReservationService"><rect codeLine="69" fill="#F1F1F1" height="178.375" id="ReservationService" rx="2.5" ry="2.5" style="stroke:#181818;stroke-width:0.5;" width="775" x="875.5" y="92.5"/><ellipse cx="1192.75" cy="108.5" fill="#ADD1B2" rx="11" ry="11" style="stroke:#181818;stroke-width:1.0;"/><path d="M1195.7188,114.1406 Q1195.1406,114.4375 1194.5,114.5781 Q1193.8594,114.7344 1193.1563,114.7344 Q1190.6563,114.7344 1189.3281,113.0938 Q1188.0156,111.4375 1188.0156,108.3125 Q1188.0156,105.1875 1189.3281,103.5313 Q1190.6563,101.875 1193.1563,101.875 Q1193.8594,101.875 1194.5,102.0313 Q1195.1563,102.1875 1195.7188,102.4844 L1195.7188,105.2031 Q1195.0938,104.625 1194.5,104.3594 Q1193.9063,104.0781 1193.2813,104.0781 Q1191.9375,104.0781 1191.25,105.1563 Q1190.5625,106.2188 1190.5625,108.3125 Q1190.5625,110.4063 1191.25,111.4844 Q1191.9375,112.5469 1193.2813,112.5469 Q1193.9063,112.5469 1194.5,112.2813 Q1195.0938,112 1195.7188,111.4219 L1195.7188,114.1406 Z " fill="#000000"/><text fill="#000000" font-family="sans-serif" font-size="14" lengthAdjust="spacing" textLength="132" x="1213.25" y="113.3467">ReservationService</text><line style="stroke:#181818;stroke-width:0.5;" x1="876.5" x2="1649.5" y1="124.5" y2="124.5"/><line style="stroke:#181818;stroke-width:0.5;" x1="876.5" x2="1649.5" y1="132.5" y2="132.5"/><text fill="#000000" font-family="sans-serif" font-size="14" lengthAdjust="spacing" textLength="534" x="881.5" y="149.4951">+createReservation(createDto: CreateReservationDto): ReservationDetailDto</text><text fill="#000000" font-family="sans-serif" font-size="14" lengthAdjust="spacing" textLength="611" x="881.5" y="165.792">+updateReservation(id: UUID, updateDto: UpdateReservationDto): ReservationDetailDto</text><text fill="#000000" font-family="sans-serif" font-size="14" lengthAdjust="spacing" textLength="268" x="881.5" y="182.0889">+softDeleteReservation(id: UUID): void</text><text fill="#000000" font-family="sans-serif" font-size="14" lengthAdjust="spacing" textLength="366" x="881.5" y="198.3857">+getReservationById(id: UUID): ReservationDetailDto</text><text fill="#000000" font-family="sans-serif" font-size="14" lengthAdjust="spacing" textLength="352" x="881.5" y="214.6826">+getAllReservations(): List&lt;ReservationDetailDto&gt;</text><text fill="#000000" font-family="sans-serif" font-size="14" lengthAdjust="spacing" textLength="4" x="881.5" y="230.9795">&#160;</text><text fill="#000000" font-family="sans-serif" font-size="14" lengthAdjust="spacing" textLength="441" x="881.5" y="247.2764">+getCourtReservations(courtId: UUID): CourtReservationListDto</text><text fill="#000000" font-family="sans-serif" font-size="14" lengthAdjust="spacing" textLength="763" x="881.5" y="263.5732">+getReservationsByPhoneNumber(phoneNumber: String, onlyFuture: boolean): List&lt;ReservationPreviewDto&gt;</text></g><!--class ReservationController--><g id="elem_ReservationController"><rect codeLine="82" fill="#F1F1F1" height="178.375" id="ReservationController" rx="2.5" ry="2.5" style="stroke:#181818;stroke-width:0.5;" width="775" x="45.5" y="92.5"/><ellipse cx="354.25" cy="108.5" fill="#ADD1B2" rx="11" ry="11" style="stroke:#181818;stroke-width:1.0;"/><path d="M357.2188,114.1406 Q356.6406,114.4375 356,114.5781 Q355.3594,114.7344 354.6563,114.7344 Q352.1563,114.7344 350.8281,113.0938 Q349.5156,111.4375 349.5156,108.3125 Q349.5156,105.1875 350.8281,103.5313 Q352.1563,101.875 354.6563,101.875 Q355.3594,101.875 356,102.0313 Q356.6563,102.1875 357.2188,102.4844 L357.2188,105.2031 Q356.5938,104.625 356,104.3594 Q355.4063,104.0781 354.7813,104.0781 Q353.4375,104.0781 352.75,105.1563 Q352.0625,106.2188 352.0625,108.3125 Q352.0625,110.4063 352.75,111.4844 Q353.4375,112.5469 354.7813,112.5469 Q355.4063,112.5469 356,112.2813 Q356.5938,112 357.2188,111.4219 L357.2188,114.1406 Z " fill="#000000"/><text fill="#000000" font-family="sans-serif" font-size="14" lengthAdjust="spacing" textLength="149" x="374.75" y="113.3467">ReservationController</text><line style="stroke:#181818;stroke-width:0.5;" x1="46.5" x2="819.5" y1="124.5" y2="124.5"/><line style="stroke:#181818;stroke-width:0.5;" x1="46.5" x2="819.5" y1="132.5" y2="132.5"/><text fill="#000000" font-family="sans-serif" font-size="14" lengthAdjust="spacing" textLength="534" x="51.5" y="149.4951">+createReservation(createDto: CreateReservationDto): ReservationDetailDto</text><text fill="#000000" font-family="sans-serif" font-size="14" lengthAdjust="spacing" textLength="611" x="51.5" y="165.792">+updateReservation(id: UUID, updateDto: UpdateReservationDto): ReservationDetailDto</text><text fill="#000000" font-family="sans-serif" font-size="14" lengthAdjust="spacing" textLength="240" x="51.5" y="182.0889">+deleteReservation(id: UUID): void</text><text fill="#000000" font-family="sans-serif" font-size="14" lengthAdjust="spacing" textLength="366" x="51.5" y="198.3857">+getReservationById(id: UUID): ReservationDetailDto</text><text fill="#000000" font-family="sans-serif" font-size="14" lengthAdjust="spacing" textLength="352" x="51.5" y="214.6826">+getAllReservations(): List&lt;ReservationDetailDto&gt;</text><text fill="#000000" font-family="sans-serif" font-size="14" lengthAdjust="spacing" textLength="4" x="51.5" y="230.9795">&#160;</text><text fill="#000000" font-family="sans-serif" font-size="14" lengthAdjust="spacing" textLength="441" x="51.5" y="247.2764">+getCourtReservations(courtId: UUID): CourtReservationListDto</text><text fill="#000000" font-family="sans-serif" font-size="14" lengthAdjust="spacing" textLength="763" x="51.5" y="263.5732">+getReservationsByPhoneNumber(phoneNumber: String, onlyFuture: boolean): List&lt;ReservationPreviewDto&gt;</text></g><!--SRC=[xLNDYjim43x7Jo5oSkWkz6pAGX9t5qD8Gxrv0CMUfc9boqXoIbhoxfLaIoixSXRQGYdK5rlp-yqtCx9u8NM3EQvGGR4GIoavERGIieBLEVaEw7qKDRXumKT0yyyWW9-m9AoUenzHD7EQYfL0jMo6ka38i-t42DqZKYPelyzIUovOosM2rlhbPAsGh0AknFsNrGY9kNmc5IHemmfCKon17wqUwlA6jk6aKBgTVbdP4LVmV6wK-Ad_iXfL3aXGS0-CKS2rGyT1nIsNCf3b4aNQ2EgsSl5KxSWyURPzsdpC-rFwQR-ofqlKkpesIyaCbxEEohN9wH6QIcRKivx1pD6gHTCqQUqKILeNeiCawHkn-yfgsBRLGNSdLvDI7uS6MwmZEusgojQmRyg_M8C7n8Emut0YyCr3GWOW3AvHITF5_ZhgCBeK92RqDZXdq- -GEm-H-cPZqP_dsmKTRfoMN6-LWJcvKpurfa2FdmqHSZn4OHhugvDGAPJVX-0KF9Y4usNKXgg0UR_9LttAExszvDxrvNWMSIVf-0_iyY89zjt6QyUh4zj9kEjr9d9emzw8BDWNnPLkIIYwSZunKbhZ8_ZihyvPwLlUIgCybvHw5Y9UNFV1kJr4dkEuwo8Ut1QBP6ekmh35wknTOd5pVQ7T8LRJysChMmvkJXTlZ4te4bS_KCaPfS0dHsVjJFx5wId_JyvlJyxh__yI_GG0]--></g></svg>