<?xml version="1.0" encoding="us-ascii" standalone="no"?><svg xmlns="http://www.w3.org/2000/svg" xmlns:xlink="http://www.w3.org/1999/xlink" contentStyleType="text/css" height="433px" preserveAspectRatio="none" style="width:1814px;height:433px;background:#FFFFFF;" version="1.1" viewBox="0 0 1814 433" width="1814px" zoomAndPan="magnify"><defs/><g><!--cluster User--><g id="cluster_User"><path d="M8.5,6 L46.5,6 A3.75,3.75 0 0 1 49,8.5 L56,28.2969 L1804.5,28.2969 A2.5,2.5 0 0 1 1807,30.7969 L1807,423.5 A2.5,2.5 0 0 1 1804.5,426 L8.5,426 A2.5,2.5 0 0 1 6,423.5 L6,8.5 A2.5,2.5 0 0 1 8.5,6 " fill="none" style="stroke:#000000;stroke-width:1.5;"/><line style="stroke:#000000;stroke-width:1.5;" x1="6" x2="56" y1="28.2969" y2="28.2969"/><text fill="#000000" font-family="sans-serif" font-size="14" font-weight="bold" lengthAdjust="spacing" textLength="37" x="10" y="20.9951">User</text></g><!--cluster model--><g id="cluster_model"><path d="M1454.5,49 L1503.5,49 A3.75,3.75 0 0 1 1506,51.5 L1513,71.2969 L1780.5,71.2969 A2.5,2.5 0 0 1 1783,73.7969 L1783,226.5 A2.5,2.5 0 0 1 1780.5,229 L1454.5,229 A2.5,2.5 0 0 1 1452,226.5 L1452,51.5 A2.5,2.5 0 0 1 1454.5,49 " fill="none" style="stroke:#000000;stroke-width:1.5;"/><line style="stroke:#000000;stroke-width:1.5;" x1="1452" x2="1513" y1="71.2969" y2="71.2969"/><text fill="#000000" font-family="sans-serif" font-size="14" font-weight="bold" lengthAdjust="spacing" textLength="48" x="1456" y="63.9951">model</text></g><!--cluster dto--><g id="cluster_dto"><path d="M1088.5,65 L1115.5,65 A3.75,3.75 0 0 1 1118,67.5 L1125,87.2969 L1425.5,87.2969 A2.5,2.5 0 0 1 1428,89.7969 L1428,399.5 A2.5,2.5 0 0 1 1425.5,402 L1088.5,402 A2.5,2.5 0 0 1 1086,399.5 L1086,67.5 A2.5,2.5 0 0 1 1088.5,65 " fill="none" style="stroke:#000000;stroke-width:1.5;"/><line style="stroke:#000000;stroke-width:1.5;" x1="1086" x2="1125" y1="87.2969" y2="87.2969"/><text fill="#000000" font-family="sans-serif" font-size="14" font-weight="bold" lengthAdjust="spacing" textLength="26" x="1090" y="79.9951">dto</text></g><!--cluster service--><g id="cluster_service"><path d="M560.5,57 L619.5,57 A3.75,3.75 0 0 1 622,59.5 L629,79.2969 L1059.5,79.2969 A2.5,2.5 0 0 1 1062,81.7969 L1062,218.5 A2.5,2.5 0 0 1 1059.5,221 L560.5,221 A2.5,2.5 0 0 1 558,218.5 L558,59.5 A2.5,2.5 0 0 1 560.5,57 " fill="none" style="stroke:#000000;stroke-width:1.5;"/><line style="stroke:#000000;stroke-width:1.5;" x1="558" x2="629" y1="79.2969" y2="79.2969"/><text fill="#000000" font-family="sans-serif" font-size="14" font-weight="bold" lengthAdjust="spacing" textLength="58" x="562" y="71.9951">service</text></g><!--cluster controller--><g id="cluster_controller"><path d="M32.5,57 L110.5,57 A3.75,3.75 0 0 1 113,59.5 L120,79.2969 L531.5,79.2969 A2.5,2.5 0 0 1 534,81.7969 L534,218.5 A2.5,2.5 0 0 1 531.5,221 L32.5,221 A2.5,2.5 0 0 1 30,218.5 L30,59.5 A2.5,2.5 0 0 1 32.5,57 " fill="none" style="stroke:#000000;stroke-width:1.5;"/><line style="stroke:#000000;stroke-width:1.5;" x1="30" x2="120" y1="79.2969" y2="79.2969"/><text fill="#000000" font-family="sans-serif" font-size="14" font-weight="bold" lengthAdjust="spacing" textLength="77" x="34" y="71.9951">controller</text></g><!--class User--><g id="elem_User"><rect codeLine="6" fill="#F1F1F1" height="129.4844" id="User" rx="2.5" ry="2.5" style="stroke:#181818;stroke-width:0.5;" width="168" x="1599" y="84"/><ellipse cx="1662.75" cy="100" fill="#ADD1B2" rx="11" ry="11" style="stroke:#181818;stroke-width:1.0;"/><path d="M1665.7188,105.6406 Q1665.1406,105.9375 1664.5,106.0781 Q1663.8594,106.2344 1663.1563,106.2344 Q1660.6563,106.2344 1659.3281,104.5938 Q1658.0156,102.9375 1658.0156,99.8125 Q1658.0156,96.6875 1659.3281,95.0313 Q1660.6563,93.375 1663.1563,93.375 Q1663.8594,93.375 1664.5,93.5313 Q1665.1563,93.6875 1665.7188,93.9844 L1665.7188,96.7031 Q1665.0938,96.125 1664.5,95.8594 Q1663.9063,95.5781 1663.2813,95.5781 Q1661.9375,95.5781 1661.25,96.6563 Q1660.5625,97.7188 1660.5625,99.8125 Q1660.5625,101.9063 1661.25,102.9844 Q1661.9375,104.0469 1663.2813,104.0469 Q1663.9063,104.0469 1664.5,103.7813 Q1665.0938,103.5 1665.7188,102.9219 L1665.7188,105.6406 Z " fill="#000000"/><text fill="#000000" font-family="sans-serif" font-size="14" lengthAdjust="spacing" textLength="32" x="1683.25" y="104.8467">User</text><line style="stroke:#181818;stroke-width:0.5;" x1="1600" x2="1766" y1="116" y2="116"/><text fill="#000000" font-family="sans-serif" font-size="14" lengthAdjust="spacing" textLength="60" x="1605" y="132.9951">-id: UUID</text><text fill="#000000" font-family="sans-serif" font-size="14" lengthAdjust="spacing" textLength="90" x="1605" y="149.292">-email: String</text><text fill="#000000" font-family="sans-serif" font-size="14" lengthAdjust="spacing" textLength="156" x="1605" y="165.5889">-passwordHash: String</text><text fill="#000000" font-family="sans-serif" font-size="14" lengthAdjust="spacing" textLength="103" x="1605" y="181.8857">-role: UserRole</text><text fill="#000000" font-family="sans-serif" font-size="14" lengthAdjust="spacing" textLength="123" x="1605" y="198.1826">-deleted: boolean</text><line style="stroke:#181818;stroke-width:0.5;" x1="1600" x2="1766" y1="205.4844" y2="205.4844"/></g><!--class UserRole--><g id="elem_UserRole"><rect codeLine="14" fill="#F1F1F1" height="80.5938" id="UserRole" rx="2.5" ry="2.5" style="stroke:#181818;stroke-width:0.5;" width="95" x="1468.5" y="108"/><ellipse cx="1483.5" cy="124" fill="#EB937F" rx="11" ry="11" style="stroke:#181818;stroke-width:1.0;"/><path d="M1487.6094,130 L1479.8906,130 L1479.8906,117.6094 L1487.6094,117.6094 L1487.6094,119.7656 L1482.3438,119.7656 L1482.3438,122.4375 L1487.1094,122.4375 L1487.1094,124.5938 L1482.3438,124.5938 L1482.3438,127.8438 L1487.6094,127.8438 L1487.6094,130 Z " fill="#000000"/><text fill="#000000" font-family="sans-serif" font-size="14" lengthAdjust="spacing" textLength="63" x="1497.5" y="128.8467">UserRole</text><line style="stroke:#181818;stroke-width:0.5;" x1="1469.5" x2="1562.5" y1="140" y2="140"/><text fill="#000000" font-family="sans-serif" font-size="14" lengthAdjust="spacing" textLength="38" x="1474.5" y="156.9951">USER</text><text fill="#000000" font-family="sans-serif" font-size="14" lengthAdjust="spacing" textLength="45" x="1474.5" y="173.292">ADMIN</text><line style="stroke:#181818;stroke-width:0.5;" x1="1469.5" x2="1562.5" y1="180.5938" y2="180.5938"/></g><!--class CreateUserDto--><g id="elem_CreateUserDto"><rect codeLine="21" fill="#F1F1F1" height="96.8906" id="CreateUserDto" rx="2.5" ry="2.5" style="stroke:#181818;stroke-width:0.5;" width="135" x="1102.5" y="100"/><ellipse cx="1117.5" cy="116" fill="#ADD1B2" rx="11" ry="11" style="stroke:#181818;stroke-width:1.0;"/><path d="M1120.4688,121.6406 Q1119.8906,121.9375 1119.25,122.0781 Q1118.6094,122.2344 1117.9063,122.2344 Q1115.4063,122.2344 1114.0781,120.5938 Q1112.7656,118.9375 1112.7656,115.8125 Q1112.7656,112.6875 1114.0781,111.0313 Q1115.4063,109.375 1117.9063,109.375 Q1118.6094,109.375 1119.25,109.5313 Q1119.9063,109.6875 1120.4688,109.9844 L1120.4688,112.7031 Q1119.8438,112.125 1119.25,111.8594 Q1118.6563,111.5781 1118.0313,111.5781 Q1116.6875,111.5781 1116,112.6563 Q1115.3125,113.7188 1115.3125,115.8125 Q1115.3125,117.9063 1116,118.9844 Q1116.6875,120.0469 1118.0313,120.0469 Q1118.6563,120.0469 1119.25,119.7813 Q1119.8438,119.5 1120.4688,118.9219 L1120.4688,121.6406 Z " fill="#000000"/><text fill="#000000" font-family="sans-serif" font-size="14" lengthAdjust="spacing" textLength="103" x="1131.5" y="120.8467">CreateUserDto</text><line style="stroke:#181818;stroke-width:0.5;" x1="1103.5" x2="1236.5" y1="132" y2="132"/><text fill="#000000" font-family="sans-serif" font-size="14" lengthAdjust="spacing" textLength="90" x="1108.5" y="148.9951">-email: String</text><text fill="#000000" font-family="sans-serif" font-size="14" lengthAdjust="spacing" textLength="121" x="1108.5" y="165.292">-password: String</text><text fill="#000000" font-family="sans-serif" font-size="14" lengthAdjust="spacing" textLength="103" x="1108.5" y="181.5889">-role: UserRole</text><line style="stroke:#181818;stroke-width:0.5;" x1="1103.5" x2="1236.5" y1="188.8906" y2="188.8906"/></g><!--class UpdateUserDto--><g id="elem_UpdateUserDto"><rect codeLine="27" fill="#F1F1F1" height="80.5938" id="UpdateUserDto" rx="2.5" ry="2.5" style="stroke:#181818;stroke-width:0.5;" width="139" x="1272.5" y="108"/><ellipse cx="1287.5" cy="124" fill="#ADD1B2" rx="11" ry="11" style="stroke:#181818;stroke-width:1.0;"/><path d="M1290.4688,129.6406 Q1289.8906,129.9375 1289.25,130.0781 Q1288.6094,130.2344 1287.9063,130.2344 Q1285.4063,130.2344 1284.0781,128.5938 Q1282.7656,126.9375 1282.7656,123.8125 Q1282.7656,120.6875 1284.0781,119.0313 Q1285.4063,117.375 1287.9063,117.375 Q1288.6094,117.375 1289.25,117.5313 Q1289.9063,117.6875 1290.4688,117.9844 L1290.4688,120.7031 Q1289.8438,120.125 1289.25,119.8594 Q1288.6563,119.5781 1288.0313,119.5781 Q1286.6875,119.5781 1286,120.6563 Q1285.3125,121.7188 1285.3125,123.8125 Q1285.3125,125.9063 1286,126.9844 Q1286.6875,128.0469 1288.0313,128.0469 Q1288.6563,128.0469 1289.25,127.7813 Q1289.8438,127.5 1290.4688,126.9219 L1290.4688,129.6406 Z " fill="#000000"/><text fill="#000000" font-family="sans-serif" font-size="14" lengthAdjust="spacing" textLength="107" x="1301.5" y="128.8467">UpdateUserDto</text><line style="stroke:#181818;stroke-width:0.5;" x1="1273.5" x2="1410.5" y1="140" y2="140"/><text fill="#000000" font-family="sans-serif" font-size="14" lengthAdjust="spacing" textLength="90" x="1278.5" y="156.9951">-email: String</text><text fill="#000000" font-family="sans-serif" font-size="14" lengthAdjust="spacing" textLength="103" x="1278.5" y="173.292">-role: UserRole</text><line style="stroke:#181818;stroke-width:0.5;" x1="1273.5" x2="1410.5" y1="180.5938" y2="180.5938"/></g><!--class UserDetailDto--><g id="elem_UserDetailDto"><rect codeLine="32" fill="#F1F1F1" height="113.1875" id="UserDetailDto" rx="2.5" ry="2.5" style="stroke:#181818;stroke-width:0.5;" width="135" x="1102.5" y="273"/><ellipse cx="1120.65" cy="289" fill="#ADD1B2" rx="11" ry="11" style="stroke:#181818;stroke-width:1.0;"/><path d="M1123.6188,294.6406 Q1123.0406,294.9375 1122.4,295.0781 Q1121.7594,295.2344 1121.0563,295.2344 Q1118.5563,295.2344 1117.2281,293.5938 Q1115.9156,291.9375 1115.9156,288.8125 Q1115.9156,285.6875 1117.2281,284.0313 Q1118.5563,282.375 1121.0563,282.375 Q1121.7594,282.375 1122.4,282.5313 Q1123.0563,282.6875 1123.6188,282.9844 L1123.6188,285.7031 Q1122.9938,285.125 1122.4,284.8594 Q1121.8063,284.5781 1121.1813,284.5781 Q1119.8375,284.5781 1119.15,285.6563 Q1118.4625,286.7188 1118.4625,288.8125 Q1118.4625,290.9063 1119.15,291.9844 Q1119.8375,293.0469 1121.1813,293.0469 Q1121.8063,293.0469 1122.4,292.7813 Q1122.9938,292.5 1123.6188,291.9219 L1123.6188,294.6406 Z " fill="#000000"/><text fill="#000000" font-family="sans-serif" font-size="14" lengthAdjust="spacing" textLength="96" x="1135.35" y="293.8467">UserDetailDto</text><line style="stroke:#181818;stroke-width:0.5;" x1="1103.5" x2="1236.5" y1="305" y2="305"/><text fill="#000000" font-family="sans-serif" font-size="14" lengthAdjust="spacing" textLength="60" x="1108.5" y="321.9951">-id: UUID</text><text fill="#000000" font-family="sans-serif" font-size="14" lengthAdjust="spacing" textLength="90" x="1108.5" y="338.292">-email: String</text><text fill="#000000" font-family="sans-serif" font-size="14" lengthAdjust="spacing" textLength="103" x="1108.5" y="354.5889">-role: UserRole</text><text fill="#000000" font-family="sans-serif" font-size="14" lengthAdjust="spacing" textLength="123" x="1108.5" y="370.8857">-deleted: boolean</text><line style="stroke:#181818;stroke-width:0.5;" x1="1103.5" x2="1236.5" y1="378.1875" y2="378.1875"/></g><!--class UserService--><g id="elem_UserService"><rect codeLine="41" fill="#F1F1F1" height="113.1875" id="UserService" rx="2.5" ry="2.5" style="stroke:#181818;stroke-width:0.5;" width="473" x="573.5" y="92"/><ellipse cx="764.75" cy="108" fill="#ADD1B2" rx="11" ry="11" style="stroke:#181818;stroke-width:1.0;"/><path d="M767.7188,113.6406 Q767.1406,113.9375 766.5,114.0781 Q765.8594,114.2344 765.1563,114.2344 Q762.6563,114.2344 761.3281,112.5938 Q760.0156,110.9375 760.0156,107.8125 Q760.0156,104.6875 761.3281,103.0313 Q762.6563,101.375 765.1563,101.375 Q765.8594,101.375 766.5,101.5313 Q767.1563,101.6875 767.7188,101.9844 L767.7188,104.7031 Q767.0938,104.125 766.5,103.8594 Q765.9063,103.5781 765.2813,103.5781 Q763.9375,103.5781 763.25,104.6563 Q762.5625,105.7188 762.5625,107.8125 Q762.5625,109.9063 763.25,110.9844 Q763.9375,112.0469 765.2813,112.0469 Q765.9063,112.0469 766.5,111.7813 Q767.0938,111.5 767.7188,110.9219 L767.7188,113.6406 Z " fill="#000000"/><text fill="#000000" font-family="sans-serif" font-size="14" lengthAdjust="spacing" textLength="82" x="785.25" y="112.8467">UserService</text><line style="stroke:#181818;stroke-width:0.5;" x1="574.5" x2="1045.5" y1="124" y2="124"/><line style="stroke:#181818;stroke-width:0.5;" x1="574.5" x2="1045.5" y1="132" y2="132"/><text fill="#000000" font-family="sans-serif" font-size="14" lengthAdjust="spacing" textLength="384" x="579.5" y="148.9951">+createUser(createDto: CreateUserDto): UserDetailDto</text><text fill="#000000" font-family="sans-serif" font-size="14" lengthAdjust="spacing" textLength="461" x="579.5" y="165.292">+updateUser(id: UUID, updateDto: UpdateUserDto): UserDetailDto</text><text fill="#000000" font-family="sans-serif" font-size="14" lengthAdjust="spacing" textLength="246" x="579.5" y="181.5889">+softDeleteUser(id: UUID): boolean</text><text fill="#000000" font-family="sans-serif" font-size="14" lengthAdjust="spacing" textLength="252" x="579.5" y="197.8857">+getAllUsers(): List&lt;UserDetailDto&gt;</text></g><!--class UserController--><g id="elem_UserController"><rect codeLine="50" fill="#F1F1F1" height="113.1875" id="UserController" rx="2.5" ry="2.5" style="stroke:#181818;stroke-width:0.5;" width="473" x="45.5" y="92"/><ellipse cx="228.25" cy="108" fill="#ADD1B2" rx="11" ry="11" style="stroke:#181818;stroke-width:1.0;"/><path d="M231.2188,113.6406 Q230.6406,113.9375 230,114.0781 Q229.3594,114.2344 228.6563,114.2344 Q226.1563,114.2344 224.8281,112.5938 Q223.5156,110.9375 223.5156,107.8125 Q223.5156,104.6875 224.8281,103.0313 Q226.1563,101.375 228.6563,101.375 Q229.3594,101.375 230,101.5313 Q230.6563,101.6875 231.2188,101.9844 L231.2188,104.7031 Q230.5938,104.125 230,103.8594 Q229.4063,103.5781 228.7813,103.5781 Q227.4375,103.5781 226.75,104.6563 Q226.0625,105.7188 226.0625,107.8125 Q226.0625,109.9063 226.75,110.9844 Q227.4375,112.0469 228.7813,112.0469 Q229.4063,112.0469 230,111.7813 Q230.5938,111.5 231.2188,110.9219 L231.2188,113.6406 Z " fill="#000000"/><text fill="#000000" font-family="sans-serif" font-size="14" lengthAdjust="spacing" textLength="99" x="248.75" y="112.8467">UserController</text><line style="stroke:#181818;stroke-width:0.5;" x1="46.5" x2="517.5" y1="124" y2="124"/><line style="stroke:#181818;stroke-width:0.5;" x1="46.5" x2="517.5" y1="132" y2="132"/><text fill="#000000" font-family="sans-serif" font-size="14" lengthAdjust="spacing" textLength="384" x="51.5" y="148.9951">+createUser(createDto: CreateUserDto): UserDetailDto</text><text fill="#000000" font-family="sans-serif" font-size="14" lengthAdjust="spacing" textLength="461" x="51.5" y="165.292">+updateUser(id: UUID, updateDto: UpdateUserDto): UserDetailDto</text><text fill="#000000" font-family="sans-serif" font-size="14" lengthAdjust="spacing" textLength="218" x="51.5" y="181.5889">+deleteUser(id: UUID): boolean</text><text fill="#000000" font-family="sans-serif" font-size="14" lengthAdjust="spacing" textLength="252" x="51.5" y="197.8857">+getAllUsers(): List&lt;UserDetailDto&gt;</text></g><!--SRC=[pLF1IiGm43stNn7sr4K5pqM4iXKig8Sj_O1iCzQmQLEIL47PVtVIjB5Pn5t1WvUGl7dpPjw3w3tlUgfeIsf1jSwCKNmt62XgsPNy7SXr7FUqtjC6oAhIe5Ra8uuyqae6OeI84o2Muzw4N17EKb9LHJw_eQLSfAJ4ALqpWptslKd5xgb-EQufAI0THRTucr4S2WPGUoSHfPt53x4zeHjQJv_tgCgxhRjb-MFnvDYHRV16c96ZZSYvs2YW1gnERkINdH_NFxswMt7AgMTdJpYXP3N0O5-WT5Rqluat30nRNdaDoz2iJEdW4OqkIErpJDmLLqp3TDTfwC0r3ZwUP3PoEO6ZH13Vzn9QFfjyT1B8h1UsBAq1ambXAJh1sWFNvYPGkqNUiNly7GQp4zD_M0ImyPN_a07xI_-7-1C0]--></g></svg>