<?xml version="1.0" encoding="us-ascii" standalone="no"?><svg xmlns="http://www.w3.org/2000/svg" xmlns:xlink="http://www.w3.org/1999/xlink" contentStyleType="text/css" height="417px" preserveAspectRatio="none" style="width:1973px;height:417px;background:#FFFFFF;" version="1.1" viewBox="0 0 1973 417" width="1973px" zoomAndPan="magnify"><defs/><g><!--cluster Customer--><g id="cluster_Customer"><path d="M8.5,6 L86.5,6 A3.75,3.75 0 0 1 89,8.5 L96,28.2969 L1963.5,28.2969 A2.5,2.5 0 0 1 1966,30.7969 L1966,407.5 A2.5,2.5 0 0 1 1963.5,410 L8.5,410 A2.5,2.5 0 0 1 6,407.5 L6,8.5 A2.5,2.5 0 0 1 8.5,6 " fill="none" style="stroke:#000000;stroke-width:1.5;"/><line style="stroke:#000000;stroke-width:1.5;" x1="6" x2="96" y1="28.2969" y2="28.2969"/><text fill="#000000" font-family="sans-serif" font-size="14" font-weight="bold" lengthAdjust="spacing" textLength="77" x="10" y="20.9951">Customer</text></g><!--cluster model--><g id="cluster_model"><path d="M1746.5,49 L1795.5,49 A3.75,3.75 0 0 1 1798,51.5 L1805,71.2969 L1939.5,71.2969 A2.5,2.5 0 0 1 1942,73.7969 L1942,210.5 A2.5,2.5 0 0 1 1939.5,213 L1746.5,213 A2.5,2.5 0 0 1 1744,210.5 L1744,51.5 A2.5,2.5 0 0 1 1746.5,49 " fill="none" style="stroke:#000000;stroke-width:1.5;"/><line style="stroke:#000000;stroke-width:1.5;" x1="1744" x2="1805" y1="71.2969" y2="71.2969"/><text fill="#000000" font-family="sans-serif" font-size="14" font-weight="bold" lengthAdjust="spacing" textLength="48" x="1748" y="63.9951">model</text></g><!--cluster dto--><g id="cluster_dto"><path d="M1308.5,65 L1335.5,65 A3.75,3.75 0 0 1 1338,67.5 L1345,87.2969 L1717.5,87.2969 A2.5,2.5 0 0 1 1720,89.7969 L1720,383.5 A2.5,2.5 0 0 1 1717.5,386 L1308.5,386 A2.5,2.5 0 0 1 1306,383.5 L1306,67.5 A2.5,2.5 0 0 1 1308.5,65 " fill="none" style="stroke:#000000;stroke-width:1.5;"/><line style="stroke:#000000;stroke-width:1.5;" x1="1306" x2="1345" y1="87.2969" y2="87.2969"/><text fill="#000000" font-family="sans-serif" font-size="14" font-weight="bold" lengthAdjust="spacing" textLength="26" x="1310" y="79.9951">dto</text></g><!--cluster service--><g id="cluster_service"><path d="M670.5,49 L729.5,49 A3.75,3.75 0 0 1 732,51.5 L739,71.2969 L1279.5,71.2969 A2.5,2.5 0 0 1 1282,73.7969 L1282,210.5 A2.5,2.5 0 0 1 1279.5,213 L670.5,213 A2.5,2.5 0 0 1 668,210.5 L668,51.5 A2.5,2.5 0 0 1 670.5,49 " fill="none" style="stroke:#000000;stroke-width:1.5;"/><line style="stroke:#000000;stroke-width:1.5;" x1="668" x2="739" y1="71.2969" y2="71.2969"/><text fill="#000000" font-family="sans-serif" font-size="14" font-weight="bold" lengthAdjust="spacing" textLength="58" x="672" y="63.9951">service</text></g><!--cluster controller--><g id="cluster_controller"><path d="M32.5,49 L110.5,49 A3.75,3.75 0 0 1 113,51.5 L120,71.2969 L641.5,71.2969 A2.5,2.5 0 0 1 644,73.7969 L644,210.5 A2.5,2.5 0 0 1 641.5,213 L32.5,213 A2.5,2.5 0 0 1 30,210.5 L30,51.5 A2.5,2.5 0 0 1 32.5,49 " fill="none" style="stroke:#000000;stroke-width:1.5;"/><line style="stroke:#000000;stroke-width:1.5;" x1="30" x2="120" y1="71.2969" y2="71.2969"/><text fill="#000000" font-family="sans-serif" font-size="14" font-weight="bold" lengthAdjust="spacing" textLength="77" x="34" y="63.9951">controller</text></g><!--class Customer--><g id="elem_Customer"><rect codeLine="6" fill="#F1F1F1" height="113.1875" id="Customer" rx="2.5" ry="2.5" style="stroke:#181818;stroke-width:0.5;" width="166" x="1760" y="84"/><ellipse cx="1804.75" cy="100" fill="#ADD1B2" rx="11" ry="11" style="stroke:#181818;stroke-width:1.0;"/><path d="M1807.7188,105.6406 Q1807.1406,105.9375 1806.5,106.0781 Q1805.8594,106.2344 1805.1563,106.2344 Q1802.6563,106.2344 1801.3281,104.5938 Q1800.0156,102.9375 1800.0156,99.8125 Q1800.0156,96.6875 1801.3281,95.0313 Q1802.6563,93.375 1805.1563,93.375 Q1805.8594,93.375 1806.5,93.5313 Q1807.1563,93.6875 1807.7188,93.9844 L1807.7188,96.7031 Q1807.0938,96.125 1806.5,95.8594 Q1805.9063,95.5781 1805.2813,95.5781 Q1803.9375,95.5781 1803.25,96.6563 Q1802.5625,97.7188 1802.5625,99.8125 Q1802.5625,101.9063 1803.25,102.9844 Q1803.9375,104.0469 1805.2813,104.0469 Q1805.9063,104.0469 1806.5,103.7813 Q1807.0938,103.5 1807.7188,102.9219 L1807.7188,105.6406 Z " fill="#000000"/><text fill="#000000" font-family="sans-serif" font-size="14" lengthAdjust="spacing" textLength="68" x="1825.25" y="104.8467">Customer</text><line style="stroke:#181818;stroke-width:0.5;" x1="1761" x2="1925" y1="116" y2="116"/><text fill="#000000" font-family="sans-serif" font-size="14" lengthAdjust="spacing" textLength="60" x="1766" y="132.9951">-id: UUID</text><text fill="#000000" font-family="sans-serif" font-size="14" lengthAdjust="spacing" textLength="154" x="1766" y="149.292">-phoneNumber: String</text><text fill="#000000" font-family="sans-serif" font-size="14" lengthAdjust="spacing" textLength="93" x="1766" y="165.5889">-name: String</text><text fill="#000000" font-family="sans-serif" font-size="14" lengthAdjust="spacing" textLength="123" x="1766" y="181.8857">-deleted: boolean</text><line style="stroke:#181818;stroke-width:0.5;" x1="1761" x2="1925" y1="189.1875" y2="189.1875"/></g><!--class CreateCustomerDto--><g id="elem_CreateCustomerDto"><rect codeLine="15" fill="#F1F1F1" height="80.5938" id="CreateCustomerDto" rx="2.5" ry="2.5" style="stroke:#181818;stroke-width:0.5;" width="171" x="1322.5" y="100"/><ellipse cx="1337.5" cy="116" fill="#ADD1B2" rx="11" ry="11" style="stroke:#181818;stroke-width:1.0;"/><path d="M1340.4688,121.6406 Q1339.8906,121.9375 1339.25,122.0781 Q1338.6094,122.2344 1337.9063,122.2344 Q1335.4063,122.2344 1334.0781,120.5938 Q1332.7656,118.9375 1332.7656,115.8125 Q1332.7656,112.6875 1334.0781,111.0313 Q1335.4063,109.375 1337.9063,109.375 Q1338.6094,109.375 1339.25,109.5313 Q1339.9063,109.6875 1340.4688,109.9844 L1340.4688,112.7031 Q1339.8438,112.125 1339.25,111.8594 Q1338.6563,111.5781 1338.0313,111.5781 Q1336.6875,111.5781 1336,112.6563 Q1335.3125,113.7188 1335.3125,115.8125 Q1335.3125,117.9063 1336,118.9844 Q1336.6875,120.0469 1338.0313,120.0469 Q1338.6563,120.0469 1339.25,119.7813 Q1339.8438,119.5 1340.4688,118.9219 L1340.4688,121.6406 Z " fill="#000000"/><text fill="#000000" font-family="sans-serif" font-size="14" lengthAdjust="spacing" textLength="139" x="1351.5" y="120.8467">CreateCustomerDto</text><line style="stroke:#181818;stroke-width:0.5;" x1="1323.5" x2="1492.5" y1="132" y2="132"/><text fill="#000000" font-family="sans-serif" font-size="14" lengthAdjust="spacing" textLength="154" x="1328.5" y="148.9951">-phoneNumber: String</text><text fill="#000000" font-family="sans-serif" font-size="14" lengthAdjust="spacing" textLength="93" x="1328.5" y="165.292">-name: String</text><line style="stroke:#181818;stroke-width:0.5;" x1="1323.5" x2="1492.5" y1="172.5938" y2="172.5938"/></g><!--class UpdateCustomerDto--><g id="elem_UpdateCustomerDto"><rect codeLine="20" fill="#F1F1F1" height="80.5938" id="UpdateCustomerDto" rx="2.5" ry="2.5" style="stroke:#181818;stroke-width:0.5;" width="175" x="1528.5" y="100"/><ellipse cx="1543.5" cy="116" fill="#ADD1B2" rx="11" ry="11" style="stroke:#181818;stroke-width:1.0;"/><path d="M1546.4688,121.6406 Q1545.8906,121.9375 1545.25,122.0781 Q1544.6094,122.2344 1543.9063,122.2344 Q1541.4063,122.2344 1540.0781,120.5938 Q1538.7656,118.9375 1538.7656,115.8125 Q1538.7656,112.6875 1540.0781,111.0313 Q1541.4063,109.375 1543.9063,109.375 Q1544.6094,109.375 1545.25,109.5313 Q1545.9063,109.6875 1546.4688,109.9844 L1546.4688,112.7031 Q1545.8438,112.125 1545.25,111.8594 Q1544.6563,111.5781 1544.0313,111.5781 Q1542.6875,111.5781 1542,112.6563 Q1541.3125,113.7188 1541.3125,115.8125 Q1541.3125,117.9063 1542,118.9844 Q1542.6875,120.0469 1544.0313,120.0469 Q1544.6563,120.0469 1545.25,119.7813 Q1545.8438,119.5 1546.4688,118.9219 L1546.4688,121.6406 Z " fill="#000000"/><text fill="#000000" font-family="sans-serif" font-size="14" lengthAdjust="spacing" textLength="143" x="1557.5" y="120.8467">UpdateCustomerDto</text><line style="stroke:#181818;stroke-width:0.5;" x1="1529.5" x2="1702.5" y1="132" y2="132"/><text fill="#000000" font-family="sans-serif" font-size="14" lengthAdjust="spacing" textLength="154" x="1534.5" y="148.9951">-phoneNumber: String</text><text fill="#000000" font-family="sans-serif" font-size="14" lengthAdjust="spacing" textLength="93" x="1534.5" y="165.292">-name: String</text><line style="stroke:#181818;stroke-width:0.5;" x1="1529.5" x2="1702.5" y1="172.5938" y2="172.5938"/></g><!--class CustomerDetailDto--><g id="elem_CustomerDetailDto"><rect codeLine="25" fill="#F1F1F1" height="113.1875" id="CustomerDetailDto" rx="2.5" ry="2.5" style="stroke:#181818;stroke-width:0.5;" width="166" x="1325" y="257"/><ellipse cx="1340.9" cy="273" fill="#ADD1B2" rx="11" ry="11" style="stroke:#181818;stroke-width:1.0;"/><path d="M1343.8688,278.6406 Q1343.2906,278.9375 1342.65,279.0781 Q1342.0094,279.2344 1341.3063,279.2344 Q1338.8063,279.2344 1337.4781,277.5938 Q1336.1656,275.9375 1336.1656,272.8125 Q1336.1656,269.6875 1337.4781,268.0313 Q1338.8063,266.375 1341.3063,266.375 Q1342.0094,266.375 1342.65,266.5313 Q1343.3063,266.6875 1343.8688,266.9844 L1343.8688,269.7031 Q1343.2438,269.125 1342.65,268.8594 Q1342.0563,268.5781 1341.4313,268.5781 Q1340.0875,268.5781 1339.4,269.6563 Q1338.7125,270.7188 1338.7125,272.8125 Q1338.7125,274.9063 1339.4,275.9844 Q1340.0875,277.0469 1341.4313,277.0469 Q1342.0563,277.0469 1342.65,276.7813 Q1343.2438,276.5 1343.8688,275.9219 L1343.8688,278.6406 Z " fill="#000000"/><text fill="#000000" font-family="sans-serif" font-size="14" lengthAdjust="spacing" textLength="132" x="1355.1" y="277.8467">CustomerDetailDto</text><line style="stroke:#181818;stroke-width:0.5;" x1="1326" x2="1490" y1="289" y2="289"/><text fill="#000000" font-family="sans-serif" font-size="14" lengthAdjust="spacing" textLength="60" x="1331" y="305.9951">-id: UUID</text><text fill="#000000" font-family="sans-serif" font-size="14" lengthAdjust="spacing" textLength="154" x="1331" y="322.292">-phoneNumber: String</text><text fill="#000000" font-family="sans-serif" font-size="14" lengthAdjust="spacing" textLength="93" x="1331" y="338.5889">-name: String</text><text fill="#000000" font-family="sans-serif" font-size="14" lengthAdjust="spacing" textLength="123" x="1331" y="354.8857">-deleted: boolean</text><line style="stroke:#181818;stroke-width:0.5;" x1="1326" x2="1490" y1="362.1875" y2="362.1875"/></g><!--class CustomerService--><g id="elem_CustomerService"><rect codeLine="34" fill="#F1F1F1" height="113.1875" id="CustomerService" rx="2.5" ry="2.5" style="stroke:#181818;stroke-width:0.5;" width="581" x="684.5" y="84"/><ellipse cx="911.75" cy="100" fill="#ADD1B2" rx="11" ry="11" style="stroke:#181818;stroke-width:1.0;"/><path d="M914.7188,105.6406 Q914.1406,105.9375 913.5,106.0781 Q912.8594,106.2344 912.1563,106.2344 Q909.6563,106.2344 908.3281,104.5938 Q907.0156,102.9375 907.0156,99.8125 Q907.0156,96.6875 908.3281,95.0313 Q909.6563,93.375 912.1563,93.375 Q912.8594,93.375 913.5,93.5313 Q914.1563,93.6875 914.7188,93.9844 L914.7188,96.7031 Q914.0938,96.125 913.5,95.8594 Q912.9063,95.5781 912.2813,95.5781 Q910.9375,95.5781 910.25,96.6563 Q909.5625,97.7188 909.5625,99.8125 Q909.5625,101.9063 910.25,102.9844 Q910.9375,104.0469 912.2813,104.0469 Q912.9063,104.0469 913.5,103.7813 Q914.0938,103.5 914.7188,102.9219 L914.7188,105.6406 Z " fill="#000000"/><text fill="#000000" font-family="sans-serif" font-size="14" lengthAdjust="spacing" textLength="118" x="932.25" y="104.8467">CustomerService</text><line style="stroke:#181818;stroke-width:0.5;" x1="685.5" x2="1264.5" y1="116" y2="116"/><line style="stroke:#181818;stroke-width:0.5;" x1="685.5" x2="1264.5" y1="124" y2="124"/><text fill="#000000" font-family="sans-serif" font-size="14" lengthAdjust="spacing" textLength="492" x="690.5" y="140.9951">+createCustomer(createDto: CreateCustomerDto): CustomerDetailDto</text><text fill="#000000" font-family="sans-serif" font-size="14" lengthAdjust="spacing" textLength="569" x="690.5" y="157.292">+updateCustomer(id: UUID, updateDto: UpdateCustomerDto): CustomerDetailDto</text><text fill="#000000" font-family="sans-serif" font-size="14" lengthAdjust="spacing" textLength="254" x="690.5" y="173.5889">+softDeleteCustomer(id: UUID): void</text><text fill="#000000" font-family="sans-serif" font-size="14" lengthAdjust="spacing" textLength="324" x="690.5" y="189.8857">+getAllCustomers(): List&lt;CustomerDetailDto&gt;</text></g><!--class CustomerController--><g id="elem_CustomerController"><rect codeLine="43" fill="#F1F1F1" height="113.1875" id="CustomerController" rx="2.5" ry="2.5" style="stroke:#181818;stroke-width:0.5;" width="581" x="46.5" y="84"/><ellipse cx="265.25" cy="100" fill="#ADD1B2" rx="11" ry="11" style="stroke:#181818;stroke-width:1.0;"/><path d="M268.2188,105.6406 Q267.6406,105.9375 267,106.0781 Q266.3594,106.2344 265.6563,106.2344 Q263.1563,106.2344 261.8281,104.5938 Q260.5156,102.9375 260.5156,99.8125 Q260.5156,96.6875 261.8281,95.0313 Q263.1563,93.375 265.6563,93.375 Q266.3594,93.375 267,93.5313 Q267.6563,93.6875 268.2188,93.9844 L268.2188,96.7031 Q267.5938,96.125 267,95.8594 Q266.4063,95.5781 265.7813,95.5781 Q264.4375,95.5781 263.75,96.6563 Q263.0625,97.7188 263.0625,99.8125 Q263.0625,101.9063 263.75,102.9844 Q264.4375,104.0469 265.7813,104.0469 Q266.4063,104.0469 267,103.7813 Q267.5938,103.5 268.2188,102.9219 L268.2188,105.6406 Z " fill="#000000"/><text fill="#000000" font-family="sans-serif" font-size="14" lengthAdjust="spacing" textLength="135" x="285.75" y="104.8467">CustomerController</text><line style="stroke:#181818;stroke-width:0.5;" x1="47.5" x2="626.5" y1="116" y2="116"/><line style="stroke:#181818;stroke-width:0.5;" x1="47.5" x2="626.5" y1="124" y2="124"/><text fill="#000000" font-family="sans-serif" font-size="14" lengthAdjust="spacing" textLength="492" x="52.5" y="140.9951">+createCustomer(createDto: CreateCustomerDto): CustomerDetailDto</text><text fill="#000000" font-family="sans-serif" font-size="14" lengthAdjust="spacing" textLength="569" x="52.5" y="157.292">+updateCustomer(id: UUID, updateDto: UpdateCustomerDto): CustomerDetailDto</text><text fill="#000000" font-family="sans-serif" font-size="14" lengthAdjust="spacing" textLength="226" x="52.5" y="173.5889">+deleteCustomer(id: UUID): void</text><text fill="#000000" font-family="sans-serif" font-size="14" lengthAdjust="spacing" textLength="324" x="52.5" y="189.8857">+getAllCustomers(): List&lt;CustomerDetailDto&gt;</text></g><!--SRC=[pPEnQiCm48PdwocEJ2vDeRCfXH0lWTB5-05awvgAo9AHpXbQ_EvL9Tl44Hqwf5IBqVtdx_xxGUuaTSyjxw1LtBaTaPNDG7XeZQxa1y8ZOprlJ_o8iDaFZao7TWEVB5kgdH6eGWaY1EO-NuDm7a2A0khwK2w5_jreV1sw1cq1bP-gZukcUOT9qGz1GezfZ578TH16betimeiW4vnaan6Bd72sKvAvSFGh0tx8zoTIwrxSWBhmaBXKQ-eVfUVGdcMBgmGdLrMKWfBTGxiADezNxxb88xyhqjKYP5ZbcCzBRYSXu9AiVyOvyqPbM3D1-f_EHehOTqJQAJNtkDoBBzBHKu9zzltN4VbdGTOeDJs2gvJsY_gVWn8t2MbaNm00]--></g></svg>