<?xml version="1.0" encoding="us-ascii" standalone="no"?><svg xmlns="http://www.w3.org/2000/svg" xmlns:xlink="http://www.w3.org/1999/xlink" contentStyleType="text/css" height="845px" preserveAspectRatio="none" style="width:767px;height:845px;background:#FFFFFF;" version="1.1" viewBox="0 0 767 845" width="767px" zoomAndPan="magnify"><defs/><g><!--cluster Tennis Reservation System--><g id="cluster_Tennis Reservation System"><rect fill="none" height="826" rx="2.5" ry="2.5" style="stroke:#181818;stroke-width:1.0;" width="590" x="171" y="7"/><text fill="#000000" font-family="sans-serif" font-size="14" font-weight="bold" lengthAdjust="spacing" textLength="215" x="358.5" y="21.9951">Tennis Reservation System</text></g><g id="elem_UC_Login"><ellipse cx="324.7231" cy="802.0485" fill="#F1F1F1" rx="37.7231" ry="14.5485" style="stroke:#181818;stroke-width:0.5;"/><text fill="#000000" font-family="sans-serif" font-size="14" lengthAdjust="spacing" textLength="37" x="304.6116" y="805.4312">Login</text></g><g id="elem_UC_ManageCourts"><ellipse cx="324.4811" cy="636.0962" fill="#F1F1F1" rx="110.9811" ry="24.5962" style="stroke:#181818;stroke-width:0.5;"/><text fill="#000000" font-family="sans-serif" font-size="14" lengthAdjust="spacing" textLength="188" x="230.4811" y="638.9429">Admin Courts Management</text></g><g id="elem_UC_ListCourts"><ellipse cx="324.5625" cy="225.0125" fill="#F1F1F1" rx="63.0625" ry="15.0125" style="stroke:#181818;stroke-width:0.5;"/><text fill="#000000" font-family="sans-serif" font-size="14" lengthAdjust="spacing" textLength="73" x="285.0625" y="228.7601">List Courts</text></g><g id="elem_UC_ManageReservations"><ellipse cx="324.6232" cy="724.2246" fill="#F1F1F1" rx="131.6232" ry="28.7246" style="stroke:#181818;stroke-width:0.5;"/><text fill="#000000" font-family="sans-serif" font-size="14" lengthAdjust="spacing" textLength="232" x="208.6232" y="727.0713">Admin Reservations Management</text></g><g id="elem_UC_CreateReservation"><ellipse cx="324.728" cy="295.0456" fill="#F1F1F1" rx="85.728" ry="19.5456" style="stroke:#181818;stroke-width:0.5;"/><text fill="#000000" font-family="sans-serif" font-size="14" lengthAdjust="spacing" textLength="132" x="258.728" y="297.8923">Create Reservation</text></g><g id="elem_UC_ListReservationsByCourt"><ellipse cx="324.3276" cy="373.7655" fill="#F1F1F1" rx="106.8276" ry="23.7655" style="stroke:#181818;stroke-width:0.5;"/><text fill="#000000" font-family="sans-serif" font-size="14" lengthAdjust="spacing" textLength="179" x="234.8276" y="376.6122">List Reservations by Court</text></g><g id="elem_UC_ListReservationsByPhone"><ellipse cx="324.3277" cy="71.8655" fill="#F1F1F1" rx="137.3277" ry="29.8655" style="stroke:#181818;stroke-width:0.5;"/><text fill="#000000" font-family="sans-serif" font-size="14" lengthAdjust="spacing" textLength="244" x="202.3277" y="74.7122">List Reservations by Phone number</text></g><g id="elem_UC_ManageSurfaceTypes"><ellipse cx="324.4233" cy="462.9847" fill="#F1F1F1" rx="135.4233" ry="29.4847" style="stroke:#181818;stroke-width:0.5;"/><text fill="#000000" font-family="sans-serif" font-size="14" lengthAdjust="spacing" textLength="240" x="204.4233" y="465.8313">Admin Surface Types Management</text></g><g id="elem_UC_ListSurfaceTypes"><ellipse cx="324.712" cy="155.9424" fill="#F1F1F1" rx="82.712" ry="18.9424" style="stroke:#181818;stroke-width:0.5;"/><text fill="#000000" font-family="sans-serif" font-size="14" lengthAdjust="spacing" textLength="125" x="261.5208" y="159.0215">List Surface Types</text></g><g id="elem_UC_CreateCustomer"><ellipse cx="664.7839" cy="294.8568" fill="#F1F1F1" rx="79.7839" ry="18.3568" style="stroke:#181818;stroke-width:0.5;"/><text fill="#000000" font-family="sans-serif" font-size="14" lengthAdjust="spacing" textLength="118" x="604.0356" y="298.2613">Create Customer</text></g><g id="elem_UC_ManageUsers"><ellipse cx="324.709" cy="552.0418" fill="#F1F1F1" rx="108.209" ry="24.0418" style="stroke:#181818;stroke-width:0.5;"/><text fill="#000000" font-family="sans-serif" font-size="14" lengthAdjust="spacing" textLength="182" x="233.709" y="554.8885">Admin Users Management</text></g><!--entity Customer--><g id="elem_Customer"><ellipse cx="65" cy="142.5" fill="#F1F1F1" rx="8" ry="8" style="stroke:#181818;stroke-width:0.5;"/><path d="M65,150.5 L65,177.5 M52,158.5 L78,158.5 M65,177.5 L52,192.5 M65,177.5 L78,192.5 " fill="none" style="stroke:#181818;stroke-width:0.5;"/><text fill="#000000" font-family="sans-serif" font-size="14" lengthAdjust="spacing" textLength="68" x="31" y="206.9951">Customer</text></g><!--entity Admin--><g id="elem_Admin"><ellipse cx="65" cy="388.5" fill="#F1F1F1" rx="8" ry="8" style="stroke:#181818;stroke-width:0.5;"/><path d="M65,396.5 L65,423.5 M52,404.5 L78,404.5 M65,423.5 L52,438.5 M65,423.5 L78,438.5 " fill="none" style="stroke:#181818;stroke-width:0.5;"/><text fill="#000000" font-family="sans-serif" font-size="14" lengthAdjust="spacing" textLength="43" x="43.5" y="452.9951">Admin</text></g><!--entity Anonymous--><g id="elem_Anonymous"><ellipse cx="65" cy="772.5" fill="#F1F1F1" rx="8" ry="8" style="stroke:#181818;stroke-width:0.5;"/><path d="M65,780.5 L65,807.5 M52,788.5 L78,788.5 M65,807.5 L52,822.5 M65,807.5 L78,822.5 " fill="none" style="stroke:#181818;stroke-width:0.5;"/><text fill="#000000" font-family="sans-serif" font-size="14" lengthAdjust="spacing" textLength="118" x="6" y="836.9951">Anonymous User</text></g><!--link UC_CreateReservation to UC_CreateCustomer--><g id="link_UC_CreateReservation_UC_CreateCustomer"><path d="M410.04,295 C463.6,295 526.41,295 578.89,295 " fill="none" id="UC_CreateReservation-to-UC_CreateCustomer" style="stroke:#181818;stroke-width:1.0;"/><polygon fill="#181818" points="584.89,295,575.89,291,579.89,295,575.89,299,584.89,295" style="stroke:#181818;stroke-width:1.0;"/><text fill="#000000" font-family="sans-serif" font-size="13" lengthAdjust="spacing" textLength="61" x="493" y="291.0669">&#171;include&#187;</text></g><!--link Anonymous to UC_Login--><g id="link_Anonymous_UC_Login"><path d="M124.11,802 C173.95,802 238.24,802 280.68,802 " fill="none" id="Anonymous-to-UC_Login" style="stroke:#181818;stroke-width:1.0;"/><polygon fill="#181818" points="286.68,802,277.68,798,281.68,802,277.68,806,286.68,802" style="stroke:#181818;stroke-width:1.0;"/></g><!--link Admin to UC_ManageCourts--><g id="link_Admin_UC_ManageCourts"><path d="M77.31,456.34 C91.09,496.35 118.24,558.03 163,593 C181.75,607.65 199.308,615.7275 222.328,622.1075 " fill="none" id="Admin-to-UC_ManageCourts" style="stroke:#181818;stroke-width:1.0;"/><polygon fill="#181818" points="228.11,623.71,220.5053,617.4516,223.2916,622.3746,218.3686,625.161,228.11,623.71" style="stroke:#181818;stroke-width:1.0;"/></g><!--link Admin to UC_ListCourts--><g id="link_Admin_UC_ListCourts"><path d="M86.52,390.29 C105.95,363.18 135.03,320.22 155,280 C159.63,270.68 155.13,264.8 163,258 C189.91,234.76 222.8277,226.8002 255.5877,224.2802 " fill="none" id="Admin-to-UC_ListCourts" style="stroke:#181818;stroke-width:1.0;"/><polygon fill="#181818" points="261.57,223.82,252.2897,220.5221,256.5847,224.2035,252.9033,228.4985,261.57,223.82" style="stroke:#181818;stroke-width:1.0;"/></g><!--link Customer to UC_ListCourts--><g id="link_Customer_UC_ListCourts"><path d="M99.22,178.85 C117.95,182.72 141.78,187.63 163,192 C201.03,199.83 238.263,207.4815 270.213,214.0515 " fill="none" id="Customer-to-UC_ListCourts" style="stroke:#181818;stroke-width:1.0;"/><polygon fill="#181818" points="276.09,215.26,268.0801,209.5292,271.1925,214.2529,266.4688,217.3652,276.09,215.26" style="stroke:#181818;stroke-width:1.0;"/></g><!--link Admin to UC_ManageReservations--><g id="link_Admin_UC_ManageReservations"><path d="M69.55,456.16 C76.88,512.75 98.81,618.63 163,678 C177.68,691.58 190.456,699.1719 209.546,705.9519 " fill="none" id="Admin-to-UC_ManageReservations" style="stroke:#181818;stroke-width:1.0;"/><polygon fill="#181818" points="215.2,707.96,208.0577,701.1786,210.4883,706.2866,205.3803,708.7172,215.2,707.96" style="stroke:#181818;stroke-width:1.0;"/></g><!--link Admin to UC_CreateReservation--><g id="link_Admin_UC_CreateReservation"><path d="M86.86,408.08 C106.96,397.53 136.91,379.06 155,355 C161.5,346.35 154.94,339.23 163,332 C184.07,313.09 206.945,304.3436 234.315,299.4136 " fill="none" id="Admin-to-UC_CreateReservation" style="stroke:#181818;stroke-width:1.0;"/><polygon fill="#181818" points="240.22,298.35,230.6535,296.0088,235.2992,299.2364,232.0716,303.8821,240.22,298.35" style="stroke:#181818;stroke-width:1.0;"/></g><!--link Admin to UC_ListReservationsByCourt--><g id="link_Admin_UC_ListReservationsByCourt"><path d="M86.64,414.47 C119.34,408.89 178.9558,398.7011 232.8258,389.4911 " fill="none" id="Admin-to-UC_ListReservationsByCourt" style="stroke:#181818;stroke-width:1.0;"/><polygon fill="#181818" points="238.74,388.48,229.1946,386.0539,233.8115,389.3226,230.5428,393.9395,238.74,388.48" style="stroke:#181818;stroke-width:1.0;"/></g><!--link Admin to UC_ListReservationsByPhone--><g id="link_Admin_UC_ListReservationsByPhone"><path d="M77.37,379.77 C100.85,301.25 153.34,128.39 163,119 C176.64,105.75 188.2048,98.3405 206.1948,91.4705 " fill="none" id="Admin-to-UC_ListReservationsByPhone" style="stroke:#181818;stroke-width:1.0;"/><polygon fill="#181818" points="211.8,89.33,201.9652,88.804,207.129,91.1138,204.8192,96.2776,211.8,89.33" style="stroke:#181818;stroke-width:1.0;"/></g><!--link Customer to UC_CreateReservation--><g id="link_Customer_UC_CreateReservation"><path d="M99.26,208.48 C116.69,225.56 139.32,244.79 163,257 C189.72,270.78 215.6472,278.4701 243.8672,284.1301 " fill="none" id="Customer-to-UC_CreateReservation" style="stroke:#181818;stroke-width:1.0;"/><polygon fill="#181818" points="249.75,285.31,241.7123,279.6182,244.8476,284.3267,240.1391,287.462,249.75,285.31" style="stroke:#181818;stroke-width:1.0;"/></g><!--link Customer to UC_ListReservationsByPhone--><g id="link_Customer_UC_ListReservationsByPhone"><path d="M99.24,151.52 C117.57,140.82 141.01,128.1 163,119 C185.4,109.73 204.5042,103.1942 227.8442,96.3242 " fill="none" id="Customer-to-UC_ListReservationsByPhone" style="stroke:#181818;stroke-width:1.0;"/><polygon fill="#181818" points="233.6,94.63,223.8368,93.3341,228.8035,96.0418,226.0957,101.0085,233.6,94.63" style="stroke:#181818;stroke-width:1.0;"/></g><!--link Admin to UC_ManageSurfaceTypes--><g id="link_Admin_UC_ManageSurfaceTypes"><path d="M86.64,421.61 C115.28,426.61 163.1995,434.9876 212.3195,443.5676 " fill="none" id="Admin-to-UC_ManageSurfaceTypes" style="stroke:#181818;stroke-width:1.0;"/><polygon fill="#181818" points="218.23,444.6,210.0525,439.111,213.3046,443.7397,208.676,446.9917,218.23,444.6" style="stroke:#181818;stroke-width:1.0;"/></g><!--link Admin to UC_ListSurfaceTypes--><g id="link_Admin_UC_ListSurfaceTypes"><path d="M71.56,379.65 C81.02,328.83 105.19,240.01 163,192 C185.3,173.48 209.2337,164.9888 237.1337,160.2788 " fill="none" id="Admin-to-UC_ListSurfaceTypes" style="stroke:#181818;stroke-width:1.0;"/><polygon fill="#181818" points="243.05,159.28,233.5097,156.834,238.1198,160.1123,234.8414,164.7223,243.05,159.28" style="stroke:#181818;stroke-width:1.0;"/></g><!--link Customer to UC_ListSurfaceTypes--><g id="link_Customer_UC_ListSurfaceTypes"><path d="M99.14,169.94 C135.68,167.67 189.7615,164.3118 238.5615,161.2818 " fill="none" id="Customer-to-UC_ListSurfaceTypes" style="stroke:#181818;stroke-width:1.0;"/><polygon fill="#181818" points="244.55,160.91,235.3194,157.4754,239.5596,161.2199,235.8152,165.46,244.55,160.91" style="stroke:#181818;stroke-width:1.0;"/></g><!--link Admin to UC_ManageUsers--><g id="link_Admin_UC_ManageUsers"><path d="M86.83,443.97 C104.87,464.79 132.77,493.19 163,510 C185.66,522.6 206.4019,530.0638 231.3219,536.3438 " fill="none" id="Admin-to-UC_ManageUsers" style="stroke:#181818;stroke-width:1.0;"/><polygon fill="#181818" points="237.14,537.81,229.3903,531.732,232.2916,536.5882,227.4354,539.4894,237.14,537.81" style="stroke:#181818;stroke-width:1.0;"/></g><!--SRC=[XLFBQiCm43n7Nx7aalQG7oWXu1ht0NdXHw6deZYRnCIMWYKNJEc_rv5bLueLShCqkpipycoEUmcIGvaTZX9sMOcfp3WZufInCorf0MUQdkW18rdd21UOiaEEXD1KyXB6VYKaBx0S0nNG7JhGsnKPKuZwwgyPPtN1Am69q9tz5I4z1unZP2mJ469JzaqlmY2gXSHY33-404p0I-8tc3IVbS2KYgPdmG-QC_6_rA6jzDT96CFIMtclmJ9OnNQNqWS-hqefO4bPuxX09hivxKqBMsIPaBghfsokTA7Y3OCe23-y-7szkiDksBojmImoH_WbKedcZAwlHGnWOC0YtjQj8TEFMV1SA_ZkaCsHCmHM5LlzYvspL5NxK54IldX-0F7d9hZpKb5LxccA4DTdlFrKkaeL3UHQ8qnzLXSPDS59edYz3CARclJJMvlGltk_4ifZ4jbp7be_dENreylePJzk6rHebxA5YbZKJ1cvVZfCf_EXAdY2sInZQLxjS3udluJqA_M_fBfJxrAtIKs5agXHQqCin5o8djU1sQlY76-5tyA78HzeS8NuJf5EvxNg8PdBbtFKLSoTBgq43XJQ-NGHsnKwT4wcDa1_]--></g></svg>