<?xml version="1.0" encoding="us-ascii" standalone="no"?><svg xmlns="http://www.w3.org/2000/svg" xmlns:xlink="http://www.w3.org/1999/xlink" contentStyleType="text/css" height="726px" preserveAspectRatio="none" style="width:407px;height:726px;background:#FFFFFF;" version="1.1" viewBox="0 0 407 726" width="407px" zoomAndPan="magnify"><defs/><g><!--cluster Tennis Reservation System--><g id="cluster_Tennis Reservation System"><rect fill="none" height="713" rx="2.5" ry="2.5" style="stroke:#181818;stroke-width:1.0;" width="231" x="82" y="7"/><text fill="#000000" font-family="sans-serif" font-size="14" font-weight="bold" lengthAdjust="spacing" textLength="215" x="90" y="21.9951">Tennis Reservation System</text></g><g id="elem_UC_Login"><ellipse cx="197.7231" cy="625.0485" fill="#F1F1F1" rx="37.7231" ry="14.5485" style="stroke:#181818;stroke-width:0.5;"/><text fill="#000000" font-family="sans-serif" font-size="14" lengthAdjust="spacing" textLength="37" x="177.6116" y="628.4312">Login</text></g><g id="elem_UC_Register"><ellipse cx="197.3472" cy="689.2215" fill="#F1F1F1" rx="53.3472" ry="14.7215" style="stroke:#181818;stroke-width:0.5;"/><text fill="#000000" font-family="sans-serif" font-size="14" lengthAdjust="spacing" textLength="58" x="165.3472" y="692.969">Register</text></g><g id="elem_UC_CreateCourt"><ellipse cx="197.74" cy="261.048" fill="#F1F1F1" rx="68.24" ry="16.048" style="stroke:#181818;stroke-width:0.5;"/><text fill="#000000" font-family="sans-serif" font-size="14" lengthAdjust="spacing" textLength="88" x="150.74" y="264.7956">Create Court</text></g><g id="elem_UC_ListCourts"><ellipse cx="197.5233" cy="193.9047" fill="#F1F1F1" rx="67.5233" ry="15.9047" style="stroke:#181818;stroke-width:0.5;"/><text fill="#000000" font-family="sans-serif" font-size="14" lengthAdjust="spacing" textLength="86" x="151.5233" y="197.6522">Read Courts</text></g><g id="elem_UC_UpdateCourt"><ellipse cx="197.6952" cy="125.839" fill="#F1F1F1" rx="69.6952" ry="16.339" style="stroke:#181818;stroke-width:0.5;"/><text fill="#000000" font-family="sans-serif" font-size="14" lengthAdjust="spacing" textLength="92" x="148.6952" y="129.5866">Update Court</text></g><g id="elem_UC_DeleteCourt"><ellipse cx="197.74" cy="58.048" fill="#F1F1F1" rx="68.24" ry="16.048" style="stroke:#181818;stroke-width:0.5;"/><text fill="#000000" font-family="sans-serif" font-size="14" lengthAdjust="spacing" textLength="88" x="150.74" y="61.7956">Delete Court</text></g><g id="elem_UC_CreateReservation"><ellipse cx="197.728" cy="556.0456" fill="#F1F1F1" rx="85.728" ry="19.5456" style="stroke:#181818;stroke-width:0.5;"/><text fill="#000000" font-family="sans-serif" font-size="14" lengthAdjust="spacing" textLength="132" x="131.728" y="558.8923">Create Reservation</text></g><g id="elem_UC_ListReservations"><ellipse cx="197.3592" cy="481.8718" fill="#F1F1F1" rx="84.8592" ry="19.3718" style="stroke:#181818;stroke-width:0.5;"/><text fill="#000000" font-family="sans-serif" font-size="14" lengthAdjust="spacing" textLength="130" x="132.3592" y="484.7185">Read Reservations</text></g><g id="elem_UC_UpdateReservation"><ellipse cx="197.4744" cy="406.8949" fill="#F1F1F1" rx="87.4744" ry="19.8949" style="stroke:#181818;stroke-width:0.5;"/><text fill="#000000" font-family="sans-serif" font-size="14" lengthAdjust="spacing" textLength="136" x="129.4744" y="409.7416">Update Reservation</text></g><g id="elem_UC_DeleteReservation"><ellipse cx="197.728" cy="332.0456" fill="#F1F1F1" rx="85.728" ry="19.5456" style="stroke:#181818;stroke-width:0.5;"/><text fill="#000000" font-family="sans-serif" font-size="14" lengthAdjust="spacing" textLength="132" x="131.728" y="334.8923">Delete Reservation</text></g><!--entity User--><g id="elem_User"><ellipse cx="22" cy="452.5" fill="#F1F1F1" rx="8" ry="8" style="stroke:#181818;stroke-width:0.5;"/><path d="M22,460.5 L22,487.5 M9,468.5 L35,468.5 M22,487.5 L9,502.5 M22,487.5 L35,502.5 " fill="none" style="stroke:#181818;stroke-width:0.5;"/><text fill="#000000" font-family="sans-serif" font-size="14" lengthAdjust="spacing" textLength="32" x="6" y="516.9951">User</text></g><!--entity Admin--><g id="elem_Admin"><ellipse cx="378.5" cy="302.5" fill="#F1F1F1" rx="8" ry="8" style="stroke:#181818;stroke-width:0.5;"/><path d="M378.5,310.5 L378.5,337.5 M365.5,318.5 L391.5,318.5 M378.5,337.5 L365.5,352.5 M378.5,337.5 L391.5,352.5 " fill="none" style="stroke:#181818;stroke-width:0.5;"/><text fill="#000000" font-family="sans-serif" font-size="14" lengthAdjust="spacing" textLength="43" x="357" y="366.9951">Admin</text></g><!--link User to UC_Login--><g id="link_User_UC_Login"><path d="M31.54,520.09 C38.89,544.3 51.9,574.47 74,593 C98.09,613.2 127.5231,620.181 154.0831,622.981 " fill="none" id="User-to-UC_Login" style="stroke:#181818;stroke-width:1.0;"/><polygon fill="#181818" points="160.05,623.61,151.519,618.6885,155.0776,623.0858,150.6802,626.6444,160.05,623.61" style="stroke:#181818;stroke-width:1.0;"/></g><!--link User to UC_Register--><g id="link_User_UC_Register"><path d="M23.66,520.27 C26.45,559.93 37.02,621.04 74,657 C92.6,675.08 114.1452,682.4079 138.3652,686.0079 " fill="none" id="User-to-UC_Register" style="stroke:#181818;stroke-width:1.0;"/><polygon fill="#181818" points="144.3,686.89,135.9859,681.6103,139.3543,686.1549,134.8097,689.5233,144.3,686.89" style="stroke:#181818;stroke-width:1.0;"/></g><!--link User to UC_CreateReservation--><g id="link_User_UC_CreateReservation"><path d="M38.2,495.12 C47.91,502.95 61.06,512.58 74,519 C93.6,528.72 110.4892,534.7976 130.9392,540.6176 " fill="none" id="User-to-UC_CreateReservation" style="stroke:#181818;stroke-width:1.0;"/><polygon fill="#181818" points="136.71,542.26,129.1486,535.9492,131.901,540.8914,126.9588,543.6437,136.71,542.26" style="stroke:#181818;stroke-width:1.0;"/></g><!--link User to UC_ListReservations--><g id="link_User_UC_ListReservations"><path d="M38.09,482 C54.99,482 77.76,482 106.17,482 " fill="none" id="User-to-UC_ListReservations" style="stroke:#181818;stroke-width:1.0;"/><polygon fill="#181818" points="112.17,482,103.17,478,107.17,482,103.17,486,112.17,482" style="stroke:#181818;stroke-width:1.0;"/></g><!--link User to UC_UpdateReservation--><g id="link_User_UC_UpdateReservation"><path d="M38.22,468.92 C47.93,461.1 61.09,451.46 74,445 C93.51,435.23 110.283,429.0601 130.653,423.0801 " fill="none" id="User-to-UC_UpdateReservation" style="stroke:#181818;stroke-width:1.0;"/><polygon fill="#181818" points="136.41,421.39,126.6477,420.0871,131.6125,422.7984,128.9012,427.7632,136.41,421.39" style="stroke:#181818;stroke-width:1.0;"/></g><!--link User to UC_DeleteReservation--><g id="link_User_UC_DeleteReservation"><path d="M31.53,443.78 C38.88,419.21 51.91,388.37 74,369 C88.36,356.4 101.1524,349.8121 119.4424,344.3321 " fill="none" id="User-to-UC_DeleteReservation" style="stroke:#181818;stroke-width:1.0;"/><polygon fill="#181818" points="125.19,342.61,115.4206,341.3614,120.4004,344.0451,117.7167,349.0248,125.19,342.61" style="stroke:#181818;stroke-width:1.0;"/></g><!--link User to UC_ListCourts--><g id="link_User_UC_ListCourts"><path d="M25.77,443.89 C31.12,380.65 45.03,257.94 74,227 C88.98,211 104.9507,203.7056 126.0607,199.2256 " fill="none" id="User-to-UC_ListCourts" style="stroke:#181818;stroke-width:1.0;"/><polygon fill="#181818" points="131.93,197.98,122.2957,195.9355,127.0389,199.018,123.9565,203.7612,131.93,197.98" style="stroke:#181818;stroke-width:1.0;"/></g><!--reverse link UC_Login to Admin--><g id="link_UC_Login_Admin"><path d="M241.1652,624.7283 C268.5552,622.7983 298.94,616.01 321,593 C351.28,561.41 367.62,434.52 374.12,370.03 " fill="none" id="UC_Login-backto-Admin" style="stroke:#181818;stroke-width:1.0;"/><polygon fill="#181818" points="235.18,625.15,244.4389,628.5075,240.1676,624.7986,243.8766,620.5273,235.18,625.15" style="stroke:#181818;stroke-width:1.0;"/></g><!--reverse link UC_CreateReservation to Admin--><g id="link_UC_CreateReservation_Admin"><path d="M277.6391,544.5499 C295.6091,539.0699 307.73,532.27 321,519 C360.81,479.19 372.75,412.38 376.22,370.33 " fill="none" id="UC_CreateReservation-backto-Admin" style="stroke:#181818;stroke-width:1.0;"/><polygon fill="#181818" points="271.9,546.3,281.6754,547.5008,276.6826,544.8415,279.3418,539.8487,271.9,546.3" style="stroke:#181818;stroke-width:1.0;"/></g><!--reverse link UC_ListReservations to Admin--><g id="link_UC_ListReservations_Admin"><path d="M273.3092,469.2135 C292.1992,463.5735 305.87,456.8 321,444 C343.61,424.87 358.14,394.46 366.8,370.15 " fill="none" id="UC_ListReservations-backto-Admin" style="stroke:#181818;stroke-width:1.0;"/><polygon fill="#181818" points="267.56,470.93,277.3282,472.188,272.351,469.4995,275.0395,464.5224,267.56,470.93" style="stroke:#181818;stroke-width:1.0;"/></g><!--reverse link UC_UpdateReservation to Admin--><g id="link_UC_UpdateReservation_Admin"><path d="M263.1559,390.6559 C283.7459,384.5959 300.96,378.44 321,369 C333.52,363.1 346.5,354.78 356.86,347.52 " fill="none" id="UC_UpdateReservation-backto-Admin" style="stroke:#181818;stroke-width:1.0;"/><polygon fill="#181818" points="257.4,392.35,267.1632,393.6462,262.1966,390.9383,264.9045,385.9717,257.4,392.35" style="stroke:#181818;stroke-width:1.0;"/></g><!--reverse link UC_DeleteReservation to Admin--><g id="link_UC_DeleteReservation_Admin"><path d="M289.02,332 C316.36,332 338.32,332 356.65,332 " fill="none" id="UC_DeleteReservation-backto-Admin" style="stroke:#181818;stroke-width:1.0;"/><polygon fill="#181818" points="283.02,332,292.02,336,288.02,332,292.02,328,283.02,332" style="stroke:#181818;stroke-width:1.0;"/></g><!--reverse link UC_CreateCourt to Admin--><g id="link_UC_CreateCourt_Admin"><path d="M255.3264,272.8526 C277.8164,278.3826 298.38,284.76 321,295 C333.6,300.71 346.59,309.02 356.93,316.31 " fill="none" id="UC_CreateCourt-backto-Admin" style="stroke:#181818;stroke-width:1.0;"/><polygon fill="#181818" points="249.5,271.42,257.2846,277.4533,254.3554,272.6139,259.1948,269.6847,249.5,271.42" style="stroke:#181818;stroke-width:1.0;"/></g><!--reverse link UC_ListCourts to Admin--><g id="link_UC_ListCourts_Admin"><path d="M265.5283,201.7463 C286.6783,206.4263 303.57,213.18 321,227 C342.42,243.97 356.77,271.36 365.65,293.91 " fill="none" id="UC_ListCourts-backto-Admin" style="stroke:#181818;stroke-width:1.0;"/><polygon fill="#181818" points="259.67,200.45,267.5932,206.3,264.5519,201.5303,269.3216,198.4889,259.67,200.45" style="stroke:#181818;stroke-width:1.0;"/></g><!--reverse link UC_UpdateCourt to Admin--><g id="link_UC_UpdateCourt_Admin"><path d="M268.5385,133.0699 C289.3585,137.8399 305.27,144.99 321,160 C357.83,195.16 370.68,254.69 375.14,293.68 " fill="none" id="UC_UpdateCourt-backto-Admin" style="stroke:#181818;stroke-width:1.0;"/><polygon fill="#181818" points="262.69,131.73,270.5694,137.6389,267.5637,132.8466,272.356,129.8409,262.69,131.73" style="stroke:#181818;stroke-width:1.0;"/></g><!--reverse link UC_DeleteCourt to Admin--><g id="link_UC_DeleteCourt_Admin"><path d="M268.3498,64.0493 C289.5298,68.7093 305.7,76.09 321,92 C348.51,120.62 365.82,233.78 373.27,293.93 " fill="none" id="UC_DeleteCourt-backto-Admin" style="stroke:#181818;stroke-width:1.0;"/><polygon fill="#181818" points="262.49,62.76,270.4202,68.6005,267.3732,63.8344,272.1393,60.7874,262.49,62.76" style="stroke:#181818;stroke-width:1.0;"/></g><!--SRC=[TLBBReCm4BpxAxPSSk8NAY5gHPKI8ZdGQsN1XbeY4DbEfQhglzTWQFmgfp0pkpCJzgd3YnWH62thejeVABG3LueCUD6W9v2Y_z3G2Ocj5jD826_r9A5HADUVHNSL1fy5VEm7XAp6SHGA61hH9v_7uFobD5up-2PWdhl2bYkZF4oz63FW2fhoVNdnUOQzC8DoasplP97je3mrh8PZKHLxUgHL3Jj_lfJ8DK8vtQNUTbXiWK8ptbcf-ejat2pYIvjR5-srM6Bl2muOYYrcnMiNHi-KlHNrwwa2hn8aEpd_hj_C8HBz7DPhwUB9hWa_o_phj_PE35h67VmXP3ufoFFdnocuoEFBksZSsDiIzdB9EBpBnWcZpUjTaEN-8M_Sv04Onmo6mg0-7KVr-KJObB-zjjXvBPBoJ8suf_iB]--></g></svg>